<svg version="1.1" id="Layer_1" xmlns="http://www.w3.org/2000/svg" x="0" y="0" viewBox="0 0 620 390" xml:space="preserve"><style>.st2{fill:#4ebea4}.st3{fill:#2d61ba}.st4{fill:#fec754}.st5{fill:#61aafc}.st6{fill:#b4d7fe}.st8{fill:#252933}.st9{fill:#f5dc45}.st11{fill:#fece30}.st13{fill:#1c3851}.st18{fill:#3065be}.st22{fill:#d4e4f7}.st23{fill:#d3e3f7}.st26{fill:#d8e9fb}.st30{fill:#fcefb5}.st31{fill:#45bca0}.st36{fill:#555966}.st48{fill:#1f56b5}.st51{fill:#1149f8}.st52{fill:#36404d}.st55{fill:#161f2c}.st58{fill:#3064be}.st59{fill:#2e272e}.st63{fill:#fefefe}.st80{fill:#2258b6}.st81{fill:#f8e88e}.st82{fill:#fcf1be}.st83{fill:#f8e47a}.st84{fill:#194ced}.st86{fill:#295db7}.st87{fill:#143cbd}.st88{fill:#5fa8f9}.st92{fill:#1c4ac5}.st94{fill:#e7e8e0}.st98{fill:#e7ebe9}.st100{fill:#eae3ca}.st101{fill:#e9e6d7}.st102{fill:#ece3c8}.st105{fill:#e7eae8}.st106{fill:#e7e7dd}.st107{fill:#e5eaef}.st108{fill:#885c3d}.st112{fill:#613937}.st113{fill:#b17d45}.st114{fill:#e3f0fe}.st119{fill:#5aa7fd}.st125{fill:#d8e9fe}.st126{fill:#85a5db}.st128{fill:#4e7ac6}.st129{fill:#60a9fb}.st132{fill:#2157b6}.st135{fill:#272c39}.st136{fill:#323541}.st138{fill:#f5f7fa}.st166{fill:#251e24}.st179{fill:#3162be}.st197{fill:#2f64be}.st201{fill:#63abfc}.st202{fill:#6bb0fc}.st205{fill:#a9d6ff}</style><path d="M156.9 15.5v1c-2.3 1.9-4.7 1.9-7.1 0v-1h7.1z" fill="#d8ebfe"/><path d="M505.7 96.2c-1.7 4.6-.7 9.5-.8 14.2-.2 7.7-.1 15.5-.1 23.2-4.8 2.4-9.8 1.7-14.7.4-2.7-3-1.4-6.7-1.8-10-.1-.5-.3-1-.6-1.4-5.4-1.8-11 .1-16.4-1.2-1.6-.6-3.3-.5-4.9-.5h-60.6c-.8 0-1.7 0-2.4.3-.3.4-.6.8-.8 1.3-1 4.4.1 8.8-.6 13.2-.3 1.8-1.7 2.7-3.1 3.6-2.9 2-5 4.6-6.2 8-.6 1.4-1.9 2.6-2 4.3.5 1.5 1.9 1.7 2.9 2.5 2.1 2.7 5.9 3.7 7.3 7.1.4 1.9.4 3.7-.6 5.5-1.2 1.2-2.8 1.2-4.4 1.3-3.5.2-6.2 1.9-8.3 4.7-6.4 8.2-13 16.2-19.4 24.4-.2.4-.4.8-.6 1.1-.8 1.7-.5 3.3.5 4.8.3.4.6.8.9 1.1 2.5 2.8 5.6 3.4 9.1 2.8 2.9-.5 5.9-1.1 9 .8 2.4 4.6 0 10.1 1.9 14.9.3 1.8.4 3.6.3 5.5-.6 17.3 1 34.5 1.2 51.7.1 9.4.8 18.9.8 28.3 0 3 0 6-.6 8.9-.3 1.3-1.4 2.3-.9 3.8.6.9 1.8 1.1 2.6 1.6 1.1 1.1 3.5.9 3.3 3.3-2 1.7-4 1.5-6 0-1.4-.9-2.9-.5-4.4-.5h-144c-2.6.6-5.1.7-7.6.2-1.7-.8-2.1-2.1-2.1-3.7 0-.5.2-1.1.4-1.6 1.9-2.7 5.3-.9 7.7-2.6 1.3-1.3 1.6-3 1.3-4.6-.6-1.8-2.4-2-3.3-3.1-.5-1.8.8-3.1 1.5-4.5 2.2-4.5 1.7-9.2 1.6-13.9.6-9.1-2.2-17.7-4.1-26.4-1.3-6-4.1-11.6-4.8-17.7 0-.6.1-1.2.3-1.8.3-1.3.3-2.7.3-4V101.3c0-1.2-.1-2.3-.1-3.5.1-.7.4-1.3.9-1.7 1.7-1 3.5-.9 5.4-.9h196.9c.8 0 1.7 0 2.5.1 2.7.7 5.2 1.8 8.2 1.5 3.1-.3 3.9 3.3 6.5 4.1 2.7-.2 3.2-3.4 6.2-4 2.9.8 6.2-.4 9.4-1.6 10.7-.2 21.5-.1 32.2-.1 1.7-.1 3.6-.2 5.1 1z" fill="#fafbfd"/><path class="st2" d="M400.4 121.4h89.5V209h-89.5z"/><path class="st3" d="M137.9 255.4c1.6-6.8-.1-13.8.9-20.6 1.7-2.3 4.2-1.6 6.4-1.7 7.9-.2 15.9.2 23.1-.2 2.5-1.3 2.2-3.7 3.8-4.7 1.6-.8 3.2 0 4.9-.4-1.1-2.1-4.6-2.3-4.2-5.5 1-7.1.2-14.2.5-21.3.1-2-.3-4 0-4.9V218c0 1.6.7 3.4-.8 4.7-2.8-1.5-2.1-4.3-2.2-6.6-.3-6.9.3-13.9-.3-20.3-2.1-2-4.2-1.6-6.1-1.6-6.3-.1-12.6.1-18.9-.1-2.2-.1-4.8.5-6.2-2 0-.5 0-1-.1-1.5 1.1-1.7.6-3.6.6-5.3v-82c0-1.8-.3-3.7.3-5.5 1.6-1.9 3.9-1.6 6-1.6h78.5c2 0 4-.2 5.8 1.1 1.3 1.5 1.2 3.4 1.2 5.2 0 44.9.1 89.8 0 134.7 0 1-.1 2-.3 3-.9 2.6-2.8 1.9-4.3 1-4-2-8.3-2.8-12.6-3.7-2.2-1-2.8-3-3-5.2 0-1.8 1.4-2.9 2.3-4.2 2.9-4.3 2.9-12.2.1-15.7-.6-.2-1.2-.5-1.7-.9-.9-.6-2.1-.5-3.1-.8-2.4-1-3.8-3.2-5.7-4.8-1.4-1.2-3-2.2-5-1.8-2 .5-2.3 2.8-4 3.6-2.2 1.3-5.1-.3-7.1 2-1.3 2.2 0 4.1.9 6s-.1 4 .5 5.8c1.8 2.4 4.9 1 6.8 2.7.6.8.6 1.7.4 2.7-.1.7-.9.6-1.3 1.1.5.4 1.2-.1 1.7.4 1.3 1.2 1.2 3 2.5 4.3 1.4 2.4 6.8.4 6.1 5.4-2.5 3.6-7.7 5.3-7.9 10.7-1.4 3.6-1.7 7.5-2.7 11.2-1.3 3.3.2 7.5-3.3 10.1-5.3 1.4-10.6 1-15.9.6-2.4-2-2.4-5-3-7.7-.5-1.9-.6-3.9-2.6-5.9-7.7-.3-16 0-24.2-.2-2.2 0-4.8.6-6.8-1.5z"/><path class="st4" d="M34.7 148.5c1.2-3.7 4-5.1 7.7-5.1 18 0 36-.1 53.9 0 4.9 0 7.5 2.5 7.5 7.4.1 28.6.1 57.3 0 85.9 0 4.6-2.8 7.6-7.5 7.6-18.1.1-36.3.1-54.4 0-3.6 0-6.2-2.1-7.2-5.8-.8-10.8-.1-21.7-.4-32.4 2.3-2.7 5.4-2.8 8.2-3.4.5-.1 1 0 1.5.1 1-.4.4 1.9 1.7 1 .4-.5.8-.8 1.3-1.2 1.1-.7 1.6-1.8 2.2-2.9.1-.4.2-.8.4-1.3.4-.5.9-1 1.6-1.3.5.1.9.3 1.2.6 1.3 1.5 1.7 3.3 1 5.2-.2.9-.6 1.7-.9 2.5-.1.4-.2.8-.3 1.3-.5 1.4-1 2.8-1.8 4 0 1.1-.3 2-.9 2.8-.1.3-.1.6-.1.9 0-.1 0 0 0 0 0-.4.1-.8.3-1.1.7-.8.6-1.7.8-2.6.9-1.1 1.2-2.5 1.7-3.8l.3-1.2c.2-.6.4-1.1.7-1.7.3-1.8 1.5-2.9 2.8-3.9.6-.6 1.1-1.3 1.7-1.8.7-.5 1.6-.7 2.4-1 .7-.1 1.3-.3 1.9-.6 1.7-.5 3.5-.9 5.3-1 1.2 0 2.4.6 3.5-.3.5-.6.5-1.3.3-2.1-.1-.4-.2-.8-.2-1.2 0-.9.2-1.7.4-2.5.1-.7 0-1.3.2-2 .8-1.9.9-3.9 1.7-5.8.2-.9 0-1.8.2-2.6.9-.7.7-2 1.4-2.8.7-.7 1.5-1.3 2-2.2.2-.3.4-.7.7-1 .9-.8 2-1.4 3.1-1.8l1.2-.3c.5-.3 1-.8 1.6-1 1.2-.4 2.6.5 3.7-.5.3-.5.4-1 .4-1.5-.1-.4-.2-.7-.3-1.1-.1-.4-.2-.7-.3-1.1-.1-.8.3-1.5.3-2.3v-1.8c0-.4.1-.8.2-1.2.3-1 .4-2 .8-3 0-.5.1-1 0-1.5v-.3.3c0 .5 0 1-.1 1.4-.3.7-.4 1.5-.6 2.3-.2.6-.4 1.2-.3 1.8v1.8c0 .6-.2 1.2-.5 1.8-.2.4-.4.7-.6 1s-.5.6-.8.9c-.5.6-.9 1.3-1.3 2-.3.3-.6.6-.9.8-.2.1-.4.2-.5.3-.3.3-.6.5-1 .8l-1.2.3c-1.8 1.2-4 1-6 1.3-.3.2-.6.5-.8.8-.2.6-.1 1.1.1 1.6.4 1.2.9 2.3.1 3.5-.8.9-.4 2-.7 3-.7 1.6-.8 3.3-1.4 4.9-.3.8-.5 1.6-.5 2.4-.1.8-.4 1.5-.7 2.3-.2.3-.4.6-.7.9-.4.4-.8.8-1.2 1.3-.2.3-.5.6-.8.9-.4.4-.9.8-1.5 1.1-1.8.6-3.8.8-5.5 1.5-.4.1-.8.2-1.3.3-2.2.6-4.3-.3-6.5-.4-.6-.4-.8-1-.6-1.7.3-.5.8-1 1-1.6.5-.6 1.1-1.1 1.6-1.7.2-.3.3-.7.5-1l1.2-1.2c.4-.4.6-1 .9-1.4.4-.4.6-.9.9-1.4.3-.4.8-.8 1.1-1.2.4-.4.6-1 .9-1.4.5-.5 1.1-1 1.5-1.6.1-.4.3-.7.5-1 .4-.4.8-.8 1.1-1.2.2-.3.4-.5.4-.9-.1-.4.1-.6.5-.7l-.4-.3c.1.3.1.6-.2.9-.1.3-.2.6-.4.9-.4.4-.7.8-1.1 1.1-.4.4-.5.9-.9 1.3-.5.5-1.1 1-1.5 1.6-.1.4-.3.7-.5 1-.4.4-.8.8-1.1 1.2-.4.6-.9 1.2-1.3 1.8-.1.3-.3.7-.5 1-.4.4-.8.8-1.1 1.2-.4.4-.6 1-.9 1.4-.5.5-1.1 1-1.5 1.6-.1.4-.3.7-.5 1-.4.4-.6 1-.9 1.5-.5.7-1.3.9-1.8 1.6-.5.5-.8 1-.9 1.6l-.3.6c-.2.1-.4.3-.6.4-.5.2-.9.4-1.4.5-.8.2-1.6.5-2.4.8-3.5.8-7.1 2.6-10.2-1.4.6-16.9-.2-34.2.6-51.5z"/><path class="st5" d="M439.7 96.6c-68.9 0-137.8 0-206.8.1-.6.4-1.2.6-1.8.7-3.1-.6-6.3-.3-9.5-.3h-77.4c-1.8 0-3.7.5-5.4-.5 0-4.2-.1-8.3-.1-12.5.1-6.4 3.1-9.5 9.5-9.5 12.2-.1 24.3 0 36.5 0 47.6 0 95.3 0 142.9.1 1.7 0 3.3.1 5 .2-.3 2.8-2.8 2.9-4.7 3.6-2.7 1.1-5.7 1.6-7.7 4.5 2.1 1.8 4.3 1.2 6.4 1.2h100.8c2.6 0 5.3-.3 7.9.7 1.9 1 3.4 2.5 4.8 4.1 2.7 3.2 1.9 5.1-2.4 6.2H235c-.7.4.2 1.3-.1.7-.1-.3-.1-.4.2-.4 67.6-.5 135.2-.1 202.8-.2 1-.2 2.1-.2 1.8 1.3z"/><path class="st6" d="M435.6 85.4c-38.8 0-77.5.1-116.3.1-.6 0-1.3-.2-2.1-.4.2-4.7 3.9-5.8 7.1-7.4 2.6-1.3 6-.7 8.2-3.1 3.1-.3 2.2-3.3 3.3-5 5-7.6 12-9.2 20.7-7.7 2.1-13.9 10.5-22 23.5-25.3 15.4-3.9 27.3 1.5 35.5 16 2.9 0 6-.4 9.1.1 8 1.3 13.4 6 16.9 13.2 1.1 2.2 2.1 4.5 3.2 6.7-.8.8-2.1.9-3.1 2.5 1.5 5-1.7 7.9-6 10.3z"/><path class="st5" d="M592.8 289.4c-1.6-5.7-.4-11.5-.7-17.3-.2-3.1 0-6.3 0-8.9-1.4-1.4-2.6-1.4-3.7-1.7-18.2-4.1-25.8-24.5-14.5-39.5 3.4-4.5 3.9-8.9 1.5-13.9-3.5-7.2-3.2-14.4 1.9-20.6 3.7-4.5 4-9 2.6-14.4-2.6-9.8 4.8-18.5 14.9-17.9 8.2.5 14.9 9.1 12.5 16.9-1.8 6-1.3 10.7 2.7 15.7 4.6 5.9 5.3 12.9 1.8 19.8-2.6 5.2-2.1 9.6 1.4 14.4 11.5 15.9 3.2 35.9-16.2 39.6-1 .2-1.9.5-2.9.8-1-.8-1.2-2-1.2-3.1 0-7.8-.2-15.6-.4-23.3 0-1.7.4-3.3 1.3-4.7 1.6-2 3.9-3.4 5.4-5.3-1.8 1-3 4.5-6.1 1.9-1-5.8-.7-11.6-.4-17.4.2-3.9 3.6-5.8 5.9-8.4-1.5.7-2.5 2.7-4.9 2.2-2.8-4.1-.2-9.2-1.7-13.5.1 7.4.5 14.8-.2 22.1-1.6 3.7-3.3.3-5 0 1.6 2.5 4.6 3.9 5.6 6.9.1.5 0 1-.1 1.5-.5 5.5.3 11.1-.5 16.6-1.5 3.3-3 .7-4.4.1 1 1 2.1 2.1 3.3 3.1.4.3.7.7 1 1.1.3.4.6.9.8 1.4.1.5.2 1.1.2 1.6.3 5.7-.5 11.3.5 17-.2 9.2.9 18.2-.4 27.2zm-26.6-201c10.3 3.3 19.7 7.5 19.4 20-.3 11.8-8.7 16.3-18.9 18.2-1.5 2.8.1 5.8-1.2 8.5-2.6.7-5.2.4-7.9.2-1.7-2.6-.1-5.6-1.3-8.8-7-1.7-14.4-3.8-20.6-8.9 1.4-3.8 4-6.8 6.5-10.2 4.8 2.3 8.8 6.1 14.5 6.7.6-4.8.4-9.4.2-14.2-10.7-3.4-20.6-7.6-19.1-21.5 1.1-10.9 9.1-14.6 18.6-16.5.3-1.7.6-3.3.9-5h7.9c1.5 1.5.4 3.4 1.4 5.2 5.4 1.7 11.3 2.9 16.2 6.9-1.5 3.7-3.5 7-5.8 10.5-3.5-1.8-6.6-4-10.8-4.9v13.8z"/><path class="st6" d="M149.8 16.5h7.1c12.1.5 20.2 6.3 26 19.4 13.3-5.9 24.2-2.6 32.5 10.2H100.5c5.4-12.6 15.9-14 27.1-13.6 4.9-9.2 12-14.9 22.2-16z"/><path d="M420.9 324.5c-1-1.4-2.5-.8-3.8-.9-.5-.2-.6-.5-.5-.9.5-.9 1.7-1.2 1.8-2.4.1-.9-.1-1.8-.4-2.7-.7-4.6-1.1-9.2.3-13.7 1.3-2.4 3.6-2.8 6-2.8 18.9 0 37.7-.3 56.6.1 2.9 0 4.7 2.5 7.2 3.3 1.7-1.6.3-3.2.4-4.7-.4-7.8-.2-15.5-.2-23.3 0-1.8.1-3.7 1.3-5.2 5.1-.9 10.2-1.6 15.2.4 0 13.7-.1 27.4-.1 41.1-3.3 1.6-5.8-1.3-8.7-1.6-.8-.2-1.6-.3-2.2.4-.4 3 1.7 5.3 2.2 8.1.4 1.9 1.5 3.9-.9 5.3-23.8.2-47.6 0-71.4.1-.9-.1-2 0-2.8-.6z" fill="#fafafc"/><path class="st8" d="M137.9 255.4h32.7c2.7 5 2.7 10.3 4.3 15.1.5.4.7.9.8 1.5.1.9.1 1.9.5 2.8.1.3.2.7.3 1 .1.5.2 1.1.3 1.6s.2 1 .4 1.6c.1.3.3.7.3 1 .1.5.2 1.1.3 1.7.2.8.4 1.5.7 2.2.2.6.3 1.2.4 1.8.1 1.1.4 2.2.9 3.2.2.4.5.9.7 1.3 5.6 2 11.4.4 17 .9 2.7.2 5.6-.6 8.1 1.1.4.5.4 1 0 1.6l-27.9-.3c-2.2-5.2-2.7-10.8-4.1-16.1-1.8-6-2.8-12.2-4.3-18.3 1.8 6.2 2.2 12.6 4.6 18.7.3 5.3 2.9 10.3 2.8 15.7-14.6.1-29.1.2-43.7.2-.9 0-2.1.2-2.3-1.2.2-.6 1.2-1.3-.2-1.7-.9-.6-1-1.4-.7-2.3.1-.6 1.1-1.3-.3-1.7-3.2-9.9-4.8-20.3-7.7-31.4h16.1z"/><path class="st9" d="M172.9 222.5c2.8 2 5.6 3.9 9 6.3-3.6.9-6.4.1-9.3.2-1.5 1.4-.1 3.5-1.6 5.8h-44v-42c3.9-1.3 7.9 0 11.8-.8h33c0 8.6-.1 16.8 0 25 .1 1.8-.8 3.9 1.1 5.5z"/><path class="st3" d="M495.8 309.7l9 3c.4.2.8.4 1.1.6.7-.5 1.4-.6 2.2-.5 8.4 3.2 16.7 6.6 25 9.9 1.8.7 3.8 1.4 4.7 3.4 1.2.5 2.7 1.6 2 2.8-1.4 2.3-7 4.2-10.8 7.8 5 4.4 10.1 8.9 15.2 13.3-4.2 4.8-7.2 7.2-10.3 10.9-4.4-5.3-8.7-10.4-13.1-15.7-1.2 1.3-6 9.7-8.7 11.5-2.7 1.8-3.4-2.9-4.2-4.8-3.7-8.8-7.3-17.7-10.9-26.6-.8-.5-.5-1.5-.9-2.2-1.1-3.1-2.3-6.2-3.4-9.3-.5-1.5-1.8-3 .3-4.3.9.7 1.8.6 2.8.2z"/><path class="st2" d="M537.8 326.3l-30-12.6c-2-6.3-.7-12.9-.8-19.3-.1-3.7-1.2-7.6 1-11.2 1.2.8 2.7 1.4 3.6 2.6 7.4 9.4 17.5 14.5 28.5 18.1 4 1.4 4.3 5 5 8.3.2.8.7 1.4 1.5 1.8 2.8 1.2 5.9 2 7 5.3 1.2 1.5 2.9 2.7 3.4 5.1-2.9 1.6-6 .5-9 .9-3.4.3-7-1.2-10.2 1z"/><path class="st5" d="M505.7 96.2c-13 0-25.9.1-38.9.1-3.3-4.2-3.3-4.2 2.3-11.1-1.5-3.3-7.4-5.9-2.3-10.6 9.6 0 19.3-.1 28.9-.1 6.6.1 10 3.7 10.1 10.2 0 3.9 0 7.7-.1 11.5z"/><path d="M237.7 309.2c1.4.4 3-.2 4.5 1.4 1.6 2.6-.3 5.3-.6 8.1-2.8 1.7-5.8.8-8.7.9-1.1 1-2.7.9-3.9 1.8-1.2 1.1-.8 2.7-1.5 4-.2.4-.6.7-1 1v38.2c5.7 1.6 11.3 2.7 15.7 8.2h-36.9c4.3-5.2 9.6-6.7 15.9-8 0-8.5.1-17.1 0-25.6-.1-4.6.5-9.3-.4-13.9-1.4-.9-.7-2.9-2.2-3.9-4.1-.8-8.6.6-12.9-1.5-1.3-2.8-4.1-5.6.2-8.4 10.8-.6 21.4-.4 31.8-2.3z" fill="#1a4ded"/><path class="st11" d="M237.7 309.2c-6.1 3.4-12.7 3.3-19.4 3.2-4.5 0-9 .1-13.4.2-1.2.9-2.6 1.3-4.1 1.5-.5 0-1-.2-1.4-.5l-.9-7.2v-.8c.1-1.8-.1-3.7 1.4-5.2 1.6-.7 3.4-.5 5.1-.2-1.9-.5-3.9-.1-5.9-.1-.8-.2-1.4-.7-1.4-1.6 1.5-1.7 3.6-.8 5.5-1.1.6 0 1.3-.1 1.8-.5.4-.5.6-1 .9-1.5.1-.3.1-.6.2-.9 3.5-2.3 7.5-2.2 11.4-2.4 4.6-.2 9.1-1 13.6-1.8 3.6-.3 7.2-1.2 10.7.7 1.1 6.7 1.2 13-4.1 18.2z"/><path d="M34.7 148.5v52c4.5 1.8 7.7-.1 11-.8.7.4 1 1.1 1 1.8 0 .8-.3 1.4-.7 2.1-.5.3-.9.3-1.3-.1l-10 2.5v32.4c-1.8-2.8-.8-5.8-.8-8.7-.2-8.1-.1-16.2-.1-23.9-1.1-2.8-3.4-3.7-5-5.4.4-.4.5-.8.6-1.3-.2.4-.2 1-.6 1.3-2.2 4.2-.3 8.8-1.1 13.1-.7.8-.2 2-.8 2.9-2.9 2.2-6.2 2.6-9.7 1.8-1.8-.9-3.7-1.4-5.3-2.6-1.6-3.7 2.4-6.2 2-9.6-.2 3.4-3.5 6.1-1.8 9.9.6 3 2.3 6.2-1.6 8.4-1.5.3-2.9.2-4.1-.8-1.4-2.3-1.2-4.6.3-6.8-.3-9 2.1-17.6 4.3-25.8 2.1-2.1 4.3-2.5 6.7-2.5 1.6.2 2.3 2 3.9 2.1.9-.3 1.1-1.1 1.5-1.8.3-.4.6-.6 1-.7.2.1.4.1.6.2 4.2 1.8 5.6 6.1 8.9 10.1v-44.1c.3-1.9-.4-4 1.1-5.7z" fill="#ecd9d1"/><path class="st11" d="M191.8 305.4c.8 8.7 1.3 17.5 2.5 26.2 1.4 10.3-1.7 20-3.5 29.9-.1.4-.7.7-1 1-.4.3-.8.6-1.3.8a13 13 0 01-6.2 0c-.5-.2-.9-.5-1.3-.8-3.1-1.2-1.8-3.9-1.8-6 .2-17 3.9-33.5 6.4-50.2.1-.7.1-1.3.1-2-.3-.7-.5-1.4-.2-2.2 1.2-1.8 2.7-3.1 4.9-3 2.1 1.8 2.2 4 1.4 6.3z"/><path class="st3" d="M466.8 74.6c-.4 1.4-.8 2.8-1 3.7.2 3.5 3.2 3.6 4.7 5 .3 1.4.4 2.7-.3 4.2-1.5 1.3-4.5 1.2-4.7 4.6.4 1.2.9 2.7 1.4 4.3-1 .9-2 1.7-2.9 2.5-1.9.3-3.1-1.7-4.9-1.1-2.7.3-2.6 3.1-4 4.7h-3.9c-1.6-1.4-1.2-4.5-3.9-4.7-1.9-.7-3.1 1.2-5.2.9-.6-.6-1.5-1.4-2.3-2.1-.2-.4-.5-.7-.7-1.1-.2-.2-.4-.3-.6-.5.2-.1.4-.3.7-.4 2.8-2.2 1.9-4.2-.5-5.7-1.4-.9-2.8-1.6-2.9-3.4.3-1.1.1-2.4 1.6-2.8 4.6-1.3 4.2-4.3 2.7-7.6.8-2.9 2.6-3.2 4.9-2.4 4.1 1.8 5.1-1.3 6.5-4.1h3.6c1.5 1.2 1.2 4.2 3.8 4.6 1.7.3 3.2-.3 4.7-1.4 1 .9 2.1 1.9 3.2 2.8zM167 325.4h-20.9c-1.7-4.5-.9-8.8-1.5-13-.6-2.7.1-5.5-1.7-8.1-.9-1.3-.5-3.2.5-4.7.5-.4 1-.7 1.6-.7 9.6.7 19.2-.5 28.7.7 2.1 1.1 1.3 2.7.7 4.2-.9 2.3-1.8 4.6-2.4 7-1 3.3-1.7 6.7-2.6 10.1-.3 1.7-.4 3.7-2.4 4.5z"/><path class="st13" d="M16.9 217.5c3.5 0 6.9-.1 10-1.9.4-.5.6-.5.8.1 6.4 15.6 4.4 31.7 2.9 47.8-1.2 1.2-2.4 1-3.6 0-1.2-7.5-2.8-14.9-1.3-22.6 1-5.2-2.6-8.8-4.7-13.3-6 12.5-4.3 25.2-4.2 37.8-1.3.7-2.5.5-3.7 0-2.2-10.3-3.3-20.7-1.4-31.3-.6-2.1-.2-4.3-.4-6.4.6-2 2.9-2 4.3-3.3 1.2-2-1-4.9 1.3-6.9z"/><path d="M90 91.5c4.9-4.2 10-8.1 11.9-14.8.9-3.2 3.6-4.4 6.2-3.1 6.3 3 1.1 9.6 1.3 14.5 3.9 1.5 8-.6 11.7 1.3-11.2 5.7-17.7 16.4-27.9 24.8h18.5c1.9 0 4-.4 5.5 1.4-5.5 1.9-11.2.5-16.7.9-3.5.2-7 0-10.5-.1-1.3-1.1-1.5-2.6-1.5-4-.2-5.6-.2-11.2 0-16.9-.1-1.4.2-2.9 1.5-4z" fill="#fea37a"/><path d="M318.8 35h-52.5c.9-5.3 3.6-7 11.4-7.7 7.4-13.3 20.6-10.6 26.2 2.1 5.9-1.9 11.1-1.3 14.9 5.6z" fill="#b5d8fe"/><path d="M117.1 115.7H92.4c-1.3-1.2 16.6-18 24.7-24.7-.3-.4-.7-.8-1-1.2 1.6-.1 3.3-.3 4.9-.4 2 .2 2.3 1.4 2.4 3.4.4 6.8-2.9 13.1-3.8 20.1-.1 1.2-1 2.3-2.5 2.8z" fill="#fd9763"/><path class="st11" d="M167 325.4c1.3-5 2.7-10 4-15 2.6.7 2.2 3 2.6 4.8 1.3 6.7 1.1 13.5 1.3 20.2-.8 8.5-.4 17.1-3.9 25.2-3.4 1.1-6.7 2-10-.2 1.8-9.9 3.5-19.8 5.3-29.7.3-1.7.5-3.5.7-5.3z"/><path d="M478.9 338.5c1.4 1.8 0 2-1.2 2-14.3-.4-28.5.7-42.8-.6-8.4-.8-16.9-1.1-25.3.4-4.7.8-9.2-.5-13.8-.5-8.3-.1-16.5-.1-24.9.6-12.7 1-25.6.3-38.4.3-1 0-2-.2-2.2-1.6 1-2.2 3.1-1.3 4.7-1.3 10.3-.1 20.6-.1 31 0 2.2 0 4.3-.1 6.4-.9.2.6.1 1.2-.2 1.7-.5.4-1 .6-1.6.6h-36.1c-1.8.3-.9 1.3-1.1.7-.1-.2.3-.6.6-.6h32.5c1.8 0 3.7.3 5.4-.3.4-.4.9-.8 1.5-1 7.9-1.4 16 .1 23.9-.8 2.4-1.7 1.3-4.2 1.3-6.3 0-1.9-.9-3.9.9-5.6 3.4-1.3 6.8-1.1 10.3-.1 2.6 3.1.1 6.7.9 10 .1.5.1.9.2 1.4.4.7 1 .9 1.7.9 7.7.1 15.4 0 23.2 0 .6 0 1.1.1 1.6.4h36.8c1.3-.4 3.2-1 4.7.6-8.4 1.1-16.9.3-25.3.4-4.7.1-9.5.2-14.2 0 13.2-.3 26.3.8 39.5-.4z" fill="#fdfdfe"/><path class="st18" d="M138.8 96.5h93c1.3 1.9 1 4.2 1 6.3v136.8c0 1.8.3 3.7-.6 5.4-2.2 1.3-1.9-.8-2.4-1.8.3-1.8.5-3.6.5-5.4v-136c0-1.5.4-3-.5-4.4h-89c-1.5 2.4-.9 4.5-1 6.4 0 27 0 54-.1 81 0 1.9.8 4-1 5.6-.1-26.2-.2-52.4-.2-78.6 0-5 .2-10.2.3-15.3z"/><path d="M123.5 309.4c-.5 5.1-1 10.1-1.6 15.6h-24c.2-6.3 6-7.9 9.1-11.5.7-.9 1.7-1.3 2.7-1.7.8-.4 1.6-.8 2.4-1.1 2.2-.5 4.4-1.1 6.5-1.9.5-.1.9-.2 1.4-.3 1.4-.1 2.6-.1 3.5.9z" fill="#4fbea5"/><path d="M592.8 289.4v-27.8c-.9-4.2-.2-8.5-.5-12.8-.1-1.8.5-3.6-.5-5.3-.3-.4-.6-.7-1-1 1.9-7.6.6-15.3 1.1-23-3-2.4-5.7-5-8.5-8.7 4.3-.4 5.1 2.9 7.4 3.9 1.3-7.6.2-15.3.6-23 .1-1.7-.7-3.6.6-5.2 2.6.3 1.9 2.3 1.9 3.8.1 4.4 0 8.9 0 13.5 3.3-.9 4.2-4.4 7.9-5.1-1 4.9-5.8 6.5-8 11.1v18.5c.2 1.1 2.7.4 2 2.3-1.2 1.6-2 3.2-2 5.4.2 8.9.1 17.7.2 26.6-.2 9-.3 17.9-.5 26.9h-.6l-.1-.1z" fill="#2e64be"/><path d="M137.7 308.5c.4 4.6.8 9.3 1.1 13.9-.9.7 0 2-1 2.6-2.9.5-5.8.4-9.4 0 .9-6.7 1.7-13.1 2.6-19.6.7-2.5-1.5-5.8 2-7.6 1.5-.4 2.9-.5 4.2.5 2.5 3.3-.5 6.9.5 10.2z" fill="#50bfa6"/><path class="st22" d="M398.9 325.5c.3 4.3 2.5 8.7-.2 12.9-6.1-2-12.5-.4-18.7-.9-2.4-.2-5 .8-7.2-1 5.1-3.3 11.3-3.9 16.8-6.7.1-1.4.1-2.8.2-4.3 2-.2 4.2.6 6.1-.7 1-.5 1.7-1.4 2.9-1.5.3.3.6.6.6 1.1 0 .4-.2.8-.5 1.1z"/><path class="st23" d="M409.1 336.8c-.3-3.8-.5-7.6.8-11.3-.3-.3-.5-.7-.5-1.1.1-.4.3-.8.6-1.1 1.6-.2 1.5 1.1 1.8 2.1 1.7.1 3.3.1 4.8.2 1.9.8 1 2.9 2.8 4.5 4.7 2.7 11.2 3.4 16.8 6.3-.2.2-.5.4-.7.6-9 .7-17.7 1-26.4-.2z"/><path d="M174.9 335.5c-1.8-4.7-1.3-9.7-2-14.5-.5-3.6-.8-7.1-1.9-10.6.4-3.7 2-6.9 3.9-10 .1-.7.4-1.3.9-1.8s1.2-.8 1.9-.8c.8.1 1.4.4 1.8 1.1.5 1.3.3 2.5-.5 3.6-1.4 11.1-2.7 22.1-4.1 33z" fill="#cba529"/><path d="M200.8 313c1.3-1 2.7-.5 4.2-.4-.3 2.2.5 4.2 1.4 6.4 4.5 2.1 9.6.2 14.6 1.3v4.9h-20.3c-1.2-1.8-1-3.3-.8-4.7 1.5-2.3-.7-5.1.9-7.5z" fill="#3064bd"/><path class="st26" d="M240.9 324.5h144.3c1.6 0 3.4-.6 4.7 1-49.7 0-99.3 0-149 .1-.3-.2-.3-.4-.3-.7.1-.3.2-.4.3-.4z"/><path d="M169.7 363.5c0 3.5-1.7 6.6-2.4 10.3-5.8 1.1-11.2.8-17.5.1 2.9-3.4 6.5-3.8 9.3-5.8 1.2-1.6 1.5-3.5 1.9-5.4.4-.4.9-.5 1.4-.5 2.4.3 5.2-.6 7.3 1.3z" fill="#1d4fed"/><path d="M188.8 362.6c.3-.2.6-.2.9-.1-.3 3.4-.7 6.9-1 10.5-4.2 2.4-8.6 1.1-13 1.2-2-4.7 3-4.3 4.3-6.4 1.1-1.6.8-3.5 1-5.3h1c2.2.7 4.5.7 6.8.1z" fill="#1e50ed"/><path d="M18 187.4c-1-.8-2.1-1.6-2.6-2-.7-9.8.4-12.6 4.9-13 4.2-.4 6.6 1.5 6.5 6-.3.4-.7.7-1.1.9-1.3.6-2.9.2-3.9 1.6-1.7 2.5 1.7 5.9-1.5 8-1.3.2-1.9-.5-2.3-1.5z" fill="#1c2532"/><path class="st30" d="M112 297.1c.2-.3.4-.5.7-.6h87.2c2 0 4 .3 5.8-1v2.1c-.6.3-1.2.5-1.9.4-5.3-.2-10.5 1.2-15.8.9-14.7-.9-29.3.8-44-.3-6.3 0-12.6-.5-18.8.3-4-.2-8 .5-12-.5-.4-.3-.9-.8-1.2-1.3z"/><path class="st26" d="M496 323.3c.3.7.6 1.5.9 2.2h-75.6c-.4 0-.9-.2-1.3-.3.3-.2.6-.5.9-.7H491c1.7 0 3.7.6 5-1.2z"/><path class="st31" d="M508 283.2c-.1 10.2-.1 20.3-.2 30.5-.6-.1-1.3-.2-1.9-.3.1-9 .1-18.1.3-27.1.1-1.1-1.5-3.6 1.8-3.1z"/><path d="M19.9 188.5c1.7-3.2-1.5-6.5.4-9.8 1.7-.5 3.6-.2 5.5 0 1.1 1.1.1 2.5.7 3.7-.2 1.1-.5 2.3-.7 3.4-.5.5-.8 1.2-1.6 1.3-.2.2-.5-.5-.7.1.4 0 .6.2.8.6.1.4-.1.6-.4.8-.1 1-.1 2-.2 2.9-.6.7-1.2.2-1.8 0-1.3-.6-2.5-1.2-2-3z" fill="#eba784"/><path d="M137.7 308.5c-1.6-3.1-.4-6.5-1-9.8 1.7-1.5 3.8-.4 5.7-.8.5 0 1 0 1.5.2.3.3.4.5.4.9 0 .3-.1.5-.1.5-.7 4.3 1.4 8.6.6 12.9-1.5-1.5-.3-3.6-1.3-5.4-1.2-1.3-2.8-1.8-5.1-1.2-.3.9-.5 1.8-.7 2.7z" fill="#cccbcc"/><path d="M191.8 305.4c-1.3-1.8 0-4.4-1.8-6.1-.4-.6-.2-1.1.5-1.2 2.5.2 5.2-.8 7.6.7l.7.7c1 2.3.6 4.6.2 6.9h-.5c-2.2-.3-4.5-.6-6.7-1z" fill="#cfccc5"/><path d="M230.9 291.6c-8.2 2.2-16.6 2-24.9 3-.2-.2-.3-.5-.2-.8 0-.4-.1-.8-.1-1.3-.2-.6-.1-1.1.2-1.6 1.1-1.2 2.5-1.5 4-1.4 5 .8 10 .5 14.9.6 2.2 0 4.4-.4 6.1 1.5z" fill="#cba62a"/><path class="st36" d="M372.9 336.5c7.4.1 14.8.1 22.1.3 1.3 0 3.5-1.2 3.7 1.7-8.6 0-17.2 0-25.8.1-.6-.2-.8-.7-.9-1.3.1-.2.2-.4.1-.6.3 0 .6 0 .8-.2z"/><path d="M6.8 216.7c.2 2.2.3 4.5.5 6.7.8 1.6 1 3.2-.2 4.7-1.1.1-2.3.2-3.8.3-.6-3.5-1.2-6.8-1.7-10.1 1.6-1.4 3.6-1 5.2-1.6z" fill="#3f70a3"/><path d="M27 263.5h3.6c1.1 1.4 2.2 2.8 3.2 4.2.4.2.8.5 1.2.7 1.1.4 1 1.2.7 2-1.6.5-3.3.5-4.9.1-.7-.6-1.5-1.2-2.1-1.7-1.1.3-.2 1.7-1.5 1.7-.6-2.3-1.2-4.6-.2-7z" fill="#242832"/><path d="M124.9 302.5c-.1-1-.1-2-.2-2.9 0-.3-.1-.5-.1-.8.3-.5.8-.7 1.3-.7 2.3.3 4.8-.7 7.1.6-1.9 1.9-.3 4.9-1.9 6.9-1-3.4-4.5-1.4-6.2-3.1z" fill="#cdccce"/><path d="M179 302.6c-.1-1.3-.2-2.7-.2-4 2.4-1.3 5.1-.4 7.6-.6 2.4 1.5 0 2.9-.1 4.4-.2.7-.4 1.3-.6 2-2.3-.6-4.5-1.2-6.7-1.8z" fill="#ccccc8"/><path d="M13.1 265.4c1.3-1 2.5-.8 3.7 0 1.4 1.5 3.2 2.8 3.3 5.2-2.3 1.9-4.5.2-6.9-.2-.6-1.4-.7-3.2-.1-5z" fill="#2b3542"/><path d="M202.9 373.4c-1.8 1.4-3.1 1-4.2.8-1.2-1.7-.7-3.2-.8-4.8 2.6.6 0 3.4 3 4.1 1.2-3.3-1.3-7.2 1.2-11.2 1.4 4.2.4 7.7.8 11.1z" fill="#f9fbfd"/><path d="M7.1 228.2c.1-1.6.1-3.2.2-4.7 1.2 0 2.5 0 3.7.1 1.8.9 1.8 2.3 1.2 3.8-.2 2.3-.3 4.6-.5 6.8-.4-1.6-.7-3.2-1.1-5.1-.8-1.1-2.4-.3-3.5-.9z" fill="#dda58c"/><path d="M240.9 324.5v1c-4.6 2-9.5.5-14.2.8 0-.4.1-.8.1-1.2 2.9-.5 3.5-3.8 6-4.8.3 1.2-.2 2.6 1.3 4.2h6.8z" fill="#d0e5fc"/><path d="M176.9 293.5c-1-5.3-3.4-10.4-3-16 2.3 5.1 2.7 10.7 4 16h-1z" fill="#33343c"/><path d="M411.7 325.4c-.6-.6-1.2-1.2-1.8-1.9-.1-.3-.2-.6-.2-.9.2-.2.4-.5.6-.7 2.4-1 4.7-1.4 6.7.7.1.3.1.5.1.8-1.6 1.3-3.9.5-5.4 2z" fill="#eba680"/><path d="M161 360.5c3.3.4 6.7-.7 10 .2 0 .7-.1 1.3-.8 1.7-3.1-.2-6.4.8-9.3-1-.1-.3 0-.6.1-.9z" fill="#fdce27"/><path class="st48" d="M200.8 313c-.2 2.5 1.1 5.2-1 7.5-.5-2.3-.7-4.5-.4-6.9.5-.1.9-.3 1.4-.6z"/><path d="M19.9 188.5c.7.9 1.4 1.9 2 2.8-3.2 1.7-2.6-2.1-4.1-2.9 0-.4.1-.7.1-1.1.7.5 1.4.9 2 1.2z" fill="#f7f0d7"/><path d="M160.9 361.4c3.1.5 6.4-.9 9.3 1l-.2.3c-2.7.4-5.4.5-8.1-.1-.3-.1-.6-.2-.9-.1 0-.3 0-.7-.1-1.1z" fill="#d2b153"/><path class="st51" d="M161.9 362.7c2.7 0 5.4 0 8.1.1 0 .3-.1.6-.3.8-2.6-.5-5.3.7-7.8-.9z"/><path class="st52" d="M30.8 270.5c1.6-.5 3.3-.5 4.9-.1-1.6 1.7-3.2 1.3-4.9.1z"/><path d="M26.6 182.3c-1-1.1-.6-2.4-.7-3.7l.9-.3c-.1 1.4-.2 2.7-.2 4z" fill="#c49d83"/><path d="M26 186.4c.3.5.6.9 1.2 1.8-1 0-1.6.1-2.2.1v.1c-.4-.2-.5-.6-.4-1 .3-.4.7-.8 1.4-1z" fill="#6a7a87"/><path class="st55" d="M26 186.4c-.4.4-.8.7-1.1 1.1-.3.3-.6.3-.9-.1l.1-.3.1-.4c.6-.3 1.2-.7 1.8-1-.2.3-.1.5 0 .7zm104.7 104.4c.2-.2.5-.4.7-.5.7 1 .3 1.7-.5 2.3-.1-.7-.1-1.3-.2-1.8z"/><path d="M137.8 325.1c.1-1 0-2 1-2.6.1 1 .9 2.3-1 2.6z" fill="#4f9fb8"/><path class="st55" d="M129.7 286.8c.2-.2.5-.4.7-.6.8.9.3 1.6-.4 2.3-.1-.6-.2-1.2-.3-1.7z"/><path d="M27.7 215.7c-.3 0-.5 0-.8-.1 0-.8 0-1.5.8-1.9v2z" fill="#bcbbbe"/><path class="st58" d="M593 289.4h.6c-.2.9-.4.6-.6 0z"/><path class="st52" d="M35 268.4c-.4-.2-.8-.5-1.2-.7.5.3.9.5 1.2.7z"/><path class="st23" d="M436.9 337.5h-1c-.4-.2-.5-.4-.4-.8l.4-.3c.4.3.7.7 1 1.1z"/><path class="st3" d="M408.1 166.3c11-.5 20.3 5.9 31.3 7.4 3.6-5.7 5.7-12.1 8.7-18.1 1-2 .5-5.9 4.7-5.2 2.8-.9 4.7.3 6.2 2.5 1.2 1.6.7 3 0 4.6-3 6.8-5.9 13.7-8.9 20.5s-7 8.7-14.4 7l-10.2-2.4c-.6-.1-1.3-.2-2.2-.4-1 2.7-.3 5.5-.5 8.3-1.1 1.9.1 4.1-.8 6.1 0 3.7-.1 7.4-.1 11.1.3.4.6.8.8 1.2.2.5.2.9.3 1.4 0 1.2-.1 2.3-.8 3.3-.3.2-.7.4-1.1.3-1.5 1-2.9 2-4.9 2-7.8 0-15.6.1-23.3 0-2.1 0-4.5-.2-4.4-3.3-.1-.7-.9.1-.3-.1.1 0 .3.1.2.4-.1.8.1 1.6.4 2.4.5 1.6.4 3.2-.1 4.8-.2.5-.6.9-1.1 1.2-1.3-4.5.4-9.2-1-13.6-6.7-1.6-14.9 5.2-19.7-4.2.3-.2.5-.6.2-.9-.5-.4.2.2-.4.2-1.1-1.8-1.2-3.6.1-5.3 6.5-10 14.4-18.9 22-28 1.4-1.7 3.6-3 6.1-2.9 4 1.5 7.8-1 11.7-.4.5 0 1 0 1.5.1z"/><path class="st59" d="M387.7 221.2c.1-.3.3-.6.4-1 1.2-1.5-1.1-4.3 1.8-5.3 9.9.1 19.9-.2 29.8.1 3.1 3.4.6 7.8 2.3 11.5.5 7.2 1.2 14.5-.4 21.7-1.6 2.3-1.2 4.8-.4 7.3.7 7.8.3 15.5.3 23.3 0 1.8 0 3.7-1.9 4.8-2.3-4.2-.4-8.7-1.2-13 .8 4.4-1.1 9 1.1 13.4 1.8 6.8 1.7 13.7-.4 20.4.2 4.7-1.7 9.5.8 14.1-3.2 1.4-6.1.4-8.9-.8-.9-2.1-.3-4-.6-6 .3 2.4-.5 5 .8 7.4 2.6 2 6.4-.1 8.9 2.4-.4 1.9-2.1.6-3.1 1.2-2.3 0-4.7 0-7-.1-4.5.2-2.9-3.1-3.1-5.4 1.4-10.6.7-21.3.1-31.8-1-16.1-.7-32.2-.3-48.3-.1-1.7 1.9-2.7 1.3-4.5-1.7-1.2-3.6-.4-4.4-.6-1.6.2-.5.9-.9.4-.1-.2-.1-.4.3-.4 1.6.1 3.2-.3 4.8.3.4.4.5.8.3 1.3-1.2 1.1-2.6 1-4 1.1-.4.1-.9.1-1.3.2s-.8.3-1.1.6c-.7 3.5-.6 7 .4 10.5.1.5.2 1.1.2 1.7 0 7.2.3 14.5.2 21.7-.3 4 .2 8-.4 12-1.2 11.9-1 23.9 0 35.8.1 2.4.9 5.2-2.8 5.8-2.4.4-4.9.7-7.2-.3-1-.6-2.6.6-3.1-1.2 2.5-2.6 6.2-.4 9-2.5 1.4-2.9.4-6.1 1-10.3-.6 3.6.2 6.3-.7 8.9-2.9 1.3-5.8 2.2-9 .8 1.7-1.6 1.2-3.6 1.2-5.6-1.3-30.5-2-61-2.8-91.6z"/><path class="st5" d="M278 205.7c0 9.5-6.6 16-16 15.9-9.1 0-16.1-7.1-16-16.2 0-8.6 7.4-15.8 16-15.9 9 .1 16 7.1 16 16.2z"/><path class="st9" d="M278 142.5c0 9.4-6.7 16.2-15.9 16.1-9 0-16.3-7.3-16.2-16.1.1-9 7.4-16 16.4-16 8.8.2 15.7 7.2 15.7 16z"/><path class="st2" d="M265.9 253.5c8.3 1.8 13.2 8.9 12.1 17.8-1 7.9-8 13.7-16.4 13.5-8.1-.2-14.8-6.5-15.6-14.6-.7-8.1 4.7-15.3 12.9-16.8 2.3.4 4.6.1 7 .1z"/><path d="M364.8 149.4c0-5.5-2.8-10.2-4.1-15.3-1.4-5.6 1.1-10.8 6.1-13.3 4.9-2.4 10.9-1 14.2 3.4 3.2 4.3 2.9 9 .8 13.7-1.6 3.7-2.7 7.5-3 11.5-4.6 2.3-9.3 2.4-14 0z" fill="#f4dc45"/><path class="st59" d="M414.9 154.2c-1.6 2.7-4.2 4.4-6.8 6-2.8 2.4-5.6 2.3-8.3-.1-2.9-1.3-5-3.5-6.9-6-2.3-1.7-2.4-3.8-1.2-6.2.8-5.7 4.1-9.3 9.3-11.4.2-.5.5-.6.9-.1 9.2.4 12.5 3.1 14.4 11.8 1.1 2.4.7 4.4-1.4 6z"/><path d="M230.9 291.6c-7.3-.8-14.7.8-21.9-1.1-.4-.4-.6-.9-.6-1.5.1-.6.4-1 .8-1.4 4-2.3 8.6-2.2 12.9-3.2 5-1.1 7.8-3.8 8.6-8.9 1.1-7.1 1.1-14.2.4-21.3-.2-2.1-.8-4.3.4-6.3.2-.2.4-.4.6-.5.3.1.5.2.8.3 4.6 12.5 7.4 25.4 9.7 38.5.3 1.8.6 3.6-.9 5.1-3.7 0-7.2.1-10.8.3z" fill="#153dbc"/><path d="M232.8 247.5c-.3-.1-.6-.3-.9-.4-.6-.5-.7-1-.2-1.6 0-49.7.1-99.3.1-149 .4 0 .7.1 1.1.1v.9c.6 1.1.4 2.3.4 3.4v142.4c0 1 .1 2-.3 3 0 .5-.1.9-.2 1.2z" fill="#b8c9e7"/><path class="st63" d="M233 246.4c-.1-16-.2-32-.2-47.9 0-33.6.1-67.3.1-100.9 1.5 1.5.9 3.5.9 5.2v138.3c0 1.8.7 3.7-.8 5.3z"/><path d="M364.8 149.4H379c1.4 2.8.5 5.8.6 8.8-1.6 1-3.1 2-4.7 3-2-1.1-4-1.1-6 0-1.4-.9-2.9-1.8-4.7-3-.1-2.7-.9-5.8.6-8.8z" fill="#2756a9"/><path d="M388.9 318.5c2.7-.5 5.5-1 8.4-1.5 1.4-3.3 0-7 1.3-11.9.6 6.2-.2 11 1.2 15.7-3.8 1.3-7.5.3-11.1.7-.6-1-.9-2.1.2-3z" fill="#262227"/><path d="M399.8 160.2c2.8.5 5.6.5 8.3.1.9 2 .7 4-.1 6l-.2.2c-2.8.5-5.6 1.3-8.2-.3.1-2.1.1-4 .2-6z" fill="#ee9465"/><path d="M232.8 320.4c-1.6 1.1-.2 3.1-1.5 4.5-1.4.7-3 .3-4.6.3v-4.6c2.3-1.5 4.3-.9 6.2-.9 0 .2-.1.4-.1.7z" fill="#3468c0"/><path d="M391.7 147.9c.4 2.1.8 4.2 1.2 6.2-2.1.4-2.9-1-3.8-2.3.2-1.8.8-3.2 2.6-3.9z" fill="#f5a176"/><path d="M391.8 322.7c2.3 0 4.7 0 7-.1.2.2.3.4.2.6-.1.2-.2.3-.2.3-.8.8-1.3 2.3-2.9 1.3-1.4-.6-3.4-.1-4.1-2.1z" fill="#eba37c"/><path d="M399.6 166.1c2.7.1 5.5.2 8.2.3-4.3 1.7-8.6 1.6-13 .1 1.7-.1 3.2-.2 4.8-.4z" fill="#2459be"/><path d="M265.9 253.5c-2.4 1.5-4.7 1.6-7-.1 2.3-1 4.6-1 7 .1z" fill="#45bb9f"/><path d="M368.9 161.3c2-2.8 4-2.8 6 0-2 .5-4 .5-6 0z" fill="#2351a4"/><path class="st30" d="M388 132.3c2.3-1.2 3.8-.8 6.4-.2-2.7 1.7-4.2 1.4-6.4.2z"/><path d="M390.9 121.5c-1.4 2-2.7 2.5-4.9 3 1.4-2.1 2.7-2.6 4.9-3z" fill="#faeca5"/><path d="M353.6 143.1c.7-1.5 1.9-2.2 3.8-2.3-.8 1.9-2.4 2-3.8 2.3z" fill="#faeca3"/><path d="M353.9 121.4c1.4.3 2.9.6 3.6 2.2-1.6.6-2.5-.7-3.6-1.1-.3-.2-.3-.5-.3-.7.1-.3.2-.4.3-.4z" fill="#f9eb9e"/><path d="M372.3 110.2c.9 1.5.7 2.8.3 4.4-1.3-1.4-.9-2.8-.3-4.4z" fill="#faedac"/><path d="M361.8 113.6c1.2.7 1.4 2 2.2 3.8-1.8-.7-2.2-1.5-2.3-2.7-.2-.3-.3-.5-.2-.7.2-.3.3-.4.3-.4z" fill="#faeca6"/><path d="M387.8 140.7c1.2.3 2 1 2.7 2.2-1.6.6-2.2-.3-2.7-1.3-.2-.2-.3-.4-.2-.6.1-.2.2-.3.2-.3z" fill="#f9eba1"/><path d="M349.8 132.5c.4-.8 1.2-1 2.1-1.1.7.2 1.7-.3 2.3 1.1h-4.4z" fill="#f6e8b5"/><path class="st80" d="M366.7 202.8c.1-.5.3-.9.5-1.7.9 1.1.5 1.7-.2 2.3-.3-.1-.4-.3-.3-.6z"/><path class="st81" d="M361.8 113.6v1.1c-.6-.3-1-.7-.7-1.4.3 0 .5.1.7.3z"/><path class="st82" d="M381.9 114.5c.2-.6.6-1 1.3-.7-.1.2-.2.5-.3.7-.3.4-.7.4-1 0z"/><path class="st81" d="M380.8 116.4c.4-.3.7-.6 1.1-.9 0 .9-.1 1.7-1 2.1-.3-.2-.4-.5-.3-.7 0-.3.1-.5.2-.5z"/><path class="st82" d="M380.8 116.4c0 .4 0 .7.1 1.1-.2.1-.7.3-.7.3-.4-.7.1-1 .6-1.4zm-26.9 5v1.1c-.6-.2-1-.6-.7-1.3 0 0 .4.1.7.2z"/><path class="st83" d="M381.9 114.5h1l-1 1c-.1-.3-.1-.7 0-1z"/><path class="st81" d="M387.8 140.7v.9c-.2-.2-.4-.3-.7-.5.3-.2.5-.3.7-.4z"/><path class="st5" d="M185.6 180.4c-15.8.2-29.3-13.1-29.6-29.1-.3-15.9 13.5-29.8 29.5-29.8 15.8 0 29.3 13.5 29.4 29.3 0 15.8-13.5 29.4-29.3 29.6z"/><path class="st84" d="M231.7 245.5c.1.5.1 1.1.2 1.6.2 6.6 1.2 13.1 1 19.7-.1 3.8-.7 7.6-1.3 11.3-.7 4-3.6 6.5-7.8 7.3-5 1-10 2-14.9 3-.5.5-1.1.8-1.8 1-1.3.3-2.7.3-4 .7-.4.1-.9.2-1.3.3-1.9 0-3.8 1.1-5.8.3-.3-.3-.5-.7-.6-1.1.1-1.2 0-2.4-.3-3.6-.1-.7 0-1.3.4-1.9 1-1.3 2.5-1.7 3.9-2.3.8-.3 1.5-.7 2.3-1 .6-.2 1.2-.3 1.8-.4.8-.1 1.6-.3 2.4-.6.4-.2.8-.3 1.2-.4.6-.2 1.2-.5 1.9-.7.4-.2.9-.3 1.3-.5 1.2-.5 2.5-1 3.8-1.3 4-1 5.7-3.4 5.5-7.5-.2-3.9-.3-7.9.8-11.8.1-2.1-.1-4.2 0-6.3-.1 1.9 0 3.7-.1 5.6-2.1 7.8-6.4 14.5-11.4 20.8-1.3.1-1.7-.7-2.1-1.7-.6-2-1.2-4.1-2.1-6-.9-2.2-2.1-4.2-3.2-6.3-2.6-4.9-6.1-9.4-5.8-15.4-.2-5.7 3.9-7.8 8.1-9.9 2.8.5 5.4 3 8.5.8.6-.5.9-1.1 1-1.8 0-.4.2-.7.5-.9 5.9-.1 11.1 1.8 15.9 5.1.8.4.4 1.5 1 1.9.5.7.8 1.4 1 2z"/><path class="st8" d="M194.3 224.5c-3 .2-6 .2-7.9-2.2-.6-2 .9-3 1.1-4.5-1.3-2.9-3.9-5.5-2.2-9.1 2.4-2.4 5.2-1.8 7.7-1.5 2-.8 1.5-3.2 4.2-4.7 5.7-1.2 8.4 4.8 12.5 8.1.2.2.4.3.6.5.3.4.5.9.6 1.4.2 2.6.5 5.1-.4 7.6-.8 1.3-1.9 2.3-3.4 2.7-2.9.1-5.1-2.2-7.4-2.5-3 .3-2.8 4-5.4 4.2z"/><path d="M194.3 224.5c1.3-2.3 1.6-5.4 5.2-6 2.2 1.2 4.8 2.5 7.4 3.8 1.3 1.7 1.1 4.2 3 5.5.9 1 1.4 2.2 1.9 3.4.4 1.9.8 3.7 2 5.3 0 .3.1.7.1 1 .4.6.4 1.3 0 1.9-2.1 2.3-4.8 2.4-7.4 2-1.8-.5-1.8-2.1-2.7-3 .2-4.5-3.8-1.8-4.8-2.8-3.2-2-2.6-5.2-4.2-7.3-.3-.2-.4-.4-.4-.6 0-.3 0-.4.1-.4.1-.8 0-1.8-.2-2.8z" fill="#fc9663"/><path class="st84" d="M177.9 285.3l-.3-1.8c-.4-.7-.3-1.5-.7-2.2 0-.6.1-1.2.1-1.9.9-2.3 3.2-1.9 4.9-2.5 2.4-.9 5.4-.1 7.1-2.6.6-1.5.4-3.3 1.7-4.6 1.5-3.2.4-7 2.1-10.2 2.3-.1 2.4 2 2.9 3.4 1.5 4.6 3.3 9 4.9 13.5.4 1.9.4 3.7-1.1 5.2-1.5 1.4-3.6 1.9-5 3.6-2.9 1.1-5.8 2.1-8.9 2.6-2.1.1-4.3.3-6.4-.5-.6-.5-.9-1.3-1.3-2z"/><path class="st86" d="M230.9 243.5c-.8-.4-1-1.1-1-1.9V97.5c1.6 1.5 1 3.4 1 5.2v140.8z"/><path class="st87" d="M199.8 276.5c-3.4-5.2-3.8-11.7-7-17 .8-3.7.7-7.7 3-11.1 2 5.2 4 10.4 7 15.1-.2 2.4.2 4.8-.6 7.1-.3 1.7-.6 3.4-1.4 4.9-.2.4-.5.8-1 1z"/><path class="st88" d="M190.8 269.7v5.7c-4.9 1-9.8 3-14.7 0l-.2.1c-.8-.9-.2-2.2-.9-3.2v-1.8c5.1-1.9 10.5-.5 15.8-.8z"/><path d="M211.9 231.3c-1.1-.5-1.8-1.3-2.2-2.4.1-1.9 1.9-3.1 1.9-5 0-.8-.1-1.7-.3-2.5v-1.3c.4-1.9.4-3.7-.1-5.5-.1-.7-.1-1.3.1-2 .2-.4.6-.7 1-.9.2 0 .5 0 .7-.1 1.6.2 3.3-.4 4.5 1.1.4 1.8-1.7 1.9-2.1 3.4.6 1.4 1.3 3 2.1 4.8-1.6 3.6-1.7 8-5.6 10.4z" fill="#252b37"/><path d="M172.9 222.5v-29.8h1v27.2c0 1.1.9 2.4-1 2.6z" fill="#295dbb"/><path d="M194.7 227.4c.1.3.2.7.3 1-.1.6-.3 1.6-.9 1.3-1.5-.7-2.7-1.8-1.6-3.8 1.3-.4 1.3 1.2 2.2 1.5z" fill="#2250e4"/><path class="st92" d="M209.7 210.6c.7-1 1.4-1.2 2.1-.1l-.4.4c-.6.2-1.1.1-1.7-.3zm2.2-.1c.4.4.7.8 1.1 1.1l-.1-.1c-.4.3-.8.3-1.2.1-.2-.4-.2-.8.2-1.1z"/><path d="M52.8 203.4c.5-2.1-.4-4-.9-5.9l.1-.3c.1-.2.3-.4.4-.6l.3-.2c2.4-1.6 4.8.4 7.2.2.3.2.5.4.3.6-.1.2-.2.3-.3.3-.6.4-1.3.7-1.9 1.1h-1.2c-.1 0-.3 0-.4.1-.1.2-.1.5.1.7.2.2.3.4.4.7v.4c-1.2 1.2-3 1.9-3.2 3.9-.9.2-1.4 0-.9-1z" fill="#e7e7de"/><path class="st94" d="M77.7 174.4c-.1 1.1-.8 1.7-1.9 1.9-.9-.4-2.1-.2-2.3-1.5 0-.5.1-1-.2-1.5-.2-.3-.4-.6-.5-.9 2-3.3 5.7.1 8-1.9.3.2.5.4.3.6-.1.2-.2.3-.4.3-1 .7-2 1.3-3 2-.3.2-.4.3-.4.6.2.3.3.4.4.4z"/><path d="M88.8 169.5c-1.3 3.6-3.8 1.1-5.9 1.1-.3-.2-.4-.5-.3-.7.1-.3.2-.4.3-.4.4-.3.7-.7.9-1.3 0-.8.1-1.5 1-1.8.4-.3.7-.6 1.1-.8l.1-.1c1.1-.6 1.3.4 1.9.9l.3.4v.5c-.1.3-.3.6-.5.8l-.1.4c.2.2.4.4.6.5.3.1.4.3.6.5z" fill="#e5e6de"/><path d="M71.6 192.5c.2.2.3.5.3.8.4.8.4 1.6 0 2.3-1.1 1.9-2.5 2.1-4.1.7-.3-.1-.5-.3-.7-.6s-.3-.5-.4-.8v-.5c.3-.4.5-.7.8-1.1.2-.3.4-.4.8-.4.3 0 .6.2.7.4.3-.2.3-.5.1-.8 0-.5.2-.9.6-1.2 1.3-.5 1.6.4 1.9 1.2z" fill="#e2edf9"/><path d="M46 201.7c-.1-.7-.2-1.3-.3-2 .7-.1 1.4-.1 2.1-.2.3.3.7.3 1 0 .4-.5.7-.5 1 0 .1 2-.3 3.8-2.8 3.9-.9-.1-.4-1.3-1-1.7z" fill="#eea885"/><path class="st98" d="M67.8 195.4v.9c-2 .3-4.1.6-6.1.9-.4-.1-.7-.3-.9-.7 2-.7 4-1.3 6-2l.2.1c.3.3.5.6.8.8zm5.8-13.9c-.5 2-.4 4.2-1.8 6-.4-.1-.6-.4-.6-.9.6-1.7.1-3.7 1.7-5.1h.7z"/><path d="M72.8 172.5c.4.1.9.1 1.3.2.3.6.3 1.2-.2 1.7.6.7 1.2 1.4 1.9 2-.6.7-1.3 1.4-1.9 2.1-.4-1.3-.7-2.6-1.1-3.8-.5-.8-.5-1.5 0-2.2.1 0 0 0 0 0z" fill="#e5ebeb"/><path class="st100" d="M50.1 210.5c.5-1.4.5-3 1.8-4.1.3-.5.6-.5.9 0-.1 1.5-.6 3-1.7 4.1-.4.5-.7.5-1 0z"/><path class="st101" d="M71.6 192.5c-.6-.4-1.2-.7-1.8-1.1.1-.8.2-1.6 1-2 .3-.5.6-.5.9 0 0 1.1-.1 2.1-.1 3.1z"/><path class="st102" d="M87.1 159.6c-.1-.8-.1-1.6.7-2.1.3-.5.6-.5 1 0 .1 1.2.2 2.3-.8 3.2-.5-.3-.8-.6-.9-1.1z"/><path d="M55.8 191.4c-.3 1-.8 1.8-1.8 2.1-.3.4-.6.4-.9.1.3-1 .8-1.8 1.8-2.1.2-.4.5-.4.9-.1z" fill="#9d6c41"/><path d="M62.7 182.4c-.3 1-.8 1.8-1.8 2.1-.3.4-.6.4-1 .1.3-1 .9-1.8 2-2.1.2-.3.5-.4.8-.1z" fill="#bf9340"/><path class="st102" d="M88 154.5c0-.7-.2-1.6.9-1.8.9.6.7 1.1.1 1.7-.4.6-.7.6-1 .1z"/><path class="st105" d="M56.5 197.6c.5.3.9.7 1.4 1-.1.8-.3 1.5-1.1 1.9l-.1-.2c-.2-.2-.5-.4-.7-.7l-.2-.1c-.7-.9.2-1.3.7-1.9z"/><path class="st106" d="M87.9 166.5c-.6-.3-1.3-.6-1.9-.9l.9-2.1c.3-.4.6-.5.9 0 0 1 .1 2 .1 3z"/><path class="st107" d="M50.1 210.5h1c-.3 1 0 2.3-1.2 3-.2.5-.5.5-.7 0 .2-1 .5-2 .9-3z"/><path class="st98" d="M71.7 189.5h-.9c.2-1 .3-1.9.5-2.9l.6.9c-.1.6-.2 1.3-.2 2z"/><path class="st108" d="M57.1 188.5c.3-.9.7-1.7 1.8-2l-.1-.1c.1.9-.2 1.6-1.1 2-.2.1-.4.1-.6.1z"/><path d="M88 154.5h1c-.1 1-.1 2-.2 2.9h-1c.1-.9.1-1.9.2-2.9z" fill="#e1ebf7"/><path d="M49.7 215.4c-.3.6-.5 1.1-.8 1.8-1.3-.7-.9-1.3-.2-1.8.3-.4.6-.4 1 0z" fill="#e8e3d0"/><path d="M73.6 181.5h-.7c-.1-1.1-.4-2.3.9-3 0 1-.1 2-.2 3z" fill="#e4eaed"/><path class="st112" d="M51.9 197.4h-1.1c-.2.4-.5.4-.8.1.4-.9.7-1.8 1.9-1.9.3.2.4.5.4.9-.1.4-.2.7-.4.9z"/><path class="st100" d="M52.8 203.4c.3.3.6.7.9 1-.3.4-.5.7-.8 1.1-.3.4-.6.4-.9 0-.1-.8.1-1.6.8-2.1z"/><path class="st112" d="M46 201.7c1 .2 1 1 1 1.7-.4.3-.8.7-1.2 1-.2-.1-.3-.2-.5-.3.1-.4.2-.7.3-1 .2-.5.3-.9.4-1.4z"/><path class="st101" d="M69.8 191.4c0 .6.1 1.3.1 1.9-.3.4-.6.5-1 .2l-.3-.1-.6-.9c.3-.8 1.1-.9 1.8-1.1z"/><path class="st113" d="M63.9 180.5c-.1-.9.2-1.6 1-2-.1.8-.1 1.6-1 2z"/><path class="st114" d="M77.7 174.4c-.2-.3-.5-.7-.9-1.3.6.2.8.3 1 .4.1.3 0 .6-.1.9z"/><path d="M87.1 159.6c.3.3.6.7.8 1 0 .3 0 .6-.1.9-.3.4-.6.4-.9 0 .1-.6.2-1.3.2-1.9z" fill="#e6e5da"/><path class="st114" d="M87 161.5h.9c0 .7 0 1.3-.1 2H87c-.1-.7-.1-1.3 0-2z"/><path class="st107" d="M49.7 215.4h-1c.1-.7.3-1.3.4-2h.7c0 .7-.1 1.4-.1 2z"/><path class="st101" d="M72 195.7v-2.3c.9.7.9 1.5 0 2.3z"/><path class="st94" d="M72.9 172.5c0 .7 0 1.5-.1 2.2-.7-.8-.8-1.5.1-2.2z"/><path class="st106" d="M82.9 169.5v1.1c-.4.2-.7.5-1.1.7-.3-.2-.4-.4-.3-.6.1-.2.2-.3.3-.3.4-.3.7-.6 1.1-.9z"/><path class="st108" d="M45.9 204.4c-.1.7-.5 1.1-1.2.9-.6-.2-.5-.6 0-.9.3-.2.7-.4 1.2-.4v.4z"/><path class="st105" d="M88.8 169.5h-1c-.5-.7-.5-1.3 0-1.9h.1c.3-.3.5-.3.8 0 0 .6 0 1.2.1 1.9z"/><path class="st112" d="M51.8 196.3c0-.2.1-.4.1-.7 0-.6.3-1.1 1-1.1l-.1-.1c0 .6-.1 1.3-.1 1.9h.1c-.3.5-.7.5-1 0z"/><path d="M60.9 196.5c.3.2.6.5.9.7-.6.1-1.3.2-1.9.3v-.9c.3 0 .6-.1 1-.1z" fill="#e2e8eb"/><path class="st112" d="M50 197.5c.3 0 .5 0 .8-.1 0 .6-.2 1-.9 1h-.7c.3-.2.5-.6.8-.9z"/><path class="st106" d="M85.9 165.7c-.4.3-.7.5-1.1.8.4-.3.7-.6 1.1-.8z"/><path class="st112" d="M55.8 191.4c-.3 0-.6 0-.9.1.1-.6.4-1 1.1-1l-.1-.1c.1.4 0 .7-.1 1z"/><path class="st112" d="M55.9 190.5c0-.7.3-1 1-1l-.1-.1c0 .7-.3 1.1-.9 1.1-.1 0 0 0 0 0z"/><path class="st108" d="M57.1 188.5h.6c0 .6-.3.9-.9 1l.1.1c.1-.4.1-.8.2-1.1z"/><path class="st113" d="M65.8 177.5l-1 1c.4-.3.7-.6 1-1z"/><path class="st108" d="M58.9 186.5c.1-.6.3-1 1-1l-.1-.1c0 .7-.3 1.1-.9 1.1-.1 0 0 0 0 0z"/><path d="M65.9 177.5c.1-.2.3-.3.2-.2 0-.1-.1.1-.2.2-.1 0 0 0 0 0z" fill="#caa426"/><path class="st108" d="M62.7 182.4c-.3 0-.5.1-.8.1.3-.3.7-.6 1-1l-.1-.1c.1.4 0 .7-.1 1z"/><path class="st114" d="M68 192.6l.6.9h-1c.1-.4.2-.7.4-.9z"/><path class="st112" d="M49.2 198.5h.7v1h-1c.1-.3.2-.7.3-1z"/><path class="st108" d="M63.8 180.5l-1 1 .1.1c.1-.7.3-1.1.9-1.1.1 0 0 0 0 0z"/><path class="st113" d="M48.8 199.5c-.1.2-.3.4-.5.7-.2-.2-.4-.4-.5-.6.4-.1.7-.1 1-.1z"/><path class="st112" d="M45.8 204.1c-.4.1-.8.3-1.2.4.1-.3.1-.6.1-.9.3-.1.7-.3 1-.4.1.2.1.5.1.9zm7.2-10.5c.3 0 .6 0 .9-.1-.1.6-.4 1-1.1 1l.1.1c0-.4.1-.7.1-1z"/><path d="M81.8 170.4v1c-.3.1-.7.1-1 .2v-.9c.4-.3.7-.3 1-.3z" fill="#e1e7eb"/><path class="st108" d="M59.9 184.5c.3 0 .6 0 1-.1-.4.3-.7.6-1.1 1l.1.1c-.1-.3-.1-.6 0-1z"/><path class="st106" d="M83.8 168.2c-.3.4-.6.8-.9 1.3.3-.4.6-.8.9-1.3z"/><path class="st114" d="M51.9 205.5h.9c0 .3 0 .7-.1 1h-.9c0-.3.1-.7.1-1z"/><path class="st106" d="M88.7 167.5h-.8v-1c.3.3.5.7.8 1z"/><path class="st119" d="M439.1 94.6c-.1.3-.1.6-.1.9H233.9v-.9h205.2zm-6.6-7.2H318.2v-.5h114.5c0 .1-.1.3-.2.5z"/><path d="M188.8 80.7c3.5.3 5.2 1.9 5.7 4.9-.3 1.4-.8 2.5-2.1 3.5-2.5 1-5.1 1.2-6.8-1.6-1.9-3.4.6-5.2 3.2-6.8z" fill="#d4e7fe"/><path d="M159.5 82.7c2.4-2.2 4.6-2.7 6.9-.6 1.4 1.3 2.1 3.1 1.1 5-1.5 3-4 3-6.8 2.2-2-2-2.3-4.1-1.2-6.6z" fill="#d5e7fe"/><path d="M175.9 80.7c2.9.3 4.9 1.4 5 4.2.1 3-1.5 4.7-4.5 4.8-2.8.1-4.4-1.6-4.5-4.3 0-2.7 2-3.9 4-4.7z" fill="#f1da49"/><path class="st58" d="M591.9 219.5c1 7.7 2.8 15.5-1.1 23-2.3-2.2-4.6-4.3-6.9-6.5 3.7-.7 4.6 2.4 6.9 3.4 1.1-4.5.2-9.1.5-13.6.1-1.8-.5-3.6.5-5.3.1-.3.1-.7.1-1z"/><path d="M592 186.5c0 9.2-.1 18.5-.1 27.7 0 .1-.1.4-.2.4-.3.1-.6 0-.8 0 0-7.7 0-15.4.1-23.2-.1-1.6-.8-3.6 1-4.9z" fill="#65b0fe"/><path class="st18" d="M595.9 230.6c-.7-.8-1.3-1.6-2-2.3 3.8-.1 4.6-4.9 8.8-5.6-1.4 3.8-4.3 5.7-6.8 7.9z"/><path d="M591.8 220.5c0 6.2 0 12.4.1 18.6 0 .1-.1.4-.2.4-.3 0-.5 0-.8-.1.5-6.3-1.2-12.7.9-18.9z" fill="#64affd"/><path class="st58" d="M591.8 243.5c2.2 5.9.5 12.1 1 18.1-1.9-5.9-.2-12.1-1-18.1zm-1-1l1 1c-.3-.3-.6-.7-1-1z"/><path class="st125" d="M419 283.7c1.2-9.7.8-19.4.9-29.2-.9-2-.9-4 .1-6 1-7.3.9-14.7.8-22.1-.9-3.4-.2-6.9-.4-10.4 0-.9-.1-1.8.6-2.5.3-.1.5-.3.8-.4 2.8 2.6.8 6.5 2.5 9.5 1.7 1.5 3.9 1.1 6 1.1 10.1.1 20.3 0 30.4 0 2.5 0 5-.3 7.3 1.2 1.4 1.7.9 3.8.9 5.7.1 10.2-.1 20.5.1 30.7.2.6.2 1.2 0 1.8.6 4.1 3.3 6.1 6.9 7.2 4.6 1.9 9.4.2 14 .9v29.6c-1.7 1.1-2.5-.5-3.6-1.3-1.3-.9-2-2.6-4-2.4-1.4 1.8 1.7 3.1.5 4.9h-58c-2.2 0-4.4-.3-5.8 1.9v-20.2z"/><path class="st126" d="M529.2 252.5l-.3.9c-1.4 1-2.9.5-4.4.5h-47.4c-1.4 0-3 .6-4.3-.7 0-32.2-.1-64.5-.1-96.7 0-1.4-.7-3.1 1.1-4 1.8 2.1 1.3 4.7 1.3 7.2v83.4c0 2.1-.4 4.3.7 6.4 1.6 2.1 3.9 1.6 6 1.6h39.8c2 0 4-.2 5.9.4.8.2 1.3.5 1.7 1z"/><path d="M474.8 152.7c18 0 35.9-.1 53.9-.1 1.4 1.3 1.1 3.1 1.1 4.7v89.9c0 1.3.1 2.7-.5 3.9-.2.2-.5.4-.7.7l-.9-.3c-2.1-3-1.4-6.4-1.4-9.7 0-26.1-.1-52.3-.1-78.4 0-2.5.4-5-1-7.3-2.1-1.4-4.5-1-6.8-1h-35.9c-2.3 0-4.7.2-6.9-.8-.6-.4-.9-.9-.8-1.6z" fill="#cee2fb"/><path class="st128" d="M528.7 251.5v-98.9c.4 0 .8-.1 1.1-.1.8 1.2.5 2.6.5 3.9v92.2c0 1.3.3 2.7-.5 3.9h-.7c-.2-.1-.3-.1-.5-.1-.2-.2-.3-.4-.2-.6.1-.2.2-.3.3-.3z"/><path class="st86" d="M471.6 153.8v97.6h-.5v-97.7c.2 0 .3.1.5.1zm58.3 98.7v-100c1.6 1.3 1 3.1 1 4.7v90.7c-.1 1.5.5 3.3-1 4.6z"/><path class="st114" d="M474.8 152.7v.8c1.8 2.1 1.6 4.7 1.6 7.1.1 28.6 0 57.3-.1 85.9 0 1.5-.1 3-.8 4.4-.4.6-1 .8-1.7.6 0-33 .1-65.9.1-98.9.4-.1.7-.1.9.1z"/><path class="st129" d="M505.8 261c-.4 1.8-1 3.1-2.4 4.1-3.8 1.2-6.1-.3-7.1-4.2.7-2.5 1.9-4.4 4.7-4.4 2.6.1 4.2 1.7 4.8 4.5z"/><path class="st48" d="M472.9 253.3c18.7.1 37.3.1 56 .2-1.1 1.5-2.7 1-4.1 1H477c-1.5 0-3.2.4-4.1-1.2z"/><path d="M566 102.5c5.4 1.4 6.8 4.5 5.7 9.1-1.1 1.7-2.7 2.7-5.2 3-1.2-3.9-.5-7.7-.5-12.1zm-9.2-29v11.8c-3.5-.5-5.8-2-5.9-5.7-.2-3.7 2.1-5.2 5.9-6.1z" fill="#fbfcfe"/><path d="M420 321.5h-11.4c1.7-4.8 1-8.9 2-12.9.1 2.7.3 5.4.4 8.3 3 .6 5.8 1.1 8.7 1.6.9.9.7 2 .3 3z" fill="#201c21"/><path class="st132" d="M495.8 309.7c-1 1-2 1.1-2.9 0 1-.7 2-.5 2.9 0z"/><path d="M155.7 274.7c-.6 3.4-2.4 5.6-5.9 5.6-3.5-.1-5.5-2.2-5.7-5.7-.2-3.2 3-6.2 6.1-5.9 3.4.4 5.2 2.5 5.5 6z" fill="#f71a77"/><path d="M176 275.4h14.7c-4 3.2-9.4 2-13.7 4l-.4.1c-.3-.7-.3-1.5-.7-2.3.1-.6.1-1.2.1-1.8z" fill="#2b5fbe"/><path class="st135" d="M205.5 291.3c.1.4.1.8.2 1.2h-25.1c-1.7-.8-1.6-2-1.6-3.2.8-.2 1.5.1 2.2.4 2.8.8 5.6.3 8.4.4 4.8.2 9.6.9 14.4.4.5.2 1 .4 1.5.8z"/><path class="st136" d="M173.9 277.5c-3.2-5.9-3.4-12.5-4.7-18.8 3 5.9 3.5 12.4 4.7 18.8z"/><path d="M180 290.2c-.3-.3-.7-.6-1-.9.1-.3 0-.6-.2-.9-.4-.7-.4-1.4.1-2h7.2c-1 3-3.2 4.1-6.1 3.8z" fill="#64a4ee"/><path class="st135" d="M178.9 286.5c0 .7-.1 1.3-.1 2-1.1-.9-.8-2-.8-3.2l.9 1.2z"/><path class="st136" d="M175 272.3c.3 1.1.6 2.1.9 3.2-1.3-.9-1-2-.9-3.2z"/><path class="st135" d="M176 277.3c.7.6.9 1.4.7 2.3-.7-.7-.8-1.5-.7-2.3zm1 4c.2.7.5 1.4.7 2.2-.8-.6-.8-1.4-.7-2.2z"/><path class="st138" d="M136.9 208.5c1.6-1.7 3.9-.1 5.9-1.3 1.3-1.8 1.4-4.5 3.3-6.4 3.2-3 6.8-4.1 11-2.7 4.5 1.5 6.7 4.8 6.9 9.4.2 4.5-2 7.6-5.9 9.6-1.3.7-2.9.8-4.3 1.2l-.5-.5c-1.4-2.5.1-5.7-1.7-8.2-3.1-1.7-5.6-.9-7.6 2-2.5-.8-4.9-1.7-7.1-3.1z"/><path d="M136.9 208.5h3.8c2.3.3 1.9 2.3 3.1 3 2.8.7 3.6 3.8 6 4.9.7.5 1.4.8 2.2 1 .6.2 1.1.4 1.6.8l.1.1c-.1 2.1.4 4.3-.5 6.7h-16.8c-.1-5.5-1.1-11 .5-16.5z" fill="#fdfdfa"/><path class="st119" d="M470 94.7h33.7v.5h-33.6c0-.2 0-.3-.1-.5z"/><path d="M187 298.6h-8.2c-.6 0-1.1.1-1.7.1-11.1 1.1-22.1 1.3-33.2 0l-.1-.4c-.3-.2-.4-.3-.3-.5.1-.2.2-.2.3-.2h61c.2.2.3.4.2.6s-.2.3-.2.3c-2.3.1-4.5.3-6.8.4-2.8-.1-5.5-.1-8.3-.2-.8.6-1.8.6-2.7-.1z" fill="#eff4fd"/><path d="M199 306.5c-.1-2.3-.1-4.6-.2-6.9h6.2c-1.3 1.8-3.3.2-3.5.5-2.4 2.5-.8 4.9-2.5 6.4z" fill="#fece26"/><path d="M204.8 298.4v-.8h.9c.1.6-.2.9-.9.8z" fill="#f8f6ee"/><path d="M12.2 227.4c-.4-1.3-.8-2.6-1.2-3.8 1.7-2.5-.9-5.5.9-8 1.8.3 4.2-.9 5 2 .3 2.7.5 5.4.8 8.4-1.9.4-3.7.9-5.5 1.4z" fill="#4270a0"/><path d="M11.9 215.5c-2.2-4.5 1.2-8.3 1.1-13.2 3.7 2.1 3.1 4.3 1.9 6.5s-2.7 4.2-3 6.7z" fill="#fbfcfc"/><path d="M28.9 200.5c.1-1.1.1-2.1.2-3.5 1.1 1.6.9 2.6-.2 3.5zm-14.7.4c0-.3.1-.5.1-.7.1.1.2.1.3.2-.1.1-.2.3-.4.5z" fill="#c4c0c0"/><path class="st63" d="M23.9 187.5c.3-.1.6 0 .9.1.1.3.2.6.1.9h-1.1c.1-.4.1-.7.1-1z"/><path d="M187 298.6h2.8c.1.2.1.4.2.7-1.3 1-2.5 2.1-3.8 3.1-.5-1.4.7-2.5.8-3.8z" fill="#cfa826"/><path class="st51" d="M188.8 362.6c-2.3 1.3-4.6 1.3-6.9 0h6.9z"/><path class="st129" d="M453.9 90.6c-4.1 0-6.1-1.6-6.1-5.1s1.9-5.8 5.3-5.8 5.6 2.3 5.6 5.7c0 3.3-2.4 4.8-4.8 5.2z"/><path class="st128" d="M143.9 298.7c11.1-.3 22.1-.4 33.2 0-.4.3-.8.5-1.1.8-10.4.7-20.7.7-31.1 0h-.8c-.1-.2-.2-.5-.2-.8z"/><path d="M144.9 299.6H176c-.4.3-.7.6-1.1.9h-25.3c-1.6 0-3.4.5-4.7-.9z" fill="#245ab7"/><path class="st36" d="M435.7 336.7c0 .3.1.6.4.8-2.3 2-5.1.9-7.6 1-6.2.2-12.3 0-18.5 0-.4-.3-.8-.7-.9-1.3v-.4c8.8 0 17.7-.1 26.6-.1z"/><path d="M478.9 338.5c-.6.3-1.1.9-1.7.9-13.1.1-26.1 0-39.2-.9h40.9zm-107 0c-.6.3-1.1.9-1.7.9-12.7.1-25.4 0-38.2-.9h39.9z" fill="#f6f9fd"/><path class="st26" d="M409.8 324.5v1h-11v-1c3.7-2.2 7.4-2.2 11 0z"/><path class="st22" d="M372 337.2c.3.4.6.8.9 1.3h-1.1c.1-.4.2-.9.2-1.3z"/><path class="st23" d="M409 337.2c.3.4.6.9.9 1.3-.3-.5-.6-.9-.9-1.3z"/><path d="M110.1 312.4c-.1-.3-.2-.6-.2-.9.7.1 1.3.1 2 .2-.5.7-1.1.7-1.8.7z" fill="#93afdc"/><path class="st126" d="M118.9 308.5c.4.3.7.6 1.1 1-.4 0-.8.1-1.2.1-.2-.4-.4-.8-.7-1.1.3-.3.5-.3.8 0z"/><path d="M109.9 311.5h-3.2c1.1-1.2 2.1-1.5 3.2 0z" fill="#7b9cd6"/><path d="M143.9 297.6v.7c-2.4.2-4.8.3-7.2.5-1.2 0-2.5-.1-3.7-.1-2.7-.1-5.4-.3-8.1-.4v-.7h19z" fill="#f9fafd"/><path d="M409.8 324.5h-10.9c0-.3-.1-.7-.1-1v-.8c3.4-.5 1.7-3.1 1.9-4.8-.8-4.5-.2-9.1-.3-13.7 0-1.1.4-1.9 1.3-2.4 2.1-.8 4.1-.8 6.5.9.2 4.8.4 10-.2 15.2.1 1.8-1.6 4.3 1.8 4.8v.9c.1.3.1.6 0 .9z" fill="#f8f9fb"/><path class="st5" d="M558 302.8c.7-2.8 1.8-5.6 0-8.4-1.4-2.4-3.2-2-5.1-.8-1.8.6-2.7 2-3.2 3.7 0 0 0 .1.1.1-.1 0-.1-.1-.2-.1-2.6 3-6.1 4.8-9.6 6.5 2.6 2.7 3.9 6 4 9.7.2 1 .9 1 1.7 1 0-.1.1-.2.1-.2 0 .1 0 .1.1.2 2.6 1.6 5.6 2.5 7.8 4.8 1.6-3.4 3.8-6.7 3.1-10.8.4-1.9.7-3.8 1.2-5.7zm-11.2 9.6c-.1-.1-.1-.1-.1-.2 0 0 .1.1.1.2z"/><path d="M24.1 186.8v.4h-1.3v-.3c.4-.1.8-.1 1.3-.1z" fill="#8c6743"/><path d="M205.5 291.3c-.3 0-.5-.1-.8-.2-.8-.8-3 .9-2.8-1.7h1.1c1.2-.9 2.5-.3 3.8-.5.8 0 1.6-.1 2.2.5 0 .3.1.7.1 1-1.3.4-2.5.7-3.6.9z" fill="#3d6ec8"/><path class="st3" d="M125.2 299.6c-.1-.1-.3-.2-.5-.3 0-.2.1-.5.1-.7l.1-.4v-.7h-12.1c0 .1.1.2.1.3l-.2-.2s-.1 0-.2-.1c.1-.4.1-.8.1-1.1-.2-.9-.3-1.9.8-2.5.8-.1 1.6-.3 2.4-.4h1v-.3c.1.1.1.2.2.3 2.2.3 4.4.4 6.8-.2-2-4.8-5.7-6.3-9.9-6.9 0 0 0 .1.1.1-.1 0-.1-.1-.2-.1-6.7-2.7-8.1-9.4-11-14.9.1-.6-.2-.9-.7-1-1.9-3.5-4.5-6.4-8.7-4.7-4.3 1.8-3.7 5.8-2.7 9.5.3 1.3.6 2.6 1.2 3.8 1.6 3.4 2.4 6.8 2 10.6-.2 1.9-.2 4 1 5.7 4.4 4.9 10.5 8.6 11.2 16.1l.1.1c.3.6.5 1.3.8 1.9 1.1.1 2.3.1 3-1.1.1 0 .2-.2.2-.4.6 0 1.1 0 1.6-.3 2.4-.3 4.9-.5 6.9-2.1.1-.3.1-.6.1-.8.4.3.8.4 1.1.6h3.6c.5-2.3.9-4.6 1.3-7.1.8-.8.8-1.7.4-2.7z"/><path class="st13" d="M28.9 266.5c-.2-.2-.4-.3-.6-.5.2-.2.4-.3.6-.5.1.2.3.3.4.5-.1.2-.3.3-.4.5z"/><path class="st13" d="M28.9 265.5c.2-.2.3-.4.5-.6.2.2.3.4.5.6-.4.4-.7.4-1 0z"/><path class="st55" d="M29.9 266.5l1 1c-.4-.3-.7-.7-1-1zm-1-1h1v1h-1v-1zm2 2c.1.1.3.2.4.2-.2 0-.3-.1-.4-.2z"/><path class="st13" d="M16.9 269.5c-.1-.1-.3-.2-.4-.2.1 0 .2.1.4.2zm0 0c.1.1.3.2.4.2-.2-.1-.3-.1-.4-.2z"/><path d="M459 152.7c-2.1-.8-4.2-1.6-6.2-2.5v-4c2.9-3.6 5.6-3.2 8.4-.7 1.1 3.1 1.1 5.6-2.2 7.2z" fill="#f89765"/><path d="M414.9 154.2c.4-2 .9-4 1.3-6 1.6.4 2.8 1.2 2.5 3.1-.2 2.1-1.6 3.1-3.8 2.9z" fill="#d69567"/><path class="st31" d="M422 196.4c.1-2-.8-4.2.8-6.1-.2 2.1.8 4.3-.8 6.1z"/><path d="M467.9 225.4h-45.4c-1.2-4.3-.1-8.3-.8-12.2 0-1.3.1-2.7.1-4 15.3-.4 30.5-.1 46.3-.2.2 5.7.7 11.1-.2 16.4z" fill="#f9fafc"/><path class="st132" d="M420.9 213.6v1.5c-.1.3-.2.5-.3.8-.2-.1-.5-.3-.7-.4h-31c-.4.7-.7.6-.9-.1 0-2.3-.5-4.6.5-7.5.3 2.4.5 4.2.7 6.3h29.7c1.4-.9.5-2.5 1.2-3.6 1.2.7.5 2 .8 3z"/><path d="M381.7 195.4c1.6-1.7 2.5-4 4.9-4.8 1.2 2 1.2 3.9 0 5.9-.9.1-1.7.2-2.6.3-1.2.2-2.3.4-2.3-1.4z" fill="#e4ebf6"/><path class="st48" d="M386.6 196.4v-5.9c1.9 2 1.9 4 0 5.9z"/><path d="M388 215.3c.3 0 .6 0 .9.1-.3 1.6.7 3.5-.8 4.9-.1-1.7-.1-3.3-.1-5z" fill="#1a151b"/><path d="M381.7 195.4c.4 1.1 1.5 1 2.3 1.3-1 .7-2.1 1.1-3.3.6-.3-1 .2-1.5 1-1.9z" fill="#9eb5df"/><path class="st80" d="M366.8 197.4c.3.3.6.6 1.1 1.2-1.2.1-.9-.8-1.1-1.2z"/><path d="M408.1 317.8v-14.3c-2.5-1.4-4.4-.9-6.2-1-2.1-6.8-.7-13.7-.7-20.5.2-4.2.8-8.4-.3-12.5.1-7.7.1-15.3.2-23 .3-.1.5-.2.8-.2.2.2.3.4.5.7.1 2.1.1 4.2 0 7.5 0-.4.9-1.1.3-.9-.1 0-.2-.1-.2-.3.6-4.8-1.2-9.4-.9-14.2.1-2-.1-4 1.4-5.6 1.7-.5 3.3-.5 4.9.3.8.5.7 1.1.1 1.8-.4 23.7.7 47.5.9 71.2-.1 3.6 1.1 7.4-.8 11z" fill="#d8e8fc"/><path d="M401.9 281.5v21c-2.3 5-.3 10.3-1.1 15.4-1.8-1.8-.9-4.1-.8-6.1.3-10.1-.3-20.2.7-30.3.4-.6.8-.6 1.2 0z" fill="#f4f8fc"/><path d="M417.9 225.5c-1.6 2-2.7 3.7-4.9 4-2.2 0-3.5-1.6-4.9-2.8-.5-2.2-.4-4.3 0-6.5 3-1.1 5.9-.6 8.7-.4 1.7 1.7.7 3.8 1.1 5.7z" fill="#403c41"/><path d="M402.9 233.4v22.8h-1v-9.8c-1.4-4.3-1.7-8.6 0-13 .3.1.6 0 1 0z" fill="#e0edfe"/><path d="M391.9 226.5c-1.9-2.1-.7-4.3-.8-6.6 3.4-.5 6.3-.5 9.4 0 .4 2.4 1.2 4.6-.5 6.7l-.5-.5c-.8-1.1-.6-2.6-1.7-3.7-3.8-1.9-4.4 1.2-5.3 3.6-.3.2-.5.3-.6.5z" fill="#413c41"/><path class="st3" d="M524.7 270.9h-46.8c-5 0-9-4-9-9V142.2c0-4.9 4-9 9-9h46.8c5 0 9 4.1 9 9v119.7c0 4.9-4.1 9-9 9z"/><path class="st166" d="M419 283.7c-2.5-4.6-.5-9.4-1.2-14.1h1.2v14.1z"/><path d="M401.9 233.5v13c-.3 0-.6 0-.9.1-.1-.4-.2-.7-.3-1.1-.3-4-.8-8 .2-11.9.3-.2.7-.2 1-.1z" fill="#bfcadb"/><path d="M401.9 281.5c-.4 0-.8-.1-1.2-.1-.3-4-.6-8 .2-11.9 2.1 3.8.4 8 1 12z" fill="#e6f1fd"/><path d="M399.9 226.5c-3.6 4.1-4.5 4.1-8 0 2.6-.5 5.3-.5 8 0z" fill="#403d43"/><path class="st166" d="M400.9 233.5c-.1 4-.2 8-.2 11.9-1.2-4-1.6-8 .2-11.9zm19-18c.3-.1.7-.2 1-.3.7 3.8 0 7.6-.1 11.3-2-3.6-.4-7.4-.9-11zm-12 17h-5.8c1.9-.8 3.9-1.8 5.8 0z"/><path d="M420 248.5c0 2 0 4-.1 6-1.5-2-1.7-4 .1-6z" fill="#1a151a"/><path class="st166" d="M417.9 309.4c-1.3-1.4-1.1-2.1-.8-3 1.3.8.4 1.5.8 3zm-26.5 6.2c-.8-.6-.5-1.3-.3-2.1 1.2.6.7 1.3.3 2.1z"/><path d="M407.9 235.5c0-.6-.1-1.2-.1-1.8 0-.4.1-.8.1-1.2 1.3 1 1.3 2 0 3z" fill="#211b20"/><path class="st83" d="M373.8 130.5c3.1 2.7 1.8 6.1 1.4 9.3-2.3-2.4-.2-5.9-2.4-8.3.1-.5.7-.6 1-1z"/><path class="st81" d="M369.9 131.6v7.7c-.7-2.9-2-5.9 0-8.8.3.2.4.5.3.7-.1.3-.2.4-.3.4z"/><path d="M369.9 131.6v-1.1h3.9l-1 1c-1 .5-1.9.6-2.9.1z" fill="#faeda7"/><path d="M208.9 289.5c-.7 0-1.3 0-2-.1-.3-.2-.5-.4-.4-.6s.2-.3.3-.3h2.1v1z" fill="#5ea7f9"/><path class="st48" d="M376.8 151.3h-10.7v-.4h10.7v.4z"/><path d="M169.9 161.5c1.1-4.4 3.9-6.9 8.2-7.5 4.4-.7 8.9-.6 13.4 0 5 .7 7.7 4.1 9.5 8.5-.2.2-.5.4-.7.6-9.1.9-18.2.2-27.3.4-1.3 0-2.5-.6-3.1-2zm15.5-26c4 0 8.1 3.9 8.1 7.9 0 3.9-4 8-8 8-4.2.1-7.7-3.5-7.7-7.9 0-4.5 3.3-8 7.6-8z" fill="#2d61bb"/><path d="M201.1 162.5c.6.8.8 1.8-.3 1.8-10.6-.2-21.2 1.4-31.8-.8 8.3-1 16.7-.1 25.1-.5 2.3-.1 4.6.6 6.8-.5h.2z" fill="#366fc7"/><path class="st86" d="M200.8 162.5c-1.3 1.6-3.1.9-4.6 1-9.1.1-18.2 0-27.2 0 .3-.7.7-1.3 1-2 3.8 1.9 7.8.8 11.7.9 6.3.2 12.7.1 19.1.1z"/><path class="st87" d="M208.8 277.4c3.7-6.6 7.4-13.3 11.1-19.9.3-.5.6-.5 1 0v17.6c-3.7 2.7-7.8 3.7-12 4.4-.6-.7-.7-1.4-.1-2.1z"/><path d="M180 290.2c2-1.2 4.1-2.5 6.1-3.7 2.9-.7 5.9-1.5 8.8-2.2.4-.3.6-.2.7.3.1.6.2 1.3.3 1.9.5 1 .9 2-.3 2.8-1.8 2.1-4.8.6-6.8 2.1-2.9-.4-6.2 1.9-8.8-1.2z" fill="#f49668"/><path d="M208.8 277.4v2.1c-.6.6-1.5.4-2.1 1h-.9c-.6.6-1.5.3-2.1 1h-1.9c-.8.7-1.7.5-2.6.5l-.5-.5c1-1.5 1.1-3.2 1-5 .1-.4.1-.8.2-1.2 2.6-1.7 5.3-1.6 7.8.2.2.8.3 1.5 1.1 1.9z" fill="#2c60bb"/><path d="M207.8 275.5c-2.6-.1-5.2-.1-7.8-.2l.9-4.8c1.3-2.1 3-2.4 5-.9.6 1.9 1.3 3.9 1.9 5.9z" fill="#5da5f8"/><path class="st179" d="M188.8 291.4c1.9-1.8 4.2-2.5 6.8-2.1 2 1.9 4.2-.6 6.2.2.9.6 1.9 1.1 2.8 1.7-5.2.7-10.5.3-15.8.2z"/><path d="M205.9 269.6c-1.7 0-3.4-.1-5 .9 1-2.2.4-4.9 2-7 1 2 2 4 3 6.1z" fill="#295eb9"/><path d="M220.9 257.5h-1v-6.8h1v6.8z" fill="#1743cf"/><path d="M195.6 284.6c-.3 0-.5-.1-.7-.3.8-1.6 2.5-2 3.9-2.8h.1c.3.4.9.5 1 1.1-1.4.6-2.9 1.3-4.3 2z" fill="#1844cd"/><path d="M206.9 288.5v.9h-4c1.1-1.3 2.6-.8 4-.9z" fill="#5091e7"/><path class="st179" d="M195.6 289.3c.1-.9.2-1.9.3-2.8 1.1 1.1 1.4 2-.3 2.8z"/><path d="M199.9 282.6c-.3-.4-.7-.7-1-1.1h3c-.6.3-1.3.7-2 1.1z" fill="#2153ad"/><path d="M203.8 281.5c.5-.8 1.2-1 2.1-1-.5.8-1.2 1-2.1 1z" fill="#143dbf"/><path d="M206.8 280.5c.5-.8 1.2-1 2.1-1-.5.8-1.2 1-2.1 1z" fill="#153fc5"/><path class="st3" d="M214 239.5v-1.9c.9.6 1 1.2 0 1.9z"/><path d="M211.9 210.5v1c.2.2.3.5.3.7 0 .3-.1.4-.2.4v1.5c.4 2.2.6 4.3-.1 6.5.1.2.1.4 0 .6.3.7.2 1.6.7 2.2.4 2.6-1 4.2-3.1 5.4-3.6-1.1-3-3.9-2.7-6.6.9-.6 1.8-1.3 2.7-1.9 1.4-2.9.7-5.9.4-8.9-.1-.3-.1-.7-.2-1 .8.1 1.5.1 2.2.1z" fill="#1a4be8"/><path class="st92" d="M210 211.5c1.2 3 1.8 6-.4 8.9.2-2.9.3-5.9.4-8.9zm2 9.2c0-2.2.1-4.3.1-6.5.9 2.1 1 4.3-.1 6.5zm.7 2.8c-.8-.6-.9-1.4-.7-2.2.7.6.9 1.3.7 2.2z"/><path class="st3" d="M212 212.7c0-.4-.1-.8-.1-1.2h1l-.9 1.2z"/><path d="M56.5 197.6c-.2.6-.4 1.3-.6 1.9-.7-.1-1.6 0-1.7-1.1.4-1.2 1.5-.7 2.3-.8z" fill="#f8d17a"/><path d="M56 199.6l.7.7-.7-.7z" fill="#e0e9f4"/><path class="st4" d="M51.8 196.3h1c-.3.4-.7.8-1 1.2v-1.2zm22.2-22c.1-.6.2-1.1.2-1.7l1.5.6c-.2 1.5-1 1.2-1.7 1.1zm12.8-4.9c-.7 0-1.3 0-1.5-.9.1-.9.8-.9 1.4-.9.8.6.8 1.2.1 1.8z"/><path d="M86.8 169.4c0-.6 0-1.2-.1-1.7.4 0 .7-.1 1.1-.1v1.9c-.4 0-.7 0-1-.1z" fill="#f1d99e"/><path class="st4" d="M68.9 193.5c.3-.1.7-.1 1-.2.7.5 1.2 1.1.4 1.9-1.6.3-1.4-.7-1.4-1.7z"/><path class="st114" d="M67.8 195.4l-.8-.8.8.8z"/><path class="st125" d="M527.9 251.5h-53v-98h53v98z"/><path d="M149.9 217.6c-2.7-1.4-4.6-3.6-6.1-6.2.2-1.1-.6-2.3.4-3.5 2.8-.4 5.8-.4 9 0 1.1 3.4.4 6.8.5 10.2-.5 0-1 .1-1.5.1-.7-.1-1.6-.2-2.3-.6z" fill="#3063bb"/><path class="st138" d="M149.9 217.6c.9-.1 1.7 0 2.3.7-.9.2-1.7.2-2.3-.7z"/><path d="M416.3 220.9c1.5 3.8-.5 5.6-3 7.3-1.8-.1-2.9-1.5-4.1-2.5-.5-1.5-.5-3 .2-4.6 2.1-1 4.4-.7 6.9-.2z" fill="#2f282e"/><path d="M399.8 226.5c-1.6-.1-2.6 1.4-3.7 1.8-1.7-.3-2.6-2-4.3-1.8.1-1.8-.4-3.6.6-5.4 2.1-1 4.3-.4 6.4-.4 1.7 1.9.8 3.9 1 5.8z" fill="#2f282f"/><path class="st5" d="M519 178c0 10.2-7.6 17.9-17.8 18.2-9.8.2-18.4-8.4-18.3-18.4.1-9.9 8.2-18.1 18-18.2 10.2-.1 18.1 8 18.1 18.4z"/><path d="M477.1 225.5c.5-4.9 2.7-7.8 7.3-7.6 3.4.2 5.9 2.4 6.3 5.9.3 3.8-1.8 6.5-5.4 7.2-4.5 1-6.8-1.7-8.2-5.5z" fill="#62abfc"/><path d="M484.1 249.6c-3.8.1-6.8-2.6-7-6.3-.2-3.3 3.1-6.7 6.5-6.8 3.5-.1 6.9 3 7 6.4.2 3.7-2.6 6.6-6.5 6.7z" fill="#4fbfa5"/><path d="M483.7 200.4c3.7-.1 6.8 2.7 6.9 6.3.2 3.3-3.1 6.7-6.5 6.8-3.6.1-6.8-2.9-6.9-6.4-.1-3.4 3-6.6 6.5-6.7z" fill="#f5dc46"/><path class="st197" d="M491 186c2-7.2 7.2-6.6 12.2-6.5 4.6.1 5.8 1.1 7.6 6.5H491z"/><path d="M69.7 222.8h3.8v15.1h-3.8zm8.1-5.1h3.8v20.2h-3.8zm8.1-3.8h3.8v24h-3.8zm6.7-3.1h3.8v27.1h-3.8zM61.5 168H44.2c-1.2 0-2.3-1-2.3-2.3 0-1.2 1-2.3 2.3-2.3h17.3c1.2 0 2.2 1 2.2 2.3 0 1.3-1 2.3-2.2 2.3zm0 7.9H44.2c-1.2 0-2.3-1-2.3-2.2 0-1.2 1-2.3 2.3-2.3h17.3c1.2 0 2.2 1 2.2 2.3 0 1.2-1 2.2-2.2 2.2z" fill="#e4f1ff"/><path d="M350.7 132.4H290c-.8 0-1.5-.7-1.5-1.5s.7-1.5 1.5-1.5h60.7c.8 0 1.5.7 1.5 1.5 0 .9-.7 1.5-1.5 1.5zm-32 12.2H290c-.8 0-1.5-.7-1.5-1.5s.7-1.5 1.5-1.5h28.7c.8 0 1.5.7 1.5 1.5s-.7 1.5-1.5 1.5zm32 12.2H290c-.8 0-1.5-.7-1.5-1.5s.7-1.5 1.5-1.5h60.7c.8 0 1.5.7 1.5 1.5s-.7 1.5-1.5 1.5zm0 39.1H290c-.8 0-1.5-.7-1.5-1.5s.7-1.5 1.5-1.5h60.7c.8 0 1.5.7 1.5 1.5 0 .9-.7 1.5-1.5 1.5zm-32 12.2H290c-.8 0-1.5-.7-1.5-1.5s.7-1.5 1.5-1.5h28.7c.8 0 1.5.7 1.5 1.5s-.7 1.5-1.5 1.5zm32 12.2H290c-.8 0-1.5-.7-1.5-1.5s.7-1.5 1.5-1.5h60.7c.8 0 1.5.7 1.5 1.5s-.7 1.5-1.5 1.5zm0 39.1H290c-.8 0-1.5-.7-1.5-1.5s.7-1.5 1.5-1.5h60.7c.8 0 1.5.7 1.5 1.5 0 .9-.7 1.5-1.5 1.5zm-32 12.2H290c-.8 0-1.5-.7-1.5-1.5s.7-1.5 1.5-1.5h28.7c.8 0 1.5.7 1.5 1.5s-.7 1.5-1.5 1.5zm32 12.2H290c-.8 0-1.5-.7-1.5-1.5s.7-1.5 1.5-1.5h60.7c.8 0 1.5.7 1.5 1.5s-.7 1.5-1.5 1.5z" fill="#d9eaff"/><path fill="#3164bc" d="M82.9 88.9H90v29.8h-7.1z"/><path class="st201" d="M77.4 88.9h5.5v29.8h-5.5z"/><path class="st201" d="M76.4 94.4h5.5v24.2h-5.5z"/><path class="st3" d="M489.8 305.6c-.8 1-2.3 1.1-3.3.2l-6.3-5.5c-1-.8-1.1-2.3-.2-3.3.8-1 2.3-1.1 3.3-.2l6.3 5.5c1 .8 1.1 2.3.2 3.3zm-3.5 7.9c0 1.3-1.1 2.4-2.4 2.4h-8.4c-1.3 0-2.3-1.1-2.3-2.4 0-1.3 1.1-2.3 2.3-2.3h8.4c1.4 0 2.4 1 2.4 2.3zm12-10.4c-1.3 0-2.4-1.1-2.4-2.4v-8.4c0-1.3 1.1-2.3 2.3-2.3 1.3 0 2.3 1.1 2.3 2.3v8.4c.1 1.4-1 2.4-2.2 2.4z"/><path class="st202" d="M518.9 206h-23.5c-1.1 0-2-.9-2-2s.9-2 2-2h23.5c1.1 0 2 .9 2 2s-.9 2-2 2zm0 5.9h-23.5c-1.1 0-2-.9-2-2s.9-2 2-2h23.5c1.1 0 2 .9 2 2s-.9 2-2 2zM518.9 223.6h-23.5c-1.1 0-2-.9-2-2s.9-2 2-2h23.5c1.1 0 2 .9 2 2s-.9 2-2 2zm0 5.9h-23.5c-1.1 0-2-.9-2-2s.9-2 2-2h23.5c1.1 0 2 .9 2 2s-.9 2-2 2zM518.9 242.6h-23.5c-1.1 0-2-.9-2-2s.9-2 2-2h23.5c1.1 0 2 .9 2 2s-.9 2-2 2zm0 5.9h-23.5c-1.1 0-2-.9-2-2s.9-2 2-2h23.5c1.1 0 2 .9 2 2s-.9 2-2 2z"/><path d="M506.2 148.1h-10.6c-.7 0-1.2-.5-1.2-1.2s.5-1.2 1.2-1.2h10.6c.7 0 1.2.5 1.2 1.2s-.6 1.2-1.2 1.2z" fill="#5da5f7"/><circle class="st197" cx="500.9" cy="173.8" r="4.6"/><circle cx="501.3" cy="261.6" r="4.6" fill="#1c509b"/><path class="st205" d="M550.5 296.6c.3 1.5.3 3.1-.1 4.6-.2.8-.5 1.5-.7 2.2-.2.7-.4 1.5-.5 2.3-.3 1.5-.8 3-1.5 4.4-.7 1.4-1.8 2.6-3 3.6l-.1-.1c.7-1.4 1.5-2.7 2.1-4 .7-1.3 1.3-2.7 2-4.1.3-.7.6-1.4.7-2.2.1-.8.1-1.5.2-2.3.2-1.4.5-2.9.9-4.4zM550 303.9c.4-.7 1.1-1.1 1.7-1.3.4-.1.7-.1 1.1-.2.3-.1.7-.3 1-.5.6-.4 1.3-.7 2-.8.7-.1 1.5-.1 2.2.2v.1c-.7.4-1.3.6-2 .7-.7.1-1.3.3-2.1.3-.4 0-.7.1-1 .3l-.9.6c-.5.4-1.2.6-2 .6z"/><path class="st205" d="M546.8 310.6c.7-.7 1.6-1 2.5-1 .4 0 .9.1 1.3.2.4 0 .9 0 1.3-.1s.9-.1 1.3 0c.4 0 .9.1 1.3.2.8.2 1.7.6 2.3 1.2v.1c-.9 0-1.7-.1-2.6-.3l-2.4-.6c-.4-.1-.8-.2-1.3-.1-.4 0-.8.2-1.2.3-.7.1-1.5.2-2.5.1z"/><path class="st88" d="M94.5 265.8c1.4 3.9 2.8 7.8 4.4 11.6.7 1.9 1.6 3.8 2.5 5.7.5.9 1 1.8 1.6 2.6.3.4.6.9.9 1.3l1 1.2c1.3 1.6 2.8 3 4.1 4.6 1.4 1.6 2.7 3.2 3.9 4.9 2.4 3.4 4.5 7.1 5.9 11h-.1c-2-3.6-4.3-7.1-6.7-10.4-1.2-1.7-2.4-3.3-3.7-4.9-1.3-1.6-2.7-3.2-3.9-4.9-1.2-1.7-2.2-3.5-3.3-5.3-1-1.8-2.1-3.6-3-5.5-.9-1.9-1.6-3.8-2.2-5.8-.6-2-1.1-4-1.4-6.1z"/><path class="st88" d="M102.6 285.5c.2-.8.5-1.5.9-2.2.2-.3.5-.6.7-1 .2-.4.3-.7.3-1.1 0-.8.1-1.6.2-2.3.1-.8.2-1.5.4-2.3h.1c.4.7.6 1.6.6 2.4-.1.8-.3 1.7-.7 2.4-.2.4-.4.7-.5 1.1-.1.4-.1.8-.3 1.2-.3.7-.8 1.4-1.7 1.8zM94.5 294.6c1.3-.2 2.6-.2 3.9 0 .6.1 1.3.3 1.9.3.6.1 1.3 0 1.9-.1.6-.1 1.3-.2 1.9-.2.6-.1 1.3-.1 1.9-.1 1.3 0 2.5 0 3.9.1v.1c-1.2.5-2.5.7-3.8.8-1.3.1-2.6 0-3.9-.2-.6-.1-1.3-.2-1.9-.1-.6 0-1.3.1-1.9.2-1.4 0-2.7-.3-3.9-.8z"/></svg>