<svg version="1.1" id="OBJECTS" xmlns="http://www.w3.org/2000/svg" xmlns:xlink="http://www.w3.org/1999/xlink" x="0" y="0" viewBox="0 0 595 390" xml:space="preserve"><style>.st1,.st2{fill:#fff;stroke:#adbbf9;stroke-width:.9136;stroke-linejoin:round;stroke-miterlimit:10}.st2{fill:none}.st3{fill:#e4e9f9}.st4{fill:#fff}.st5{fill:#adbbf9}.st6{fill:#849cf4}.st7{fill:none;stroke:#4643bf;stroke-width:.9136;stroke-miterlimit:10}.st11{fill:#d3dbf4}.st12{fill:none;stroke:#fff;stroke-width:.9136;stroke-miterlimit:10}.st13{fill:#e3eafc}.st14{fill:#f0f1ff}.st15{fill:#c2cfef}.st18{fill:#ffcbbd}.st19{fill:#f7471e}.st20{fill:none;stroke:#b22b19;stroke-width:.6852;stroke-miterlimit:10}.st21{fill:#0e32ae}.st22{fill:none;stroke:#121649;stroke-width:.6852;stroke-miterlimit:10}.st23{fill:#ffcbbb}.st24{fill:none;stroke:#ef977f;stroke-width:.9136;stroke-miterlimit:10}.st25{fill:#4a1a1a}.st27{fill:#212237}.st28{fill:none;stroke-miterlimit:10;stroke-linecap:round;stroke-linejoin:round;stroke:#212237;stroke-width:.4568}.st31{fill:#18277a}.st33{fill:none;stroke:#e88872;stroke-width:.4568;stroke-linejoin:round;stroke-miterlimit:10}.st34{fill:#28364c}.st36,.st38,.st42{fill:none;stroke:#525bce;stroke-width:.6852;stroke-miterlimit:10}.st38,.st42{stroke:#0e32ae;stroke-width:.9136}.st42{stroke:#5565aa;stroke-width:.6852}.st49{fill:#4147c8}.st53{fill:#2bc0e4}</style><path d="M262.1 282.2c-4.8-16.6-18.5-29.4-36.2-29.8-10.3-.3-20.3 4.2-29.1 9.2-11.9 6.8-25.8 15.1-40 13-9-1.3-19.8-6.4-22-17-2.3-11.1 6.8-18.8 16.3-23.3 8.2-3.8 19.8-13.1 23.6-21.8 14.7-34.9-26.4-74.7-14.8-114.4 12.1-41.6 68.4-48.7 96.6-20.4 2.7 2.7 5.2 5.6 7.6 8.7 5.8 7.7 9.1 18.1 17.2 23.8 10.4 7.4 23.8 5 35 .6 21.4-8.4 27-14 47.9-23.1 15.1-6.6 33.5-12.4 50.4-6.6 12 4.2 25.5 11.7 32.2 22.5 12.6 20.2 6.9 41.9 26.8 70.5 9 13 23.4 16.6 34.8 26 29.6 24.3 19.7 75.6-12.6 93.1-26.5 14.4-59.1 11.1-87.8 7.4-2.2-.3-4.4-.5-6.6-.9" fill="none" stroke="#adbbf9" stroke-width=".914" stroke-linejoin="round" stroke-miterlimit="10" stroke-dasharray="3.1977,3.1977"/><path class="st1" d="M172 125.7c0-.5-.1-1.2-.2-1.7-.5-5.2-4.1-4.7-6.3-4.6s-4.9.3-6-2.2c-.5-1-.5-2.3-.7-3.5-.6-2.6-2.9-4-5-4s-4.1 1.2-5.9 2.7c-.9.8-1.9 1.7-3 1.4-.7-.2-1.3-.8-1.6-1.6-2.6-4.1-2.6-10-5.3-14-3-4.3-8.8-4.4-12.6-1.3-3.8 3.1-6.1 8.6-7.1 14.1-.4 1.8-.6 3.8-1.7 5-1.6 1.7-4 1.2-6.2.9-2.5-.3-5.1.1-7.1 1.9-1.6 1.5-2.7 4-2.5 6.5H172v.4zM314.8 36H385s-2.8-3.3-6-4.4c-4-1.4-5.7 2.6-8.2-2.6-1.5-2.8-2.4-6.7-6.1-7.6-5.8-1.6-7.3 3.3-10.1 2-2.5-1.2-2.4-5.8-4.8-9.6-2.4-3.7-8.3-6-12.3-4.1-7.3 3.6-6.4 9.2-8.8 11.1-2.4 1.8-7.8-4.7-13.9 2.4-4.2 4.9 0 12.8 0 12.8z"/><path class="st2" d="M388.1 11.9c0 1.7-1.4 3.1-3.1 3.1-1.7 0-3.1-1.4-3.1-3.1s1.4-3.1 3.1-3.1c1.7 0 3.1 1.3 3.1 3.1zm203 248.3c0 1.7-1.4 3.1-3.1 3.1s-3.1-1.4-3.1-3.1c0-1.7 1.4-3.1 3.1-3.1s3.1 1.3 3.1 3.1zM444 132.5c0 1.7-1.4 3.1-3.1 3.1s-3.1-1.4-3.1-3.1c0-1.7 1.4-3.1 3.1-3.1s3.1 1.4 3.1 3.1zM63 169c0 1.7-1.4 3.1-3.1 3.1s-3.1-1.4-3.1-3.1c0-1.7 1.4-3.1 3.1-3.1 1.7.1 3.1 1.4 3.1 3.1zM188.6 53.5c0 1.7-1.4 3.1-3.1 3.1-1.7 0-3.1-1.4-3.1-3.1s1.4-3.1 3.1-3.1c1.7.1 3.1 1.4 3.1 3.1zm377.5 134.3c0 1.2-.9 2.1-2.1 2.1s-2.1-.9-2.1-2.1c0-1.2.9-2.1 2.1-2.1s2.1.9 2.1 2.1z"/><circle class="st2" cx="414.1" cy="118.4" r="2.1"/><path class="st2" d="M498.5 65.7c0 1.2-.9 2.1-2.1 2.1s-2.1-.9-2.1-2.1.9-2.1 2.1-2.1 2.1 1 2.1 2.1zM494 219.2c0 1.2-.9 2.1-2.1 2.1-1.2 0-2.1-.9-2.1-2.1 0-1.2.9-2.1 2.1-2.1 1.2 0 2.1.9 2.1 2.1zm-324.9 20c0 1.2-.9 2.1-2.1 2.1-1.2 0-2.1-.9-2.1-2.1 0-1.2.9-2.1 2.1-2.1 1.1.1 2.1 1 2.1 2.1zm6.2-95.7c0 1.2-.9 2.1-2.1 2.1-1.2 0-2.1-.9-2.1-2.1 0-1.2.9-2.1 2.1-2.1 1.2 0 2.1 1 2.1 2.1z"/><path class="st3" d="M578.9 157.8h-2.6c-.5 0-1-.5-1-1v-2.6c0-.5.5-1 1-1h2.6c.5 0 1 .5 1 1v2.6c0 .6-.4 1-1 1zm-431.2 96.4h-2.6c-.5 0-1-.5-1-1v-2.6c0-.5.5-1 1-1h2.6c.5 0 1 .5 1 1v2.6c0 .6-.4 1-1 1zm-4.8-170.6h-2.6c-.5 0-1-.5-1-1V80c0-.5.5-1 1-1h2.6c.5 0 1 .5 1 1v2.6c-.1.6-.5 1-1 1zm359.8-33.1h-5c-1.1 0-1.9-.8-1.9-1.9v-5c0-1.1.8-1.9 1.9-1.9h5c1.1 0 1.9.8 1.9 1.9v5c0 1.1-.8 1.9-1.9 1.9zm-50.1 134.3H450c-.5 0-1-.5-1-1v-2.6c0-.5.5-1 1-1h2.6c.5 0 1 .5 1 1v2.6c0 .5-.5 1-1 1z"/><path class="st1" d="M388.9 151.5c0-.4.1-.8.1-1.3.5-3.7 3.4-3.4 5.2-3.3 1.8.1 4.1.2 4.9-1.6.4-.7.4-1.6.6-2.5.5-1.8 2.4-2.9 4.1-2.9s3.4.9 4.8 1.9c4.7 3.6 6-5.8 8.2-8.5 2.5-3 7.2-4.7 10.3-2.6 3.2 2.2 5 6.2 5.8 10.1.3 1.3.4 2.9 1.5 3.6 3.1 2.1 7-2 10.8 1.2 1.3 1.1 1.6 3.7 1.4 5.6h-57.8v.3z"/><path class="st4" d="M159.1 342.1c-10.5-15.8-32.3-55.6-13.3-69.4 10.4-7.6 24.2-.6 30.9 16 6.3 15.8 8.8 34.4 11.4 53.2"/><path class="st5" d="M159.3 342c-4.9-7.6-9.4-15.5-13.1-23.8-4.1-9.1-7.9-19.2-7.6-29.3.2-9.1 5.8-18.4 15.8-18.8 12.5-.4 19.9 12.6 23.5 22.7 5.6 15.8 7.6 32.7 9.9 49.2.1.5.7.3.6-.2-2.3-16-4.2-32.3-9.4-47.7-3.5-10.3-9.9-22.8-21.8-24.6-8.8-1.3-16.4 5.1-18.4 13.4-2.4 9.7.9 20.3 4.4 29.2 4.1 10.6 9.6 20.6 15.9 30-.1.5.4.2.2-.1z"/><path class="st2" d="M151.1 270.5l24.6 71.7"/><path class="st4" d="M117.2 342.1c-9-11.7-28.8-41.2-12.4-51.3 8.9-5.6 20.1-.5 25.8 11.8 5.5 11.7 7.6 25.5 9.9 39.3"/><path class="st5" d="M117.4 342c-4.2-5.5-8-11.2-11.3-17.3-3.6-6.5-7.1-14-7.2-21.5-.1-7.4 4.9-13.7 12.6-14.2 9.9-.7 16.7 8.4 20.1 16.6 4.7 11.6 6.6 24.2 8.6 36.5.1.5.7.3.6-.2-2-12.3-3.8-24.9-8.6-36.5-3.2-7.9-9-16.1-18.2-17.1-6.8-.7-13.7 3.7-15.3 10.4-1.7 7.1 1.2 14.9 4.2 21.3 3.7 7.9 8.7 15.4 14.1 22.4.2.2.6-.1.4-.4z"/><path class="st2" d="M109.5 289.1l21.2 53.1"/><path class="st1" d="M222.7 342C198 297.2 182 252.7 202 231.6c19.7-20.9 40.4 3.8 45.5 25.8 6.1 26.9 7 56 6.9 84.5"/><path class="st2" d="M209.2 226.2l29.7 115.7"/><path class="st4" d="M185.6 342.1c-9.9-23.7-31.9-71.7-16.3-86.5 9.9-9.5 27.9 2.1 37.2 22.9 8.8 19.7 11.4 40 16.7 63.3"/><path class="st5" d="M185.9 342c-4.7-11.3-9.5-22.5-13.6-34-4.1-11.7-8.2-24.2-8-36.7.1-4.7.8-9.8 3.7-13.6 3.2-4.4 8.3-5.9 13.4-4.7 6.2 1.6 11.4 5.9 15.5 10.7 5.5 6.2 9.1 13.6 12 21.3 6.9 18.3 9.8 37.9 14.1 57 .1.5.8.3.6-.2-4.1-18.2-6.8-36.8-13.1-54.4-4.7-13.1-12.3-28.2-26-34-4.3-1.8-9.3-2.2-13.4.5-3.7 2.4-5.8 6.6-6.8 10.8-2.5 11.7 1.3 24.6 4.7 35.7 4.5 14.3 10.5 28.1 16.3 41.9.2.2.7.1.6-.3z"/><path class="st4" d="M377.1 342c-8.3-95.5 12-130.4 34.1-131.9 10.5-.7 41.3 5.3 4.1 131.8"/><path class="st5" d="M377.3 342c-2-31.4-4.2-64.1 3.9-94.9 3.5-13.3 10.1-30.6 24.5-35.5 5.7-1.9 12.1-1.6 17 2.3 8.5 6.8 9.8 20.1 10.1 30.1.4 11.1-.9 22.4-2.6 33.4-2.6 16.6-6.5 33-11 49.3-1.4 5-2.8 10.1-4.2 15.2-.1.3.4.5.5.1 5.7-18.2 10.2-36.7 13.7-55.3 2.3-12.2 4-24.7 4.2-37.2.2-11.2-.4-26-8.9-34.6-4.1-4.2-9.8-5.7-15.4-4.7-13.9 2.2-21.7 16.2-26 28.3-4 11.2-5.9 23.2-7.1 35.1-1.6 17.5-1.5 35.2-.5 52.8.3 5.3.6 10.6 1.3 15.8.2 0 .5 0 .5-.2z"/><path class="st2" d="M415.6 210.3L396 341.9"/><path class="st4" d="M442.7 342c6.8-56.7 29.7-89.5 50.4-80.5 16.9 7.3 8.2 38.8-18.2 80.5"/><path class="st5" d="M442.8 342c2.6-16.7 5.6-33.2 12-49 4.3-10.4 10-21.6 19.4-28.4 6.4-4.7 15.3-6.3 21.9-1 7.6 6.2 5.5 18.4 3.4 26.7-4.8 18.5-15.1 35.2-24.8 51.6-.2.3.3.5.5.3 5.7-8.5 10.7-17.4 15.2-26.7 3.5-7.1 6.7-14.4 8.9-22.1 2.6-8.5 5.4-20.8-.9-28.5-5-6-14.1-6.5-20.6-3.2-9.7 4.7-16 15.2-20.5 24.6-3.7 7.8-6.6 15.9-8.8 24.2-2.7 10.3-4.9 20.9-5.8 31.5-.1.2.1.2.1 0z"/><path class="st2" d="M493 261.4l-33.7 80.5m-284.7-89.2l30.3 89.5"/><path class="st4" d="M445.2 342.1c13.3-28.3 40.3-93 20-115.9-11.1-12.6-31.6 2.8-42.4 30.7-10.3 26.4-18 53.5-24.4 84.9"/><path class="st5" d="M445.5 342.2c6.9-14.6 13.2-29.7 18.3-45.1 5.3-16.1 10.1-33.7 9-50.8-.7-10.4-5.8-27-19.4-24.7-7.2 1.2-13.3 6.9-17.9 12.3-6.8 8.1-11.1 17.6-14.8 27.5-9.8 26-17 52.9-22.5 80.2-.1.5.5.6.6.2 4.7-23 10.5-45.8 18.2-68.1 3.7-10.5 7.2-21.2 13-30.8 4.4-7.3 10.1-14.6 17.8-18.7 5.8-3.1 12.5-3.1 17.2 2.1 4.4 4.8 6.2 11.5 6.8 17.8 1.7 16.2-2.6 32.8-7.3 48.1-5.3 17-12 33.5-19.6 49.7-.1.4.4.7.6.3z"/><path class="st2" d="M459.3 222.2l-35.8 120"/><path class="st4" d="M468.8 342c17.6-35.7 32.9-45.2 47.3-42.3 11.1 2.2 12.9 18.7-10.7 42.3"/><path class="st5" d="M468.9 342.1c5.5-9.8 10.5-19.8 17.8-28.4 4.5-5.2 9.8-10.1 16.2-12.6 4.6-1.7 10.6-2.5 15.2-.4 5.2 2.3 6 8.2 5 13.2-2.3 11-10.7 19.8-18 27.8-.2.3.1.5.4.4 7.5-6.9 15.1-16.2 17.9-26.3 1.4-4.8 1.6-10.9-2.7-14.3-3.7-3.1-9.9-3-14.4-2-6.5 1.5-12 5.6-16.6 10.2-3.8 3.8-7.1 8.2-10.1 12.8-4.1 6.1-7.9 12.7-10.9 19.5-.1.1.1.3.2.1z"/><path class="st2" d="M514.7 300l-27 42"/><g><path class="st6" d="M250.4 341.9c-4.7 0-8.6-3.8-8.6-8.6v-274c0-4.7 3.8-8.6 8.6-8.6h144.8c4.7 0 8.6 3.8 8.6 8.6v274c0 4.7-3.8 8.6-8.6 8.6H250.4z"/><path class="st6" d="M395.2 51.1c4.5 0 8.1 3.7 8.1 8.1v274c0 4.5-3.7 8.1-8.1 8.1H250.4c-4.5 0-8.1-3.7-8.1-8.1v-274c0-4.5 3.7-8.1 8.1-8.1h144.8m0-.9H250.4c-4.9 0-8.9 4-8.9 8.9v274c0 4.9 4 8.9 8.9 8.9h144.8c4.9 0 8.9-4 8.9-8.9V59.2c.1-5-3.9-9-8.9-9z"/><path class="st7" d="M330.3 328.9c0 4.1-3.3 7.4-7.4 7.4s-7.4-3.3-7.4-7.4 3.3-7.4 7.4-7.4c4-.1 7.4 3.3 7.4 7.4z"/><defs><path id="SVGID_1_" d="M395.2 342.2H250.4c-4.9 0-8.9-4-8.9-8.9v-274c0-4.9 4-8.9 8.9-8.9h144.8c4.9 0 8.9 4 8.9 8.9v274c.1 4.9-3.9 8.9-8.9 8.9z"/></defs><clipPath id="SVGID_2_"><use xlink:href="#SVGID_1_" overflow="visible"/></clipPath><g clip-path="url(#SVGID_2_)"><linearGradient id="SVGID_3_" gradientUnits="userSpaceOnUse" x1="196.114" y1="83.817" x2="440.202" y2="327.905" gradientTransform="matrix(1 0 0 -1 0 390)"><stop offset=".27" stop-color="#fff" stop-opacity=".1"/><stop offset="1" stop-color="#fff" stop-opacity=".3"/></linearGradient><path fill="url(#SVGID_3_)" d="M361.4 18.6l-121.9 331H275l121.7-331z"/><linearGradient id="SVGID_4_" gradientUnits="userSpaceOnUse" x1="237.373" y1="88.929" x2="471.284" y2="322.839" gradientTransform="matrix(1 0 0 -1 0 390)"><stop offset=".27" stop-color="#fff" stop-opacity=".1"/><stop offset="1" stop-color="#fff" stop-opacity=".3"/></linearGradient><path fill="url(#SVGID_4_)" d="M407.7 18.6l-121.8 331H301l121.7-331z"/></g><path class="st4" d="M242.7 77.4h160.2V315H242.7z"/><path class="st7" d="M313.7 62.3h22.5c.5 0 .9.4.9.9s-.4.9-.9.9h-22.5c-.5 0-.9-.4-.9-.9-.1-.4.4-.9.9-.9z"/><circle class="st7" cx="308.6" cy="63.3" r=".9"/><g><path class="st11" d="M253.7 169.4h69.1v69.8h-69.1z"/><circle transform="rotate(-71.616 288.219 194.302)" class="st12" cx="288.2" cy="194.3" r="14.3"/><ellipse class="st12" cx="288.3" cy="194.3" rx="9.9" ry="14.3"/><ellipse class="st12" cx="288.3" cy="194.3" rx="3.8" ry="14.3"/><path class="st12" d="M274 194.3h28.5m-27.1 6.4c2.7-.9 7.5-1.6 12.8-1.6 5.4 0 10 .6 12.8 1.6m-21.4 5c2.5-.9 5.5-1.5 8.7-1.5s6.1.5 8.6 1.5M275.4 188c2.7.9 7.5 1.6 12.8 1.6 5.4 0 10-.6 12.8-1.6m-21.4-5c2.5.9 5.5 1.5 8.7 1.5s6.1-.5 8.6-1.5"/><path class="st13" d="M259.5 223.1h57.4v3.7h-57.4zm23.1-6.8h34.3v3.7h-34.3zm-23.1-.1h19.2v3.7h-19.2zm0 13.8h57.4v3.7h-57.4z"/><path class="st14" d="M322.7 169.4h69.1v69.8h-69.1z"/><path class="st3" d="M328.6 181.9H386v3.7h-57.4zm0 6.9H386v3.7h-57.4zm0 6.9h17.9v3.7h-17.9zm22.6 0h34.7v3.7h-34.7zm-22.6 6.8H386v3.7h-57.4zm0 6.9H386v3.7h-57.4zm0 6.9H386v3.7h-57.4zm40.8 6.8H386v3.7h-16.6zm-40.8 0h36.9v3.7h-36.9zm0 6.9H386v3.7h-57.4zm42.2-55H386v3.7h-15.2zm-42.2.1h38.2v3.7h-38.2z"/><path class="st14" d="M253.7 239.3h69.1v69.8h-69.1z"/><path class="st3" d="M259.5 293h57.4v3.7h-57.4zm0-6.8h57.4v3.7h-57.4zm42.7-6.9H317v3.7h-14.8zm-42.6 0h37.8v3.7h-37.8zm-.1-6.9h57.4v3.7h-57.4zm0-6.9h57.4v3.7h-57.4zm0-6.8h57.4v3.7h-57.4zm0-6.9h26.7v3.7h-26.7zm30.7 0h26.7v3.7h-26.7zm-30.7-6.9h57.4v3.7h-57.4zm0 55h26.7v3.7h-26.7zm30.7.1h26.7v3.7h-26.7z"/><path class="st11" d="M322.7 239.3h69.1v69.8h-69.1z"/><path class="st15" d="M371.4 287.4l-27.8-.3-3.1-19.9 33.6-.1z"/><path class="st15" d="M374.1 267.1l-33.6.1 16.8-13.9z"/><path transform="translate(-.483 .63)" class="st4" d="M345.6 265.2h22.9v19.4h-22.9z"/><path class="st13" d="M340.5 267.2l.1 21.7 16.7-10.1zm33.6-.1v21.8l-16.8-10.1z"/><path class="st13" d="M374.1 288.9h-33.5l16.7-13.8z"/><path d="M340.6 288.9l16.7-13.8 16.8 13.8m-14.3-11.8l14.3-10m-19.2 10l-14.4-9.9" fill="none" stroke="#d3dbf4" stroke-width=".914" stroke-miterlimit="10"/><path class="st13" d="M343.9 297.3h26.7v3.7h-26.7z"/><g><path class="st11" d="M253.7 93.6H392v69.7H253.7z"/><path class="st13" d="M320.8 103.5H386v4.8h-65.2zm0 9H386v4.8h-65.2zm0 9H386v4.8h-65.2zm0 9H386v4.8h-65.2zm0 17.9H386v4.8h-65.2zm26.3-9H386v4.8h-38.9zm-26.2.1h21.8v4.8h-21.8zM261.6 103.8h49.3v49.3h-49.3z"/><path class="st4" d="M290.8 119.2l15 25.6h-30zm-15.2 8.4l3.2 6.1-5.8 11.1h-6.3zm-7.7-9.9c0 1.6 1.3 2.7 2.7 2.7 1.6 0 2.7-1.3 2.7-2.7 0-1.6-1.3-2.7-2.7-2.7-1.4-.1-2.7 1.2-2.7 2.7z"/></g><path class="st11" d="M283.8 87.8h78c1.2 0 2.2-1 2.2-2.2 0-1.2-1-2.2-2.2-2.2h-78c-1.2 0-2.2 1-2.2 2.2 0 1.3 1 2.2 2.2 2.2z"/><path class="st12" d="M322.8 169.4v139.8m-69.1-69.9H392"/></g></g><path fill="none" stroke="#849cf4" stroke-width=".914" stroke-miterlimit="10" d="M90.3 342.2h465"/><g><path class="st18" d="M529.7 319l1.5 23.8-.7 7.5-28.4-.2c-.7 0-1.3-.5-1.3-1.3 0-.5.4-1 .8-1.2l12.7-5.8-2.8-24.7"/><path class="st19" d="M499.4 349.9c.3-.9.8-2 1.4-2.2l13.4-5.8c7.4 3 17 .7 17 .7l.7 10.1c0 .4-.3.6-.6.6l-31.7-.2c-.6 0-.2-3.2-.2-3.2z"/><path class="st20" d="M511.3 342.4c.7 1 1.4 2 1.9 3.2m-3.6-2.2c.8 1.1 1.1 1.7 1.6 2.7m-3-2c.5.7 1 1.7 1.5 2.5m22 4.5l-32.5-.2m32.3-4.7s-7.5.1-8.2 4.7m-19.8-4.5s2.2 3.1 2.6 4.5"/><path class="st21" d="M507.4 227.6s-4.1 33.5-2.6 57.8c1.6 24.3 3.8 52.6 3.8 52.6h24.6s-3.2-41.8-2.8-61.3c.4-21.6 7-49 7-49"/><path class="st22" d="M528.4 337.9s-3.2-41.8-2.8-61.3c.4-21.6 7-49 7-49"/><path class="st18" d="M562.1 287.2l22.9 7.4 6.9 3-8.8 27c-.2.6-.9 1.1-1.6.8-.5-.2-.9-.6-.9-1.2l-1.7-13.8-23.7-7.8"/><path class="st19" d="M582 326.9c-.8-.5-1.6-1.4-1.7-2l-1.5-14.5c5.1-6.1 5.8-16 5.8-16l9.9 2.4c.3.1.5.5.4.7l-9.8 30.2c-.1.6-3-.8-3.1-.8z"/><path class="st20" d="M578.6 313.3c1.2-.5 2.4-.7 3.6-.8m-3.2 2.7c1.3-.5 1.9-.5 3-.6m-2.7 2.1c.8-.3 1.9-.5 2.8-.6m10.9-19.7l-10 30.9m5.3-32.1s-2.2 7.2 2.1 9.3M580 321.9s3.6-1.1 5.1-1.1"/><path class="st21" d="M547.5 228.7s2.2 9.5 2.2 13.6c0 3-1.2 5-1.8 7.2-.3.9-.5 1.9-.5 2.9-.2 4.4-.5 16.7 2.3 22.5 3.4 7.2 31.4 16.7 31.4 16.7l-7.1 21.5s-42.9-10.8-48.3-23.9c-7.5-18.3-5.3-60.4-5.3-60.4"/><path class="st22" d="M530.9 295.2c-2.5-1.9-4.3-4-5.2-6.1-7.5-18.3-5.3-60.4-5.3-60.4m23.5-.9s2.6 12 2.6 16.1c0 3-1.3 5.2-1.8 7.4-.3.9-.4 1.7-.5 2.6-.3 4.3-.7 16.9 2.3 22.6 4.3 7.9 33.6 18.4 33.6 18.4"/><path class="st22" d="M516.9 230.9s-.4 8.7.8 9.7 2.4 1.7 2.4 1.7m57.5 48.1l-7.8 21.4m-61.4 21.9H533m4.1-104.4s1.6 5.5 8.4 7.1m-38.9-.9s6.2-1.8 8.1-6.2"/><path class="st23" d="M521.5 162.5l-1.1 7.8s-.1 2.2 4.1 3.7c5.1 1.8 8.1-2.1 8.1-2.1l-.4-7.9"/><path class="st23" d="M520.9 152.2s-5.4 8.9-1.6 12.6c3.4 3.3 10.9 1.2 11.5.1.6-1.1 4.9-11.2 2.6-12.6-4.1-2.4-10.2-4-12.5-.1z"/><path class="st24" d="M521 166.5s3.7 1.2 7-.3"/><path class="st25" d="M520 146.3c.7-5.3 7.1-1.4 9.8 1.1.8.7 5.4 2.1 6.1 2.8.7.7 1.4 1.7 1.6 2.7.2.9 0 1.9-.2 2.8-.4 1.6-1 3.2-1.7 4.7-.7 1.7-1.9 5.1-4.4 4.7-.5-.1-1-.2-1.3-.5-.3-.4-.4-.9-.3-1.4.1-.7.3-1.5.6-2.2-.5.1-1 .5-1.5.3-.2-.1-.3-.2-.4-.4-.3-.5.1-3.9 1.6-5.3-2.3-1.1-4.1-1.2-6.5-2.2-1.9-.8-2.7-1.7-3.4-2.6-.7-1.1-.2-2.8 0-4.5z"/><path class="st23" d="M529.7 161c.5-.8 1.5-1.7 2.4-.9.3.3.4.8.5 1.3.1 1.6-1.6 3.7-2.9 3.1-.7-.3-.9-1.2-1-2"/><path d="M522.1 156.2s-2.4 2.3-2.4 3.1 1.7 1.3 1.7 1.3" fill="none" stroke="#f7a794" stroke-width=".457" stroke-miterlimit="10"/><path class="st4" d="M518.9 160.7l4.2 1.6s-1 2.5-3.5 1.4c-1.8-.9-.7-3-.7-3z"/><path class="st27" d="M520.3 154.9c-.1.2-.3.4-.4.5-.2.4.4.7.5.4.1-.2.2-.5.3-.6.3-.4-.2-.6-.4-.3z"/><path class="st28" d="M522.2 154.1s-.5-1.2-1.7-.6"/><path class="st27" d="M525.5 157.4c-.1.2-.2.4-.3.5-.2.4.4.7.5.4.1-.2.2-.5.3-.7.2-.3-.3-.5-.5-.2z"/><path class="st28" d="M525.7 155.5s1.3-.2 2.2 1.6"/><g><path class="st18" d="M503.5 128.5c-.4-4.5.3-17.3-.5-17.6s-1.1 4-1.7 3.6c-.6-.4-.5-7.1-1.5-7.2-1.2-.2-.9 6.7-.9 6.7s-.7-7.5-1.8-7.3c-.7.1-.5 5.8-.6 8-.1-2.4-.8-6.9-1.6-6.8-.8.1-.6 4.7-.7 7.7-.1-1.9-.5-6-1.3-5.9-.7.1-.9 10.8-1 19.7"/><path class="st18" d="M502.3 173.7s-4.8-10.1-7.9-22c-3-11.9-2.5-27.2-2.5-27.2l11.4 1.9s.5 21.5 13.5 42.7"/><path d="M494.3 116c.9 1.5 2.2 3.1 2.1 5.9m4.8-6.3c-1.1 1-2.3 3.6-1.7 4.9" stroke="#f7a794" stroke-width=".914" fill="none" stroke-miterlimit="10"/><path class="st5" d="M540.1 126.3c1.6-1.9 3.1-4.1 4.4-6.5 1.2-2.4 2.1-4.8 2.7-7.3l-6.8-2.3c.5-2.3.6-4.7.5-7l7-1.2c-.5-5.2-2.1-10.3-4.8-14.8l-6.4 3.2c-1.3-1.9-2.7-3.7-4.6-5.4l4.1-5.8c-1.9-1.6-4.1-3.1-6.5-4.4-2.4-1.2-4.8-2.1-7.3-2.7l-2.3 6.8c-2.3-.5-4.7-.6-7-.5l-1.2-7c-5.2.5-10.3 2.1-14.8 4.8l3.2 6.4c-1.9 1.3-3.7 2.7-5.4 4.6l-5.8-4.1c-1.6 1.9-3.1 4.1-4.4 6.5-1.2 2.4-2.1 4.8-2.7 7.3l6.8 2.3c-.5 2.3-.6 4.7-.5 7l-7 1.2c.5 5.2 2.1 10.3 4.8 14.8l6.4-3.2c1.3 1.9 2.7 3.7 4.6 5.4l-4.1 5.8c1.9 1.6 4.1 3.1 6.5 4.4 2.4 1.2 4.8 2.1 7.3 2.7l2.3-6.8c2.3.5 4.7.6 7 .5l1.2 7c5.2-.5 10.3-2.1 14.8-4.8l-3.2-6.4c1.9-1.3 3.7-2.7 5.4-4.6l5.8 4.1zm-31.3-10.2c-6.3-3.2-8.9-11-5.6-17.3 3.2-6.3 11-8.9 17.3-5.6 6.3 3.2 8.9 11 5.6 17.3-3.2 6.2-10.9 8.8-17.3 5.6z"/><path class="st19" d="M520.6 169.1c-3.4 0-8.7-10.9-8.7-10.9l-13.6 10.1s4.4 13.5 11.7 22.1"/><path class="st20" d="M513 160.5l-13.9 10.4"/><path class="st18" d="M555.7 123c-.7-4.9-2.6-16.6-3.5-16.9-.8-.2-1.2 2.6-.8 3.7-.5-2.1-2-6.8-2.9-6.8-1.2 0 .3 6.8.3 6.8s-2-7.2-3-6.9c-.7.3.5 5.8.8 8-.5-2.4-2-6.7-2.8-6.4-.7.3.2 4.7.6 7.7-.5-1.8-1.6-5.8-2.3-5.6-.7.2 1.1 9.4 2.2 18.5"/><path class="st18" d="M553.4 169.7s3-10.9 3.9-23c.9-12.1-2.3-27.2-2.3-27.2l-10.9 3.8s3.2 21.2-5.8 44.5"/><path class="st19" d="M520.6 169.1s.6 1.9 4.4 2.1c4.8.3 7.5-2.1 7.5-2.1s14.4 1.9 15.5 17.6c1.4 18.1 1.7 43.5 1.7 43.5h-44.9s.3-29 1.3-42.9c.9-13.1 14.5-18.2 14.5-18.2z"/><path class="st19" d="M548 188.8c5.4-14.1 7.3-24.8 7.3-24.8l-14.4-6.9s-3.5 9.6-8.5 12.1"/><path class="st20" d="M539.8 159.7l14.9 7.2m-49.8 60.9h44.8m-1.3-40s-1.8 3.9-2 5.8m-36.9-16.1s-2.7 4.7-3.3 10m12.7-19.1s.7 5.2 6.6 5.2c7.2 0 8.6-5.2 8.6-5.2"/><path d="M551.5 109.9c0-.1 0 .1 0 0l.2.3.2.4c.1.3.2.5.3.8.2.5.4 1.1.4 1.7-.4-.5-.5-1.1-.7-1.6-.1-.3-.2-.5-.2-.8l-.1-.5v-.3h-.1c-.1 0 0-.1 0 0z" fill="#ef977f"/></g></g><g><path class="st18" d="M445.2 317.8l.8 24.7-.8 7.8-29.5-.2c-.7 0-1.4-.6-1.4-1.4 0-.5.4-1.1.9-1.3l13.1-6-2-25.7"/><path class="st31" d="M413.1 349.7c.3-1 .9-2.1 1.5-2.3l14-6c7.7 3.1 17.6.7 17.6.7l.7 10.5c0 .4-.3.6-.6.6l-32.9-.2c-.8.1-.3-3.2-.3-3.3z"/><path class="st22" d="M425.5 342c.8 1 1.5 2.1 2 3.3m-3.8-2.3c.8 1.1 1.1 1.7 1.6 2.8m-3.1-1.9c.5.7 1.1 1.7 1.6 2.6m22.9 4.5l-33.7-.2m33.4-4.8s-7.9.1-8.5 4.9m-20.5-4.8s2.3 3.2 2.7 4.7"/><path d="M441.8 220.7s3.6 6 4.7 10.5c1.6 7.1 0 14.5 0 14.5l-.1 86.4h-21.9s-4.8-99.5-2.7-112.4" fill="#0d219b"/><path class="st22" d="M427.9 332.1s-4.8-99.5-2.7-112.4"/><path class="st18" d="M421.1 308l9.9 22.6 2.2 7.5-27.3 10.9c-.7.3-1.5-.1-1.7-.7-.2-.5-.1-1.1.4-1.5l9.9-10.5-11.5-23.2"/><path class="st21" d="M403.2 349.7c-.1-1 .1-2.3.5-2.7l10.7-10.8c8.3 0 16.6-5.8 16.6-5.8l4.7 9.5c.1.4 0 .7-.4.8l-30.6 12.1c-.7.2-1.5-3.1-1.5-3.1z"/><path class="st22" d="M411.8 337.9c1.1.6 2.1 1.5 3 2.4m-4.2-.7c1.2.7 1.7 1.2 2.6 2m-3.7-.8c.8.5 1.6 1.2 2.4 1.8m22.9-4.3l-31.3 12.4m29.2-16.9s-7.2 2.9-6 7.8m-20.8 3.2s3.3 2.1 4.2 3.3"/><path class="st21" d="M404.1 234.8c-11.2 27.6-11.4 30.5-13.3 44-1.9 13.8 18.9 54.5 18.9 54.5l19.9-8.8s-13.2-37.2-12.3-43.6c1.6-11.8 15.2-31.9 15.2-31.9s6.5-5.1 7.9-11.9-1.6-13.9-1.6-13.9"/><path class="st22" d="M424.7 238c.3-.1 8.9-2.8 8.9-2.8m10.1-2.5l2.9-.9m-35.8 2.2s-13.9 30.2-15.8 44c-1.9 13.8 18.3 53.4 18.3 53.4m8.6-63.9c4.3-9.5 10.6-18.6 10.6-18.6s6.5-5.1 7.9-11.9"/><g><path class="st18" d="M402.2 166.4l5.8 9.9s-3.5 7.4-12.7 3.9l-2.4-5.3 9.3-8.5z"/><path class="st18" d="M387.1 159.7s-2.8 13.2 2.1 15.6c2.6 1.2 9.7.5 11.3-2.3 1.3-2 .7-11.6-.7-12.7-5.9-4.4-12.7-.6-12.7-.6z"/><path class="st27" d="M399.5 155.8c-2.1-3.7-6.5-3-13.6 1-.9.5-3 .7-3 1.8 0 1.5 1 3.8 2.6 4.3 1.1.3 1.7.2 2.8-.1 1.5-.4 3.5.3 3.5 2 0 .5-.2 1.3.3 1.5.2.1.7 0 1 0 .6 0 1 .8.9 1.5-.1.6.4 1.1.3 1.8-.2 1.6 1.8 3.3 3.4 3.4 1.4.1 5.5-.5 7.4-3.2 1.6-2.3 1.5-6.1-1.4-11.8-1.1-2.1-3.5-2.7-4.2-2.2z"/><path class="st18" d="M391.6 166.9c.5-2.1 1.6-2.4 2.5-1.8 1.3.7 1 3.8.5 4.5-.9 1.5-2.1 1.9-2.7.9"/><path class="st33" d="M393.4 175.8c1.5-1.2 1.3-3.6 1.3-3.6"/><path class="st34" d="M387.5 166c-.2.5-.3 1.1.1 1.5.1.1.3.1.4 0 .7-.5-.1-2.5-.5-1.5z"/><path d="M386.9 164.6c.5-.1 1.6 0 2.2.5" fill="none" stroke="#28364c" stroke-width=".685" stroke-miterlimit="10"/><path class="st4" d="M389.3 170.9l-2.1-.1s-.1 2.6.9 2.6c1.1.1 1.2-2.5 1.2-2.5z"/></g><g><path class="st5" d="M406.7 174.1s5-1.3 12 .8c5.9 1.7 13.5 6.2 19.2 12.2 9.9 10.5 5.3 36.5 5.3 36.5l-12.8-.5s2-16.7-4.7-23.5c-6.8-6.8-16.2-8.3-16.2-8.3"/><path class="st18" d="M352.3 210.7c-4 1.1-16.2 2.5-16.3 3.3-.2.8 4.1.5 3.8 1.1s-6.8 1.7-6.8 2.6c0 1.2 6.7-.3 6.7-.3s-2.7.5-2.5 1.6c.3.7 1.4.9 3.6.7-1.2.3-1.6.8-1.4 1.6.3.7 1.5.7 2.6.5-.8.2-1.5.7-.9 1.3.7.6 5.7.4 14.5-1.1"/><path class="st5" d="M394 177.4s3.5 1.5 7.2 0c3.8-1.5 5.5-3.3 5.5-3.3s8.6-.5 19.1 9.9c10.6 10.6 18.8 40.6 18.8 40.6l-43.5 14.6s-7.4-26.3-10.3-38.2c-2.9-12 3.2-23.6 3.2-23.6z"/><path class="st36" d="M425.2 181.2c8.7 10.1 19.4 43.4 19.4 43.4"/><path class="st5" d="M394 177.4c-5.8 2.2-10.6 7.8-13.6 13.4-4.9 9.4-7.9 16.2-7.9 16.2l-24.9 3.7 1.3 13.2s16.9-.5 30.4-2.6c9.6-1.5 17-21.3 17-21.3"/><path class="st36" d="M392.3 178.2s2.7 3.7 9.4 1.2c6.6-2.5 6.8-5.6 6.8-5.6M392.9 207l2.7-5.6m-44.2 8.7l.9 13.7m48.1 12.5l43.3-14.3"/></g></g><g><path class="st18" d="M229.6 200c.2.1.4.3.5.4 1.9 1.2 3.9 2.5 6.1 3.1 1.3.4 2.6.5 3.7 1.4.5.4.8.7 1.3 1 .1.1 1.4.5 1.3.4.2.5.6.6 1.1.8h.2c.1 0 .1-.1.1-.1.2.3.7.5.9.3.2-.2-.3-.9-.3-.9s.3 0 .4-.1c.2-.2.2-.4.2-.6.1-2-.6-4.1-2.1-5.5"/><path d="M243.5 204.2c0 .4.2.7.4 1l.5 1c.1.2.3 0 .3-.1-.2-.6-.6-1.5-1.2-1.9 0-.1 0-.1 0 0zm-2.1.1c.7.8 1.5 1.6 2.1 2.5.1.1.3 0 .2-.1-.3-1.1-1.4-1.7-2.2-2.6-.1-.1-.2 0-.1.2z" fill="#f49c8e"/><path class="st38" d="M227.9 353.3L213.1 202m72.5 151.3L270.8 202h-57.7M256 353.3L270.8 202"/><path class="st38" d="M198.3 353.3L213.1 202h57.7m12.5 129.8h-82.9m80.9-18.5h-79.1m77.6-19H204m74-18.2h-72.1m70.3-18.9h-68.6m66.7-18.8h-64.8m62.7-17.7h-61"/><path class="st18" d="M226.4 201.6h17.8c-.5-1-.9-1.6-1.6-2.3-.8-.7-1.4-1.2-2.2-1.6-2.7-1.4-5.8-2.2-8.9-2.2"/><path d="M205.7 160.8s8.1 21.1 10.1 22.9c2 1.7 21.3 11.3 21.3 11.3l-5.9 12.5s-23.2-9.3-26.6-12.5c-3.3-3.3-13.9-15.8-15-28.4" fill="#e23917"/><path class="st18" d="M190.2 298.8l-.8 22.7.7 7.1h27.1c.6 0 1.3-.5 1.3-1.3 0-.5-.3-1-.8-1.2l-12-5.7 1.9-23.6"/><path class="st19" d="M219.6 328.3c-.3-.9-.8-1.9-1.4-2.1l-12.8-5.6c-7.1 2.8-16.2.6-16.2.6l-.7 9.7c0 .3.3.5.5.5h30.2c.9 0 .4-3.1.4-3.1z"/><path class="st20" d="M208.3 321.2c-.7.9-1.4 1.9-1.8 3m3.5-2.1c-.7 1-1 1.6-1.5 2.6m2.7-1.8c-.5.6-1 1.6-1.4 2.4m-21 4h31m-30.7-4.6s7.2.1 7.9 4.7m18.7-4.3s-2.1 2.9-2.5 4.3"/><path class="st5" d="M184.2 213.4s-2.6 11.6 3 25.6c0 0 2.7 14.7 2.9 31.4.2 17.1-2 38.9-2 47h22.3s2.7-23.2 3-46.6c.3-26.2-1.9-55.7-1.9-63.3"/><path class="st36" d="M207.1 317.4s2.7-23.6 3-47.3c.3-26-1.9-55-1.9-62.6"/><path class="st18" d="M227.9 280.3l-.8 22.7.7 7.1H255c.6 0 1.3-.5 1.3-1.3 0-.5-.3-1-.8-1.2l-12-5.7 1.9-23.6"/><path class="st19" d="M257.3 309.8c-.3-.9-.8-1.9-1.4-2.1l-12.8-5.6c-7.1 2.8-16.2.6-16.2.6l-.7 9.7c0 .3.3.5.5.5H257c.7 0 .3-3 .3-3.1z"/><path class="st20" d="M246 302.7c-.7.9-1.4 1.9-1.8 3m3.4-2c-.7 1-1 1.6-1.5 2.6m2.8-2c-.5.6-1 1.6-1.4 2.4m-21.1 4.1h31m-30.6-4.5s7.2.1 7.9 4.7m18.7-4.5s-2.1 2.9-2.5 4.3"/><path class="st5" d="M221.8 214.7s21.5 20.3 26.2 33.5c3.4 9.2-1.6 51.3-1.6 51.3H225s2.6-38.2 1.3-42.3c-1.6-4.7-19.9-20.4-19.9-20.4s-7.9-1.7-11.5-10c-3.3-7.5-1.8-16.6-1.8-16.6"/><path class="st36" d="M216.8 214.7s22.2 23.5 26.2 33.5c3.1 7.7-1.6 51.3-1.6 51.3M213 242.4c-1.6-1.6-4.6-4.1-5.5-4.9-.5-.5-1.2-.9-1.9-1.1-2.2-.7-7.7-3.3-10.6-9.8m5.8-4.6s6.4.2 9 0m-26.1 0h5.1"/><g><path class="st18" d="M260.1 163.3c2.3-1 12.4-5.5 12.7-4.8.3.6-3 2.7-2.6 2.8.2.1 3.1-.7 4.6-1.4 1.3-.6 3.5-1.5 3.8-.9.6 1-6.5 4.4-6.5 4.4s1.3-.5 1.9.2c.9 1.1-1 2.2-1 2.2s1.1-.5 1.5.4c.4 1-1.3 1.8-1.3 1.8s1.4-.6 1.5.5c.2 1.6-10.4 5.3-10.4 5.3"/><path class="st19" d="M208.4 153s-2.1 1.7-5.6 1.1c-3.4-.5-4.2-2.2-4.2-2.2s-9 1.3-13.4 29.1c-3 19.6-2 35.5-2 35.5h41.3s1.3-42.6-.8-50.6"/><path class="st19" d="M211.7 173.4s12.2 13.5 23.6 13.5c11.4 0 32.9-12.1 32.9-12.1l-5.1-14.1-24.9 8.9s-13.1-12.2-19.2-14.5c-6-2.3-10.5-2.3-10.5-2.3"/><path class="st20" d="M224.8 183.8s-7.7-5.8-11.4-8.6m47.2-13.5l4.8 14.7m-82.3 36.7h41.5m-7.1-34.7c.4 11.9 0 38.2 0 38.2"/></g><g><path class="st18" d="M198.8 145.8l-.9 7.5s7.3 3.8 12-.3v-4.4l-11.1-2.8z"/><path class="st18" d="M208.7 133.9s8.5 10.7 5.4 14.7c-1.6 2.1-6.8 1.6-9.4 0-1.8-1.2-7-7.4-6.3-8.9 3.1-6.1 10.3-5.8 10.3-5.8z"/><path class="st25" d="M207.6 135.9c.2 4.4-.5 8.2-.5 8.2l-.6 14.1s-11.2 1.2-18.3-3.7c0 0 2.4-14.8 7.8-19.3 5.1-4.3 11.7-3.9 15.1-1.2 0 0-.5 1.3-1.1 1.6-.8.2-2.4.3-2.4.3"/><path class="st18" d="M208.3 142.7c-1-1.3-1.9-1.1-2.4-.4-.6 1 .6 2.9 1.2 3.3 1.2.7 2.1.6 2.2-.4"/><path class="st33" d="M210.1 150c-1.2 0-1.6-1-1.6-1"/><path class="st34" d="M210.9 139.4c.4.3.7.8.5 1.2-.1.1-.2.2-.3.2-.8-.1-1-2.1-.2-1.4z"/><path d="M210.8 137.9c-.8 0-1.3.6-1.6 1.3" fill="none" stroke="#28364c" stroke-width=".457" stroke-linecap="round" stroke-miterlimit="10"/><path class="st4" d="M211.5 145l1.9-.6s.7 2.3-.2 2.6c-.9.2-1.7-2-1.7-2z"/><path class="st25" d="M201.3 132.6c.7-.2 1.3-1 1.3-1.7s-.5-1.5-1.2-1.8c-.6-.4-1.6-.4-2.3-.2-.3.1-.5.2-.8.4-1 .7-.9 2.3-.3 3.3.3.4.6.7 1.2.9.5.1 1.5-.1 2-.4"/></g><path class="st18" d="M211.8 139.3c.2.1 2.5 1.1 2.5 2 0 .5-1.2 1.1-1.2 1.1"/><g><path class="st18" d="M241.2 199.9c1.4 1.5 1.7 2.8 2.3 4 0 .1.1.1.1.2 0 .3-.4.3-.6.2-.5-.2-1.1-.5-1.6-.9l-.5-.5c-.4-.2-.8-.3-1.3-.3-1.8-.2-3.6-1.1-4.5-2.7"/></g><g><path d="M241.2 199.9c.9.8 1.6 1.9 2.1 3.1l.4.8c0 .1.1.2.1.4s-.2.3-.3.3c-.2.1-.4.1-.5 0-.6-.2-1.2-.5-1.6-1-.3-.2-.5-.5-.7-.5-.3-.1-.5-.2-.8-.2-.6-.1-1.3-.2-1.8-.5-1.2-.5-2.3-1.3-2.7-2.5.6 1 1.7 1.7 2.9 2.2.5.2 1.2.4 1.7.4.3 0 .6.1 1 .2.2.1.3.2.5.3l.4.3c.5.4 1 .7 1.6.9.1 0 .3.1.4 0v-.1c-.1-.3-.3-.5-.4-.8-.9-1.3-1.5-2.4-2.3-3.3z" fill="#e88872"/></g></g><g><path class="st18" d="M99.1 319l-.7 23.8.7 7.5 28.4-.2c.7 0 1.3-.5 1.3-1.3 0-.5-.4-1-.8-1.2l-12.7-5.8 1.9-24.7"/><path class="st31" d="M130.2 349.9c-.3-.9-.8-2-1.4-2.2l-13.4-5.8c-7.4 3-17 .7-17 .7l-.7 10.1c0 .4.3.6.6.6l31.7-.2c.6 0 .2-3.2.2-3.2z"/><path class="st42" d="M118.2 342.4c-.7 1-1.4 2-1.9 3.2m3.6-2.2c-.8 1.1-1.1 1.7-1.6 2.7m3-2c-.5.7-1 1.7-1.5 2.5m-22 4.5l32.5-.2m-32.2-4.7s7.5.1 8.2 4.7m19.7-4.5s-2.2 3.1-2.6 4.5"/><path class="st5" d="M101.8 233.9s15.1 28.3 19.9 46c4.7 17.8-1.6 57.8-1.6 57.8H96.6s4.7-43.5-.8-57.8c-5.6-14.3-25.4-52.1-25.4-52.1"/><path class="st36" d="M99.8 337.7s3.8-45.2 1.6-56.4c-2.4-11.1-18.5-37.2-18.5-37.2"/><path class="st18" d="M72.3 305.8l-13.9 19.1-3.8 6.6 23 16.6c.5.5 1.4.3 1.8-.3.3-.5.4-1 0-1.5l-6.8-12.2L88 314"/><path class="st31" d="M80 349.2c.3-.9.5-2.1.2-2.6L72.7 334c-7.8-1.9-14.1-9.4-14.1-9.4l-6.6 7.8c-.2.3-.1.6.2.8l25.7 18.5c.5.4 2-2.5 2.1-2.5z"/><path class="st42" d="M74.7 336.2c-1.2.4-2.4.8-3.4 1.5m4.1.3c-1.3.5-1.9.7-2.8 1.3m3.5.2c-.8.3-1.8.7-2.6 1.2m-20.4-9.5l26.3 19m-23.2-22.8s6 4.5 3.8 8.7m18.6 7.9s-3.6 1.2-4.7 2.1"/><path class="st5" d="M64.2 227.7c-4.5 12.7 0 22.6 0 22.6s15.2 27.8 15.2 33.5c0 5.2-19.5 34.8-19.5 34.8L77.8 333s28.1-30.2 27.6-51.1c-.6-25.8-14.7-54.1-14.7-54.1"/><path class="st36" d="M67.6 228.6c-4.5 12.7.9 21.2.9 21.2s14.3 29.3 14.3 35c0 5.2-20.3 36-20.3 36m35.7-16c4.2-7.7 7.3-15.9 7.1-22.9-.6-25.8-14.7-54.1-14.7-54.1m-24.5 10.7s7.9.5 11.1-5.9"/><path class="st36" d="M96.6 242.2s2.2.3 2-.8c-.2-1.1-2-6.9-2-6.9"/><g><path class="st23" d="M106.7 160.6c.8 5.1.2 9.6-4.2 10.3-4.4.6-10.4-.5-11.6-7.9-.8-5.1 2-9.8 6.4-10.5 4.4-.6 8.6 3 9.4 8.1z"/><path class="st34" d="M103.3 160.6c-.1.5 0 1.1.4 1.3.1.1.3 0 .4-.1.4-.5-.7-2.1-.8-1.2z"/><path d="M101.8 159.5c1.1-.5 2.1-.5 3-.2" fill="none" stroke="#28364c" stroke-width=".457" stroke-linecap="round" stroke-linejoin="round" stroke-miterlimit="10"/><path class="st4" d="M106.1 165.9h-2.8s-.2 2.4 1.3 2.6c1 .2 1.5-2.6 1.5-2.6z"/><path class="st23" d="M100.2 176.4s-3.4.5-6.6-.3c-3.7-1-4.8-2.6-4.8-2.6l5.2-10.9 8 3.7-1.8 10.1z"/><path class="st24" d="M101.2 171s-3.5.1-5.3-1.6"/><path class="st23" d="M105.8 160.4s2.2 3.2 2.1 3.7c-.1.5-1.7.8-1.7.8"/><path d="M94.1 167.6c-.5.2-1 .3-1.5.4-1 .1-2.1 0-3-.5-1.6-.9-2.7-2.8-2.4-4.7.1-.3.2-.6.2-.9.2-1.5-.6-2.8-.8-4.2-.2-1.4.1-2.8.9-4 .8-1.2 1.9-2 3.3-2.6 1-.4 2.2-.5 3-1.3.4-.4.7-.7 1.2-1 2.2-1.4 5.3-.6 7.2.8.3.2.5.4.7.5.5.1 1-.1 1.5 0 1.8.4 2.6 3.1 2.6 4.7 0 .5-.1 1-.5 1.4-.5.5-1.1.8-1.8.9-1 .1-2-.1-2.9.2-.6.2-1.3.6-1.9.9-1 .4-2.2.4-3.1-.1.2.6.4 1.4.3 2.1-.2 1.3-1.3 1.9-2.5 2.3.4 1.3.7 3 .3 4.3 0 .3-.4.6-.8.8z" fill="#14122d"/><path class="st23" d="M95.7 161.4s-1-1.3-2.3-.3c-1.6 1.3.5 4.2 1.7 4.7 1.3.5 1.6-.9 1.6-.9"/></g><g><path class="st5" d="M155 217c1.6-1.4 3.2-3 4.5-4.8 1.4-1.8 2.4-3.7 3.3-5.8l-5.3-2.8c.7-1.8 1.2-3.7 1.5-5.8h6c.4-4.4-.3-8.9-1.9-13l-5.8 1.7c-.7-1.8-1.8-3.5-3-5l4.2-4.3c-1.4-1.6-3-3.2-4.8-4.5-1.8-1.4-3.7-2.4-5.8-3.3l-2.8 5.3c-1.8-.7-3.7-1.2-5.8-1.5v-6c-4.4-.4-8.9.3-13 1.9l1.7 5.8c-1.8.7-3.5 1.8-5 3l-4.3-4.2c-1.6 1.4-3.2 3-4.5 4.8-1.4 1.8-2.4 3.7-3.3 5.8l5.3 2.8c-.7 1.8-1.2 3.7-1.5 5.8h-6c-.4 4.4.3 8.9 1.9 13l5.8-1.7c.7 1.8 1.8 3.5 3 5l-4.2 4.3c1.4 1.6 3 3.2 4.8 4.5 1.8 1.3 3.7 2.4 5.8 3.3l2.8-5.3c1.8.7 3.7 1.2 5.8 1.5v6c4.4.4 8.9-.3 13-1.9l-1.7-5.8c1.8-.7 3.5-1.8 5-3l4.3 4.2zm-24.4-13c-4.7-3.5-5.7-10.1-2.2-14.8 3.5-4.7 10.1-5.7 14.8-2.2 4.7 3.5 5.7 10.1 2.2 14.8-3.4 4.7-10.1 5.7-14.8 2.2z"/><path class="st18" d="M138.5 215.7c2.5.2 13.5 1.4 13.4 2-.1.6-3.8.8-3.7 1.2.2.5 3 .9 4.7 1 1.5.1 3.7.5 3.7 1.1.1 1.2-7.8.6-7.8.6 0 .4 8.6-1 8.7 0 .3 1.5-8.9 2.1-9.1 2.5 0 0 7.7-2.8 7.9-1.7.2 1.1-6.7 3.7-8.8 3.7 1.7-.4 7-3.3 7.1-2.6.1.7-4.5 2.7-5.2 2.9-6.2 1-12.5.5-12.5.5"/><path class="st21" d="M100.4 175.7s-2.4 1.1-5.9-.5c-3.9-1.7-4.7-3.7-4.7-3.7s-21.2 1.9-28.9 60.7l43.5 5.4s3.5-21 2.9-38.1c-.6-10.6-4.8-19-6.9-23.8"/><path class="st21" d="M87.6 199.3s6.7 22.4 24.7 27.2c16.1 4.3 28.6 4.3 28.6 4.3l1.7-15.1s-19.6-3.6-27.7-8.9c-6.1-4.1-7.4-17.2-8.9-21.7-2.2-6.4-5.7-9.4-5.7-9.4"/><path class="st22" d="M87.9 172.2s1.4 4.1 7.5 5.5c4.6 1 6.3-.4 6.3-.4m3.6 46.7s-16.4-7.6-17.3-29.1m51.1 20.1l-2.3 15.7"/></g></g><g><path d="M244.7 13.2h7.4s-.9 7.7 6 9.2l-8.5 22L239.2 23s6.2-1.9 5.5-9.8zm0-5.7h7.4V11h-7.4z" fill="#28234f"/><path fill="none" stroke="#d6ddff" stroke-width=".914" stroke-miterlimit="10" d="M249.7 44.5l-.7-21.9"/><circle cx="249.1" cy="21.8" r="1.4" fill="#d6ddff"/><path fill="none" stroke="#4147c8" stroke-width=".914" stroke-miterlimit="10" d="M200 38.4l49.7 6.1 56.1-20"/><circle class="st49" cx="199.4" cy="38.4" r=".9"/><circle class="st49" cx="306.4" cy="24.1" r=".9"/><path d="M291 12.2V8.3h-2.3c-.2-.8-.5-1.6-1-2.4l1.6-1.6-2.7-2.7-1.6 1.6c-.7-.5-1.6-.8-2.4-1V0h-3.8v2.1c-.9.2-1.7.5-2.5 1l-1.5-1.5-2.7 2.7 1.5 1.5c-.5.7-.8 1.6-1 2.5h-2v3.8h2c.2.9.5 1.7 1 2.5l-1.5 1.5 2.7 2.7 1.5-1.5c.7.5 1.6.8 2.5 1v2.1h3.8v-2.2c.8-.2 1.6-.5 2.4-1l1.6 1.6 2.7-2.7-1.6-1.6c.5-.7.7-1.6 1-2.4l2.3.1zm-10.2 1.9c-2.1 0-3.8-1.7-3.8-3.8s1.7-3.8 3.8-3.8c2.1 0 3.8 1.8 3.8 3.9s-1.7 3.7-3.8 3.7z" fill="#dbdbf3"/></g><g><path d="M361.3 350.1s10-1.6 13.6-10.5c3.6-8.9 4.1-11.8 4.1-18.5 0-6.8 3.8-10.6 7.4-12" fill="none" stroke="#ff6293" stroke-width=".914" stroke-linecap="round" stroke-linejoin="round" stroke-miterlimit="10"/><path d="M371.3 344.9s-8.3-5.7-5.8-10.3c2.7-4.7 9.1 3.4 5.8 10.3zm5.7-10.7s4-9.2 9-7.6c5.2 1.8-1.6 9.7-9 7.6zm1.7-9.2s-9.8-2.5-8.9-7.7 9.9.1 8.9 7.7zm6.6-15.6s2.8-9.7 8-8.7c5.3 1.1-.4 9.8-8 8.7z" fill="#ff6293"/><ellipse class="st53" cx="301.5" cy="350.3" rx="25" ry="3.8"/><ellipse class="st53" cx="351.6" cy="350.3" rx="25" ry="3.8"/><path class="st53" d="M375.3 338.6c.5 2.1-10 6.4-23.5 9.6-13.4 3.3-24.7 4.2-25.3 2.2-.5-2.1 10-6.4 23.5-9.6 13.4-3.3 24.7-4.3 25.3-2.2z"/><path class="st53" d="M371.7 328.6c.9 1.9-8.5 8.3-20.9 14.2-12.5 6-23.4 9.3-24.3 7.4-.9-1.9 8.5-8.3 20.9-14.2 12.5-5.9 23.4-9.3 24.3-7.4z"/><path class="st53" d="M365.6 318.8c1.4 1.6-6.3 10-17.1 18.7s-20.6 14.3-21.9 12.7c-1.4-1.6 6.3-10 17.1-18.7 10.8-8.5 20.5-14.3 21.9-12.7z"/><path class="st53" d="M357.5 310.9c1.6 1.3-3.9 11.2-12.4 22.1-8.5 10.9-16.8 18.6-18.4 17.3-1.6-1.3 3.9-11.2 12.4-22.1 8.4-10.8 16.7-18.7 18.4-17.3z"/><path class="st53" d="M347 304.5c1.9.8-1.1 11.8-6.7 24.5-5.7 12.6-11.8 22.2-13.7 21.3-1.9-.8 1.1-11.8 6.7-24.5 5.6-12.6 11.8-22.1 13.7-21.3z"/><path class="st53" d="M335.4 301c2.1.4 1.8 11.7-.6 25.4-2.5 13.6-6.1 24.4-8.1 24-2.1-.4-1.8-11.7.6-25.4 2.3-13.6 6-24.4 8.1-24z"/><path class="st53" d="M322.8 300.3c2.1-.2 4.7 10.9 5.7 24.6 1 13.8.2 25.1-1.9 25.3-2.1.2-4.7-10.9-5.7-24.6-1.1-13.8-.2-25.1 1.9-25.3z"/><ellipse transform="rotate(-17.56 319.047 326.411)" class="st53" cx="319" cy="326.4" rx="3.8" ry="25"/><path class="st53" d="M298.1 309.1c1.7-1.2 9.5 7 17.3 18.4 7.9 11.4 12.8 21.6 11 22.8-1.7 1.2-9.5-7-17.3-18.4-7.8-11.4-12.7-21.6-11-22.8z"/><path class="st53" d="M288.1 318.2c1.4-1.6 11 4.3 21.6 13.1 10.6 8.9 18.1 17.3 16.8 19-1.4 1.6-11-4.3-21.6-13.1-10.6-8.9-18.2-17.4-16.8-19z"/><path class="st53" d="M281.2 329.2c.9-1.9 11.8 1.3 24.4 7.1 12.6 5.8 22 12.1 21.1 14.1-.9 1.9-11.8-1.3-24.4-7.1s-22-12.2-21.1-14.1z"/><path class="st53" d="M277.6 339.6c.5-2.1 11.8-1.4 25.3 1.6s24.1 7 23.6 9.1c-.5 2.1-11.8 1.4-25.3-1.6s-24.1-7.1-23.6-9.1z"/><g><path d="M336.8 356s-14.3-1.5-20.8-8.2c-6.5-6.8-4.1-9.8 0-10.6 4.1-.9 6.9.9 3.5-5.9-3.5-6.8-4.7-10 0-10.3 4.7-.3 7.1 3.6 9.2 1.2 2.1-2.4-.3-12 7-15.6 7.4-3.6 12 2.6 7.3 10.9-4.7 8.2-1.7 10.3 3.8 9.4 5.6-.9 9.9 3.6 7.2 6.2s-12 4.7-8.7 6.5c3.3 1.7 11.1 2.1 9.5 5.6-1.4 3.4-15.2 9.6-18 10.8z" fill="#7d86ff"/><path d="M333.6 325.6s-3.1 17.2 3.2 30.4" fill="none" stroke="#3444bb" stroke-width=".914" stroke-linecap="round" stroke-linejoin="round" stroke-miterlimit="10"/></g></g><g opacity=".5"><path d="M162.6 53.9l-9.3-9.3 6.7-3.8c.5-.3.8-.9.8-1.5s-.5-1.1-1-1.4L130.1 26c-.5-.3-1.3-.1-1.7.4-.5.5-.5 1.1-.4 1.6l11.9 29.7c.2.5.7.9 1.4 1 .6 0 1.2-.3 1.5-.8l3.8-6.7 9.3 9.3c.3.3.7.5 1.1.5.5 0 .8-.2 1.1-.5l4.6-4.6c.5-.3.5-1.3-.1-2zm-39.7-36.6c-.6-.6-1.8-.6-2.5 0-.6.6-.6 1.8 0 2.5l3.9 3.9c.4.4.8.5 1.3.5s.9-.2 1.3-.5c.6-.6.6-1.8 0-2.5l-4-3.9zm1.3 12.1c0-1-.8-1.7-1.7-1.7H117c-1 0-1.7.8-1.7 1.7 0 1 .8 1.7 1.7 1.7h5.5c.9 0 1.7-.8 1.7-1.7zm8.3-8.3c1 0 1.7-.8 1.7-1.7v-5.5c0-1-.8-1.7-1.7-1.7-1 0-1.7.8-1.7 1.7v5.5c-.1.9.8 1.7 1.7 1.7z" fill="#005de5"/></g></svg>