<svg version="1.1" id="OBJECTS" xmlns="http://www.w3.org/2000/svg" x="0" y="0" viewBox="0 0 568 317.6" xml:space="preserve"><style>.st6{fill:#dba585}.st7{fill:#d5d1c6}.st8{fill:#282a3a}.st9{fill:#f0c75e}.st13{fill:#ffdb82}.st15{fill:#fff}.st16{fill:#c2c2c2}.st17{fill:#6582db}.st18{fill:#3c57ab}.st20{opacity:.3;enable-background:new}.st21{fill:none;stroke:#333745;stroke-width:1.7321;stroke-miterlimit:10}.st23{fill:#52586e}.st26{fill:#333745}.st27{fill:#ff927d}.st29{fill:#74783f}.st31{fill:#a2a658}.st33{fill:#414657}.st35{opacity:.3}.st37{fill:#ffb700}.st39{fill:#ff6344}.st40{fill:#a1b8ff}.st42{opacity:.2}.st48,.st56{fill:none;stroke:#fff;stroke-width:.433;stroke-miterlimit:10}.st56{stroke-width:3.4641;stroke-linecap:round;stroke-linejoin:round}</style><linearGradient id="SVGID_1_" gradientUnits="userSpaceOnUse" x1="3819.606" y1="214.322" x2="3801.158" y2="161.762" gradientTransform="rotate(180 1985.543 145.6)"><stop offset="0" stop-color="#c5c9cd"/><stop offset="1" stop-color="#f5f0fc"/></linearGradient><path d="M120.4 117.9c2 7.5 5.9 14 11.1 19.2l-2.1 2.9 8.5 6.1 1.8-2.5c9.7 5.8 21.7 7.9 33.4 4.7 23-6.2 36.6-29.8 30.4-52.8-3.7-13.7-13.6-24.1-25.8-28.9-3.3-1.3-6.8-2.2-10.4-2.7-5.4-.7-10.9-.3-16.5 1.2-2.2.6-4.3 1.4-6.4 2.3-11.8 5.3-20.4 15.5-23.9 27.5-2.1 7.3-2.2 15.2-.1 23zm13.4-19.2c.2-.6.4-1.2.6-1.9 2.8-7.8 8.6-13.7 15.6-16.9 4.8-2.1 10.1-3 15.5-2.3 2.1.3 4.2.8 6.3 1.5.3.1.6.2.8.3 14.7 5.8 22.2 22.2 16.8 37.1-5.5 15.2-22.2 23.1-37.4 17.7-14.6-5.2-22.4-20.8-18.2-35.5z" fill="url(#SVGID_1_)"/><path d="M112 92.5l8.5 2.4 13.2 3.8c.2-.6.4-1.2.6-1.9 2.8-7.8 8.6-13.7 15.6-16.9l-5.6-12.6-.6-1.3-3-6.7C126.5 65.7 116.2 78 112 92.5z" fill="#477ee1"/><path d="M143.8 66.1l.6 1.3L150 80c4.8-2.1 10.1-3 15.5-2.3l1.7-13.6.2-1.4c-5.5-.7-11.3-.3-17 1.2-2.3.5-4.5 1.2-6.6 2.2z" fill="#3864b0"/><path d="M165.5 77.6c2.1.3 4.2.8 6.3 1.5.3.1.6.2.8.3l5-12.8 1.5-3.9c-3.7-1.5-7.5-2.4-11.5-2.9l-.3 2.7-.2 1.4-1.6 13.7z" fill="#2d4f88"/><path d="M171.1 56.9s.6-1.1 1-1.5c.3-.4 1.5-.7 1.3-1.2s-1.7-.3-2.1.2c-.4.5-1.7.7-1.8.9 0 .2.5 1.4.7 1.6.3.1.9 0 .9 0z" fill="#6d74b5"/><path d="M173.7 57.8s1-.8 1.5-1 1.7-.1 1.7-.6c.1-.5-1.4-.9-2-.7-.6.3-1.9-.1-2 .1s-.1 1.4 0 1.7c.2.4.8.5.8.5z" fill="#575d90"/><path class="st6" d="M171.5 59.9s-.4-3-.4-3.5c0-.1-.9-.1-.9.2.1.6-.3 3-.3 3.4.2.5 1.6.2 1.6-.1z"/><path class="st6" d="M172.9 60.7s.8-2.9 1-3.4c.1-.2-.7-.5-.9-.2-.2.6-1.5 2.6-1.6 3.1-.1.5 1.4.8 1.5.5z"/><path class="st7" d="M172.3 62.7s.9-3 1-3.3l-1.4-.9s-.6 1.9-.7 2.4c-.1.6 1.1 1.8 1.1 1.8z"/><path class="st8" d="M147.9 54.9s1.3.3 2 1.3c.6 1 1.2 2.2 2.4 2.7s1.2 1.9 1.1 2.1c-.1.2-3.8 4.3-4.6 4.5s-2.3 0-2.1-1c.2-1.1 1.7-3.3.8-4.5-.9-1.1-1.1-2.2-1.1-2.2l1.5-2.9z"/><path class="st6" d="M148.1 59.9h.4s.1 0 .1.1c.3.2 1.1.7 1.2.7.1 0 0-1.7 0-1.7s-.4-.7-.4-1.2c-.1-.5-1.3 2.1-1.3 2.1z"/><path class="st7" d="M157.5 61.7s1.5-1 3.2-.7 1.9 1.1 2.5 1.2c.6 0 2.6-.1 4.2.3 1.6.5 3 .5 3.2.4s-1-2.8-1-3.2l2-.5s.6 2.4.8 2.9c.2.6.7 1.7 0 2.6s-2.5.5-3.6.7-6.1.1-7 0-3.8-.2-3.8-.2l-.5-3.5z"/><path class="st6" d="M145.4 56.4s-.1 1.4.2 1.9c.1.2.2.3.3.3.1.1.1.2.2.3.1.3.2.7.2.8.1.1.3-.1.4-.1s1 .8 1.2.6c.2-.2 1.5-1.5 1.4-2.4s-.5-2.2-2-2.2c-1.3-.1-1.7.4-1.9.8z"/><path class="st9" d="M149.8 63.3c0 .1.6.9 1.1 1.4.2.2.5.3.7.3h.2c.7 0 1.2.1 2.1.2.9 0 3.2-.1 3.3-.1s.7.1.7.1c.2-.3-.4-3.5-.5-3.5s-.9.3-1.6.2c-.7-.1-1-.2-2.1-1.4-1.1-1.3-2.2-1.6-2.6-1.5-.5.1-1.4 0-1.4 0s.1 4.2.1 4.3z"/><path class="st8" d="M146.1 57.4s-.3.7-.4.8c0 0-.5-.6-.2-1.9.3-1.4 1.6-1.5 2.4-1.3 1 .2 2 3.6 2 3.9-.1.3-1.2-1.8-2.2-1.6-1 .2-1 .2-1.6.1z"/><path d="M148.2 59.9h.3s.1 0 .1.1c.2-.4.4-1.2.5-1.3-.2.3-.9 1.2-.9 1.2z" fill="#997761"/><path d="M151 64.7c.2.2.5.3.7.3h.2l-.3-2.7-.6 2.4z" fill="#b59749"/><path class="st6" d="M145.7 69.3l.6.6c.6-.3 2-1.3 2.2-1.5.3-.2 2.2-1.8 2.4-2.2.3-.4.6-4.1.6-4.2 0-.2-1.6-.3-1.8.1 0 0-.1 2.1-.1 2.5s-.2.7-.4 1c-.3.4-1.1 1.4-1.7 2.1-.2.1-1.6 1.4-1.8 1.6z"/><path class="st9" d="M149.6 62.1s-.1-2.8.8-2.8c1.2 0 1.3 1.5 1.2 3 0 .1-1.7.1-2-.2z"/><path class="st6" d="M146 69l-.2.2c-.2.1-.5-.1-.7.2-.2.3.6 1 .8 1s.5-.3.8-.9c.3-.6-.7-.5-.7-.5z"/><path class="st6" d="M145.2 69.3s-.4.3-.8.7c-.3.3-.7.8-.6.8.1.1.4-.3.7-.6.3-.3.3-.2.3-.2l-.3.3c-.3.4-.7.9-.6 1 .1 0 .1.1.2-.1-.1.1-.1.1 0 .1.2.2.8-.4 1-.6-.2.2-.3.3-.1.3s1-.8 1.3-1c.4-.1-1.1-.7-1.1-.7z"/><path d="M156.8 61.8s.3 2.2.2 3.3c0 0-.2.1-.5 0 0 0-.1-2.4-.3-3.3 0 .1.1 0 .6 0z" fill="#dedede"/><circle class="st13" cx="113.7" cy="91.4" r="42.2"/><circle class="st13" cx="518.2" cy="91.5" r="42.2"/><path d="M442.2 286.8H136.1V90c0-3.6 2.9-6.6 6.6-6.6h292.9c3.6 0 6.6 2.9 6.6 6.6v196.8z" fill="#595959"/><path class="st15" d="M144.5 275.7V94.5c0-1.5 1.2-2.7 2.7-2.7h283.9c1.5 0 2.7 1.2 2.7 2.7v181.2c0 1.5-1.2 2.7-2.7 2.7H147.2c-1.5 0-2.7-1.2-2.7-2.7z"/><path class="st16" d="M266.9 145.9H165.8c-6.4 0-11.6-5.2-11.6-11.6 0-6.4 5.2-11.6 11.6-11.6h101.1c6.4 0 11.6 5.2 11.6 11.6 0 6.4-5.2 11.6-11.6 11.6z"/><path class="st17" d="M428.9 91.8H149.4c-2.7 0-4.9 2.2-4.9 4.9v7.8h289.2v-7.8c.1-2.7-2.1-4.9-4.8-4.9z"/><path class="st18" d="M155.9 98.2c0 1.5-1.2 2.7-2.7 2.7s-2.7-1.2-2.7-2.7 1.2-2.7 2.7-2.7 2.7 1.2 2.7 2.7zm12.4 0c0 1.5-1.2 2.7-2.7 2.7s-2.7-1.2-2.7-2.7 1.2-2.7 2.7-2.7 2.7 1.2 2.7 2.7zm12.5 0c0 1.5-1.2 2.7-2.7 2.7s-2.7-1.2-2.7-2.7 1.2-2.7 2.7-2.7 2.7 1.2 2.7 2.7z"/><path d="M244.1 165.7h-87.8c-1.1 0-2.1-.9-2.1-2.1 0-1.1.9-2.1 2.1-2.1h87.8c1.1 0 2.1.9 2.1 2.1 0 1.2-.9 2.1-2.1 2.1zm0 12h-87.8c-1.1 0-2.1-.9-2.1-2.1 0-1.1.9-2.1 2.1-2.1h87.8c1.1 0 2.1.9 2.1 2.1 0 1.2-.9 2.1-2.1 2.1zm0 12h-87.8c-1.1 0-2.1-.9-2.1-2.1 0-1.1.9-2.1 2.1-2.1h87.8c1.1 0 2.1.9 2.1 2.1 0 1.2-.9 2.1-2.1 2.1zm-53.7 12h-34.1c-1.1 0-2.1-.9-2.1-2.1 0-1.1.9-2.1 2.1-2.1h34.1c1.1 0 2.1.9 2.1 2.1 0 1.2-1 2.1-2.1 2.1z" fill="#535373"/><path class="st16" d="M456 302.1H122.3c-2.9 0-5.2-2.3-5.2-5.2v-10.1h344.1v10.1c0 2.9-2.3 5.2-5.2 5.2zM292.3 122.7h52.1v52.1h-52.1zm0 68h52.1v52.1h-52.1z"/><path class="st20" d="M294 83.4h17.8v203.4H294z"/><path class="st21" d="M0 302.5h568"/><path d="M58.7 293.9l4-11.7H43.9l-8.1 20.3h7.1l.6-1.8c.3-1 1.4-1.5 2.3-1.2 1 .3 1.5 1.4 1.2 2.3l-.2.6h29.1c.8-5.4-17.2-8.5-17.2-8.5zm66.6 0v-11.7h-18.8l-4.1 20.3h7.1l.6-1.8c.3-1 1.4-1.5 2.3-1.2 1 .3 1.5 1.4 1.2 2.3l-.2.6h29.1c.8-5.4-17.2-8.5-17.2-8.5z" fill="#594000"/><path class="st23" d="M116.4 155.6l10.7 52.9c1.7 8.5 2.4 17.2 2.1 25.9l-1.9 56h-25.2s2.8-7.1 2.8-14.6-1.7-16.4.5-23.8c2.9-9.9-.3-15.7 3.4-27.4 0 0-8.7-28.8-12.1-47.1l-11 48.5c-.3 1.5-.8 2.9-1.3 4.3L63 290.4H36.4s5.5-5.7 6.3-13.3c1.4-12.8 7.4-16.4 9.4-23.1 2.5-8.5 5.3-21.2 10.6-28.4 0 0 7.9-40.8 8.6-46.7.8-6.6-1.7-18 5.4-25.3l39.7 2z"/><path d="M99.1 169l14.7 55.5-3.6 66.9M79.3 156.6l-11.7 69.7-23 64.1" fill="none" stroke="#fff" stroke-width=".455" stroke-miterlimit="10"/><linearGradient id="SVGID_2_" gradientUnits="userSpaceOnUse" x1="101.737" y1="102.53" x2="114.504" y2="71.864" gradientTransform="matrix(1 0 0 -1 0 291.2)"><stop offset="0"/><stop offset="1" stop-opacity="0"/></linearGradient><path d="M100 165.7l-3.3 11.7c3.4 18.4 12.1 47.1 12.1 47.1l.5-25.5c.2-12.1-9.3-33.3-9.3-33.3z" opacity=".3" fill="url(#SVGID_2_)"/><path class="st26" d="M76.7 153.6c-4.7 4.8-5.2 11.4-5.2 17.3 10.4-2.7 12.7-12.4 13.3-16.8l-8.1-.5z"/><path class="st20" d="M118.6 166.5l-2.2-10.9-39.7-2c-1.5 1.5-2.5 3.2-3.3 5l45.2 7.9z"/><path class="st27" d="M144.2 103.3l10.6 3.1 45.5.9s6.8-2.5 13.8 3.7l-71.7.1 1.8-7.8z"/><linearGradient id="SVGID_3_" gradientUnits="userSpaceOnUse" x1="143.381" y1="189.611" x2="166.764" y2="173.157" gradientTransform="matrix(1 0 0 -1 0 291.2)"><stop offset="0"/><stop offset="1" stop-opacity="0"/></linearGradient><path d="M165 106.6l-10.2-.2-10.6-3.1-1.8 7.8h19.9c.9-1.5 1.9-3.1 2.7-4.5z" opacity=".3" fill="url(#SVGID_3_)"/><path class="st29" d="M127.3 97.7l25.1 6.8-3.7 16.2-26.6-3.6z"/><linearGradient id="SVGID_4_" gradientUnits="userSpaceOnUse" x1="124.645" y1="183.65" x2="136.333" y2="183.65" gradientTransform="matrix(1 0 0 -1 0 291.2)"><stop offset="0"/><stop offset="1" stop-opacity="0"/></linearGradient><path opacity=".3" fill="url(#SVGID_4_)" d="M127.3 97.7l-2.5 9.3-.2 10.4 11.7-17.2z"/><path class="st31" d="M147.1 102.2l-4.4 18.6 6.1.8 4.1-17.8z"/><path class="st29" d="M87.6 97.7h39.8s-4.5 27.5-5.3 54.3c-.1 2.8-2.4 5-5.2 5H79.5c-6.7 0-9.2-4.7-6.2-10.9 4.5-9.1 2.6-11.1 3.4-15.4 1.9-10 10.9-24.1 10.9-33z"/><path class="st27" d="M126.4 72.3s-2 7.6-1.4 10.7l-2-.7s-1.1 4.5-1.5 5.9c-.6 2.2-3.2 3.3-6.1 1.1 0 0-1.8 5.6-2.7 8.6-6.1 2.6-11.2 0-11.2 0s3.2-8.7 4-12c0 0-2.9-15.9 2.7-18.8 5.6-2.8 18.2 5.2 18.2 5.2z"/><linearGradient id="SVGID_5_" gradientUnits="userSpaceOnUse" x1="112.162" y1="213.259" x2="110.214" y2="192.835" gradientTransform="matrix(1 0 0 -1 0 291.2)"><stop offset="0"/><stop offset="1" stop-opacity="0"/></linearGradient><path d="M109.5 80.5s-5.6-4.4-4 5.4c1.5 9.8 8.1 9 8.1 9 .9-2.7 1.8-5.6 1.8-5.6.7.5 1.4.9 2.1 1.1-2.5-1-8-9.9-8-9.9z" opacity=".3" fill="url(#SVGID_5_)"/><path class="st33" d="M105.5 85.9c-9.3-18.3 3.5-22.8 3.5-22.8 9.2-12.1 27.3.3 24.8 6.9-2.7 7.3-19.2-.2-19.2-.2l-2.9 6.6s0-4.4-2.4-3.7c-2.7.8-2.9 5.6.3 7.7-1.6 3.1-4.1 5.5-4.1 5.5z"/><path class="st18" d="M224.9 134.3H123.8c-6.4 0-11.6-5.2-11.6-11.6 0-6.4 5.2-11.6 11.6-11.6h101.1c6.4 0 11.6 5.2 11.6 11.6 0 6.4-5.2 11.6-11.6 11.6z"/><path class="st27" d="M89.5 130.5l3.5 7.2c1.8 3.8 5.8 6 9.9 5.6l43.7-4.2c1.7-.2 3.4-.5 5-1l11.5-3.8h-10.7c-.7 0-1-.9-.4-1.3 1.9-1.3 4.5-3.2 4.1-3.5-.6-.5-5.9 2.4-10.7 4.4-.8.3-1.7.5-2.6.5h-36.3c-1.8 0-3.4-1.1-4-2.8L99 121.3l-9.5 9.2z"/><linearGradient id="SVGID_6_" gradientUnits="userSpaceOnUse" x1="94.92" y1="164.492" x2="101.776" y2="147.532" gradientTransform="matrix(1 0 0 -1 0 291.2)"><stop offset="0"/><stop offset="1" stop-opacity="0"/></linearGradient><path d="M102.7 131.5L99 121.3l-9.4 9.2 3.5 7.2c.2.4.4.7.6 1.1 3.4-1.6 8-3.7 10.9-5.1-.9-.5-1.6-1.2-1.9-2.2z" opacity=".3" fill="url(#SVGID_6_)"/><path class="st29" d="M91.1 97.7l13.2 33.9H88.1s-6.8-12.8-9.1-16.9c-2.2-4.2-4.9-18.1 12.1-17z"/><path d="M102.5 127.8l-7.9-20.5.4-.2 7.9 20.6z"/><path class="st31" d="M87.8 131.9h17.4l-2-4.8h-18c1.5 2.8 2.6 4.8 2.6 4.8z"/><path d="M224.4 118.3c1.6 1.6 1.6 4.3 0 5.9-1.6 1.6-4.3 1.6-5.9 0-1.6-1.6-1.6-4.3 0-5.9s4.3-1.6 5.9 0zm0 5.9l4.1 4.1" fill="none" stroke="#fff" stroke-width="1.732" stroke-miterlimit="10"/><path d="M85.7 127.5l-4.3-8.1.4-.2 4.3 8.1z"/><path class="st18" d="M210.8 257.1h-61.3v-24.8c0-1.5 1.2-2.7 2.7-2.7H208c1.5 0 2.7 1.2 2.7 2.7v24.8h.1z"/><path class="st20" d="M205.8 257.1h-51.1v-21.8c0-.6.5-1.1 1.1-1.1h48.9c.6 0 1.1.5 1.1 1.1v21.8z"/><path class="st37" d="M184.3 260.3h3.1v-6.4h-3.1c-2.1 0-3.2-2.6-1.7-4.1l2.2-2.2-4.5-4.5-2.2 2.2c-1.5 1.5-4.1.4-4.1-1.7v-3.1h-6.4v3.1c0 2.1-2.6 3.2-4.1 1.7l-2.2-2.2-4.5 4.5 2.2 2.2c1.5 1.5.4 4.1-1.7 4.1h-3.1v6.4h3.1c2.1 0 3.2 2.6 1.7 4.1l-2.2 2.2 4.5 4.5 2.2-2.2c1.5-1.5 4.1-.4 4.1 1.7v3.1h6.4v-3.1c0-2.1 2.6-3.2 4.1-1.7l2.2 2.2 4.5-4.5-2.2-2.2c-1.5-1.5-.4-4.1 1.7-4.1zm-13.5 2c-2.9 0-5.2-2.3-5.2-5.2s2.3-5.2 5.2-5.2 5.2 2.3 5.2 5.2-2.3 5.2-5.2 5.2z"/><path class="st37" d="M188.7 268.2l15.5-15.5c1-1 2.3-1.5 3.6-1.5 1.7.1 3.5-.5 4.8-1.8 1.4-1.4 2-3.4 1.8-5.2-.1-.4-.6-.6-.9-.3l-3.4 3.4c-.5.5-1.3.7-2 .5l-1.1-.3c-.7-.2-1.3-.8-1.5-1.5l-.3-1.1c-.2-.7 0-1.5.5-2l3.4-3.4c.3-.3.1-.9-.3-.9-2.2-.3-4.4.6-5.9 2.6-.9 1.2-1.3 2.6-1.2 4.1.1 1.4-.5 2.7-1.5 3.7l-15.4 15.4c-1 1-2.3 1.6-3.7 1.5s-2.9.3-4.1 1.2c-2 1.5-2.8 3.7-2.6 5.9.1.4.6.6.9.3l3.4-3.4c.5-.5 1.3-.7 2-.5l1.1.3c.7.2 1.3.8 1.5 1.5l.3 1.1c.2.7 0 1.5-.5 2l-3.4 3.4c-.3.3-.1.9.3.9 1.9.2 3.8-.4 5.2-1.8 1.3-1.3 1.9-3.1 1.8-4.8.1-1.5.7-2.8 1.7-3.8z"/><path class="st17" d="M209.7 286.7h-59.1c-1.4 0-2.5-1.1-2.5-2.5v-27h64.1v27c0 1.3-1.1 2.5-2.5 2.5z"/><path d="M161.5 271c-1.5 0-2.7-1.2-2.7-2.7v-11.2h5.4v11.2c0 1.5-1.2 2.7-2.7 2.7zm37.4 0c-1.5 0-2.7-1.2-2.7-2.7v-11.2h5.4v11.2c0 1.5-1.2 2.7-2.7 2.7z"/><path class="st20" d="M149.6 253.9h61.3v3.2h-61.3z"/><path class="st18" d="M454 302.6H313.7c-8.4 0-15.3-6.8-15.3-15.3V17.8c0-8.4 6.8-15.3 15.3-15.3H454c8.4 0 15.3 6.8 15.3 15.3v269.6c0 8.3-6.9 15.2-15.3 15.2z"/><path class="st15" d="M441.2 9.2h-25c-2.4 0-4.6 1.6-5.2 4l-.8 3c-.7 2.5-3 4.3-5.6 4.3H363c-2.6 0-4.9-1.8-5.6-4.3l-.8-3c-.6-2.4-2.8-4-5.2-4h-25c-11.8 0-21.4 9.6-21.4 21.4v244c0 11.8 9.6 21.4 21.4 21.4h114.7c11.8 0 21.4-9.6 21.4-21.4v-244c.1-11.9-9.5-21.4-21.3-21.4z"/><path d="M395.6 15.5h-23.5c-.6 0-1.1-.5-1.1-1.1 0-.6.5-1.1 1.1-1.1h23.5c.6 0 1.1.5 1.1 1.1 0 .6-.5 1.1-1.1 1.1zm-28.3-1.1c0 1-.8 1.7-1.7 1.7-1 0-1.7-.8-1.7-1.7 0-1 .8-1.7 1.7-1.7.9-.1 1.7.7 1.7 1.7z" opacity=".2"/><path class="st23" d="M419.4 13.1h10.5V18h-10.5zm19.8 4.8l-4.3-4.8h8.5z"/><path class="st16" d="M352.1 80.3h-32.2c-1.8 0-3.3-1.5-3.3-3.3V44.8c0-1.8 1.5-3.3 3.3-3.3h32.2c1.8 0 3.3 1.5 3.3 3.3V77c0 1.8-1.5 3.3-3.3 3.3zm47.8 0h-32.2c-1.8 0-3.3-1.5-3.3-3.3V44.8c0-1.8 1.5-3.3 3.3-3.3h32.2c1.8 0 3.3 1.5 3.3 3.3V77c0 1.8-1.4 3.3-3.3 3.3zm47.9 0h-32.2c-1.8 0-3.3-1.5-3.3-3.3V44.8c0-1.8 1.5-3.3 3.3-3.3h32.2c1.8 0 3.3 1.5 3.3 3.3V77c0 1.8-1.5 3.3-3.3 3.3z"/><path class="st27" d="M448.7 122.3H319c-1.3 0-2.4-1.1-2.4-2.4V97.6c0-1.3 1.1-2.4 2.4-2.4h129.6c1.3 0 2.4 1.1 2.4 2.4v22.3c.1 1.3-1 2.4-2.3 2.4z"/><path class="st39" d="M446.7 95.3h-22v27h22c2.4 0 4.4-2 4.4-4.4V99.6c0-2.4-2-4.3-4.4-4.3zm-45.9 8.5h-74.5c-.8 0-1.5-.7-1.5-1.5s.7-1.5 1.5-1.5h74.5c.8 0 1.5.7 1.5 1.5s-.7 1.5-1.5 1.5zm0 6.5h-74.5c-.8 0-1.5-.7-1.5-1.5s.7-1.5 1.5-1.5h74.5c.8 0 1.5.7 1.5 1.5s-.7 1.5-1.5 1.5zm-43.7 6.5h-30.7c-.8 0-1.5-.7-1.5-1.5s.7-1.5 1.5-1.5h30.7c.8 0 1.5.7 1.5 1.5-.1.8-.7 1.5-1.5 1.5z"/><circle class="st15" cx="437.9" cy="108.8" r="5"/><path class="st16" d="M448.7 168.8H319c-1.3 0-2.4-1.1-2.4-2.4v-22.3c0-1.3 1.1-2.4 2.4-2.4h129.6c1.3 0 2.4 1.1 2.4 2.4v22.3c.1 1.4-1 2.4-2.3 2.4z"/><path class="st40" d="M448.7 215.4H319c-1.3 0-2.4-1.1-2.4-2.4v-22.3c0-1.3 1.1-2.4 2.4-2.4h129.6c1.3 0 2.4 1.1 2.4 2.4V213c.1 1.3-1 2.4-2.3 2.4z"/><path class="st17" d="M446.7 188.3h-22v27h22c2.4 0 4.4-2 4.4-4.4v-18.3c0-2.3-2-4.3-4.4-4.3z"/><path d="M400.8 196.8h-74.5c-.8 0-1.5-.7-1.5-1.5s.7-1.5 1.5-1.5h74.5c.8 0 1.5.7 1.5 1.5 0 .9-.7 1.5-1.5 1.5zm0 6.5h-74.5c-.8 0-1.5-.7-1.5-1.5s.7-1.5 1.5-1.5h74.5c.8 0 1.5.7 1.5 1.5 0 .9-.7 1.5-1.5 1.5zm-43.7 6.6h-30.7c-.8 0-1.5-.7-1.5-1.5s.7-1.5 1.5-1.5h30.7c.8 0 1.5.7 1.5 1.5-.1.8-.7 1.5-1.5 1.5z" fill="#7697ff"/><circle class="st15" cx="437.9" cy="201.9" r="5"/><g class="st42"><path d="M481.8 163.4l-121.4 17.2c-1.2.2-2.4-.7-2.6-1.9l-3-20.9c-.2-1.2.7-2.4 1.9-2.6L478.2 138c1.2-.2 2.4.7 2.6 1.9l3 20.9c.1 1.3-.7 2.4-2 2.6z"/></g><g class="st42"><path d="M452.1 90.9l-31.7-5.4c-1.8-.3-3-2-2.7-3.8l5.4-31.7c.3-1.8 2-3 3.8-2.7l31.7 5.4c1.8.3 3 2 2.7 3.8l-5.4 31.7c-.3 1.8-2 3-3.8 2.7z"/></g><g><path class="st17" d="M217.8 229h116.3v86.4H217.8z"/><g class="st35"><linearGradient id="SVGID_7_" gradientUnits="userSpaceOnUse" x1="256.3" y1="-12.055" x2="256.3" y2="45.28" gradientTransform="matrix(1 0 0 -1 0 291.2)"><stop offset="0"/><stop offset="1" stop-opacity="0"/></linearGradient><path d="M275.8 266l3.6-3.6-7.5-7.5-3.6 3.6c-2.5 2.5-6.8.7-6.8-2.8v-5.1H251v5.1c0 3.5-4.3 5.3-6.8 2.8l-3.6-3.6-7.5 7.5 3.6 3.6c2.5 2.5.7 6.8-2.8 6.8h-5.1v10.6h5.1c3.5 0 5.3 4.3 2.8 6.8l-3.6 3.6 7.5 7.5 3.6-3.6c2.5-2.5 6.8-.7 6.8 2.8v5.1h10.6v-5.1c0-3.5 4.3-5.3 6.8-2.8l3.6 3.6 7.5-7.5-3.6-3.6c-2.5-2.5-.7-6.8 2.8-6.8h5.1v-10.6h-5.1c-3.6 0-5.4-4.3-2.9-6.8zm-19.5 20.7c-4.8 0-8.6-3.9-8.6-8.6 0-4.8 3.9-8.6 8.6-8.6 4.8 0 8.6 3.9 8.6 8.6 0 4.8-3.9 8.6-8.6 8.6z" fill="url(#SVGID_7_)"/><linearGradient id="SVGID_8_" gradientUnits="userSpaceOnUse" x1="297.359" y1="-12.055" x2="297.359" y2="45.28" gradientTransform="matrix(1 0 0 -1 0 291.2)"><stop offset="0"/><stop offset="1" stop-opacity="0"/></linearGradient><path d="M302.2 261.6c1.4-1.3 2.4-3.2 2.4-5.3 0-2.3-1.1-4.3-2.7-5.6-.4-.3-1 0-1 .5v5.5c0 .8-.4 1.6-1.2 2l-1.1.6c-.7.4-1.6.4-2.4 0l-1.1-.6c-.7-.4-1.2-1.2-1.2-2v-5.5c0-.5-.6-.8-1-.5-1.9 1.5-3.1 4-2.7 6.7.2 1.7 1.1 3.1 2.3 4.2 1.2 1 1.7 2.6 1.7 4.1v24.6c0 1.6-.6 3.1-1.7 4.1-1.2 1.1-2 2.6-2.3 4.2-.4 2.7.7 5.2 2.7 6.7.4.3 1 0 1-.5v-5.5c0-.8.4-1.6 1.2-2l1.1-.6c.7-.4 1.6-.4 2.4 0l1.1.6c.7.4 1.2 1.2 1.2 2v5.5c0 .5.6.8 1 .5 1.7-1.3 2.7-3.3 2.7-5.6 0-2.1-.9-4-2.4-5.3-1.1-1-1.7-2.5-1.7-4.1v-24.7c0-1.4.6-2.9 1.7-4z" fill="url(#SVGID_8_)"/><linearGradient id="SVGID_9_" gradientUnits="userSpaceOnUse" x1="315.85" y1="-12.055" x2="315.85" y2="45.281" gradientTransform="matrix(1 0 0 -1 0 291.2)"><stop offset="0"/><stop offset="1" stop-opacity="0"/></linearGradient><path d="M319.5 285.8c-.8 0-1.4-.7-1.4-1.5s.6-1.4 1.4-1.4l-.1-2.7h-2.1v-21.9l1.4-.9-2-7H315l-2 7 1.4.9v21.9h-2.1l-.1 2.7c.8.1 1.4.7 1.4 1.4 0 .8-.6 1.4-1.4 1.5l-.4 20.2h8.1l-.4-20.2z" fill="url(#SVGID_9_)"/></g><path class="st18" d="M217.8 229h116.3v12.3H217.8z"/><path class="st15" d="M280.2 283.4h5.1v-10.6h-5.1c-3.5 0-5.3-4.3-2.8-6.8l3.6-3.6-7.5-7.5-3.6 3.6c-2.5 2.5-6.8.7-6.8-2.8v-5.1h-10.6v5.1c0 3.5-4.3 5.3-6.8 2.8l-3.6-3.6-7.5 7.5 3.6 3.6c2.5 2.5.7 6.8-2.8 6.8h-5.1v10.6h5.1c3.5 0 5.3 4.3 2.8 6.8l-3.6 3.6 7.5 7.5 3.6-3.6c2.5-2.5 6.8-.7 6.8 2.8v5.1h10.6v-5.1c0-3.5 4.3-5.3 6.8-2.8l3.6 3.6 7.5-7.5-3.6-3.6c-2.5-2.5-.7-6.8 2.8-6.8zm-22.4 3.3c-4.8 0-8.6-3.9-8.6-8.6 0-4.8 3.9-8.6 8.6-8.6 4.8 0 8.6 3.9 8.6 8.6.1 4.8-3.8 8.6-8.6 8.6z"/><path class="st16" d="M302 290.5v-24.7c0-1.5.6-3.1 1.7-4.1 1.4-1.3 2.4-3.2 2.4-5.3 0-2.3-1.1-4.3-2.7-5.6-.4-.3-1 0-1 .5v5.5c0 .8-.4 1.6-1.2 2l-1.1.6c-.7.4-1.6.4-2.4 0l-1.1-.6c-.7-.4-1.2-1.2-1.2-2v-5.5c0-.5-.6-.8-1-.5-1.9 1.5-3.1 4-2.7 6.7.2 1.7 1.1 3.1 2.3 4.2 1.2 1 1.7 2.6 1.7 4.1v24.6c0 1.6-.6 3.1-1.7 4.1-1.2 1.1-2 2.6-2.3 4.2-.4 2.7.7 5.2 2.7 6.7.4.3 1 0 1-.5v-5.5c0-.8.4-1.6 1.2-2l1.1-.6c.7-.4 1.6-.4 2.4 0l1.1.6c.7.4 1.2 1.2 1.2 2v5.5c0 .5.6.8 1 .5 1.7-1.3 2.7-3.3 2.7-5.6 0-2.1-.9-4-2.4-5.3-1.1-1-1.7-2.5-1.7-4zm16.3-39.9h-1.7l-2.1 6.9 1.5.9v21.9h2.9v-21.9l1.4-.9z"/><path class="st26" d="M319.7 284.4c0-.8.6-1.4 1.4-1.4l-.1-2.7h-7.1l-.1 2.7c.8.1 1.4.7 1.4 1.4 0 .8-.6 1.4-1.4 1.5l-.4 20.2h8.1l-.4-20.2c-.8-.1-1.4-.7-1.4-1.5z"/><path class="st15" d="M299 292.4c-.5 0-.9-.4-.9-.9v-26.7c0-.5.4-.9.9-.9s.9.4.9.9v26.7c0 .5-.4.9-.9.9z"/><circle class="st15" cx="231.1" cy="235.2" r="2.4"/><circle class="st15" cx="242.5" cy="235.2" r="2.4"/><path class="st15" d="M256.3 235.2c0 1.3-1.1 2.4-2.4 2.4-1.3 0-2.4-1.1-2.4-2.4s1.1-2.4 2.4-2.4c1.4 0 2.4 1.1 2.4 2.4z"/></g><g><path d="M347.9 315.4h99.9l5.3-64.7c.4-4.8-3.4-8.8-8.1-8.8h-83.5c-4.3 0-7.8 3.3-8.1 7.5l-5.5 66z"/><path class="st37" d="M460.6 315.4h-99.9l-6.3-67.9c-.3-3 2.1-5.6 5.1-5.6h89.6c2.7 0 4.9 2 5.1 4.7l6.4 68.8z"/><path class="st13" d="M377.6 248.5c.8 8.3 8.1 15 16.4 15s14.4-6.7 13.6-15c-.2-2.4-1-4.7-2.2-6.7h-26.8c-.8 2-1.2 4.3-1 6.7z"/><path class="st18" d="M371 274.9L358.2 289l2.4 26.3h67.2l-44.8-41c-3.4-3.1-8.8-2.9-12 .6z"/><path class="st17" d="M383.8 315.4h76.8l-4.6-49.9-8.5-7.8c-3.4-3.1-8.7-2.9-11.8.5l-51.9 57.2z"/></g><g><circle transform="rotate(-71.616 274.713 71.908)" class="st20" cx="274.7" cy="71.9" r="33.8"/><circle transform="rotate(-80.008 276.31 68.802)" class="st39" cx="276.3" cy="68.8" r="32.3"/><path class="st15" d="M255.6 68.2c0-.3.1-.5.2-.7.1-.2.4-.4.6-.5l9.8-6.6c.1 0 .1-.1.2-.1h.1c.2 0 .3.1.4.2s.2.3.2.4v1.3c0 .3-.1.6-.3.8-.2.2-.4.4-.6.5l-7.8 5.3 7.8 5.3c.2.1.4.3.6.5s.3.5.3.8v1.3c0 .2-.1.3-.2.4s-.3.2-.4.2h-.1s-.1 0-.2-.1l-9.8-6.6c-.3-.2-.5-.4-.6-.5-.1-.2-.2-.4-.2-.7v-1.2zm27.1 12.5c0 .1.1.2.1.3 0 .2-.1.3-.2.5-.1.1-.3.2-.5.2h-.9c-.4 0-.7-.1-.9-.3-.2-.2-.3-.4-.4-.6l-10-24c0-.1-.1-.2-.1-.3 0-.2.1-.3.2-.5.1-.1.3-.2.5-.2h1c.4 0 .7.1.9.3.2.2.3.4.4.6l9.9 24zm14.2-11.3c0 .3-.1.5-.2.7s-.4.4-.6.5l-9.8 6.6c-.1 0-.1.1-.2.1h-.1c-.2 0-.3-.1-.4-.2s-.2-.3-.2-.4v-1.3c0-.3.1-.6.3-.8.2-.2.4-.4.6-.5l7.8-5.3-7.8-5.3c-.2-.1-.4-.3-.6-.5s-.3-.5-.3-.8v-1.3c0-.2.1-.3.2-.4s.3-.2.4-.2h.1s.1 0 .2.1l9.8 6.6c.3.2.5.4.6.5.1.2.2.4.2.7v1.2z"/></g><g><circle class="st20" cx="206.9" cy="45" r="27.3"/><circle class="st39" cx="209.5" cy="42.7" r="27.3"/><path class="st20" d="M221.5 39.9c-1.1 0-2.1.4-2.9 1l-12.1-7c0-.2.1-.5.1-.8 0-2.5-2-4.5-4.5-4.5s-4.5 2-4.5 4.5 2 4.5 4.5 4.5c1.1 0 2.1-.4 2.9-1l12.1 7c0 .2-.1.5-.1.8s0 .5.1.8l-12.1 7c-.8-.6-1.8-1-2.9-1-2.5 0-4.5 2-4.5 4.5s2 4.5 4.5 4.5 4.5-2 4.5-4.5c0-.3 0-.5-.1-.7l12.1-7c.8.6 1.8 1 2.9 1 2.5 0 4.5-2 4.5-4.5 0-2.6-2-4.6-4.5-4.6z"/><path class="st15" d="M221.5 38.2c-1.1 0-2.1.4-2.9 1l-12.1-7c0-.2.1-.5.1-.8 0-2.5-2-4.5-4.5-4.5s-4.5 2-4.5 4.5 2 4.5 4.5 4.5c1.1 0 2.1-.4 2.9-1l12.1 7c0 .2-.1.5-.1.8s0 .5.1.8l-12.1 7c-.8-.6-1.8-1-2.9-1-2.5 0-4.5 2-4.5 4.5s2 4.5 4.5 4.5 4.5-2 4.5-4.5c0-.3 0-.5-.1-.7l12.1-7c.8.6 1.8 1 2.9 1 2.5 0 4.5-2 4.5-4.5s-2-4.6-4.5-4.6z"/></g><g><path class="st18" d="M482.2 290.8h6.9v24.6h-6.9zm49.5 0h6.9v24.6h-6.9z"/><g class="st35"><linearGradient id="SVGID_10_" gradientUnits="userSpaceOnUse" x1="485.65" y1="3.461" x2="485.65" y2="-19.966" gradientTransform="matrix(1 0 0 -1 0 291.2)"><stop offset="0"/><stop offset="1" stop-opacity="0"/></linearGradient><path fill="url(#SVGID_10_)" d="M482.2 290.8h6.9v10.6h-6.9z"/><linearGradient id="SVGID_11_" gradientUnits="userSpaceOnUse" x1="535.15" y1="3.461" x2="535.15" y2="-19.966" gradientTransform="matrix(1 0 0 -1 0 291.2)"><stop offset="0"/><stop offset="1" stop-opacity="0"/></linearGradient><path fill="url(#SVGID_11_)" d="M531.7 290.8h6.9v10.6h-6.9z"/></g><path class="st18" d="M541.9 292.5h-63c-2 0-3.6-1.6-3.6-3.6s1.6-3.6 3.6-3.6h63c2 0 3.6 1.6 3.6 3.6.1 2-1.6 3.6-3.6 3.6z"/><path class="st27" d="M501.7 267.7l-1.8 12.9s2.4 4.1 1.7 5.7c-.7 1.7-21.8 1.9-22.2.4-.6-2.4 12.9-6.7 12.9-6.7v-12.3h9.4z"/><path class="st39" d="M501.6 286.3c.5-1-.3-2.9-.9-4.3-6.6 1.2-9.3-.3-10.4-1.3-3.7 1.3-11.3 4.3-10.9 6 .3 1.5 21.4 1.3 22.2-.4z"/><path class="st27" d="M535.5 263.4l3.8 12.8s3.4 3.3 3.1 5.1c-.3 1.8-20.6 7.5-21.3 6.2-1.2-2.1 10.7-9.9 10.7-9.9l-5.5-11.8 9.2-2.4z"/><path class="st39" d="M542.5 281.3c.2-1.1-1-2.8-2-3.9-6 2.9-9.1 2.2-10.4 1.4-3.3 2.3-9.8 7.1-8.9 8.7.7 1.3 21-4.4 21.3-6.2z"/><path class="st17" d="M500.6 138.3s-18.5 73.1-13.4 131h16s6.6-29.8 3.8-59.4l11.1-71.4-17.5-.2z"/><path class="st48" d="M508.5 175.7s-12.9 34.4-12.9 89.5"/><linearGradient id="SVGID_12_" gradientUnits="userSpaceOnUse" x1="517.26" y1="139.026" x2="487.238" y2="63.97" gradientTransform="matrix(1 0 0 -1 0 291.2)"><stop offset="0"/><stop offset="1" stop-opacity="0"/></linearGradient><path d="M500.6 138.3s-4.6 18-8.5 43.3c2.4 16 7.1 36.3 15.6 50 .2-6.9.1-14.3-.6-21.7l11.1-71.4-17.6-.2z" opacity=".3" fill="url(#SVGID_12_)"/><path class="st17" d="M508.6 138.3s-8.8 69.8 15.8 131h15.8s-.1-44.1-10.3-61.2c0 0 4.8-55.4-5.5-69.5l-15.8-.3z"/><path class="st48" d="M516.6 141.4s-3 74.1 17 124.5"/><linearGradient id="SVGID_13_" gradientUnits="userSpaceOnUse" x1="512.75" y1="156.604" x2="512.75" y2="128.423" gradientTransform="matrix(1 0 0 -1 0 291.2)"><stop offset="0"/><stop offset="1" stop-opacity="0"/></linearGradient><path d="M524.4 138.6l-6.2-.1-9.6-.2v.1l-8-.1s-1.5 6.1-3.6 16.2c15.9 3.5 27-2 31.5-4.9-.9-4.6-2.3-8.5-4.1-11z" opacity=".3" fill="url(#SVGID_13_)"/><path class="st40" d="M524.4 269.3h15.8s0-2.6-.2-6.8h-18.2c.8 2.2 1.7 4.5 2.6 6.8zm-37.6-6.8c.1 2.3.3 4.5.5 6.8h16s.6-2.5 1.3-6.8h-17.8z"/><path class="st26" d="M505.4 68.4c-1.8 4.8-2.9 12-1.3 18.9 1.6 6.8 3.4 15.1 4.1 23.2s2.8 24.8 19.9 28c6.7 1.3 10.3-4.3 12.5-8.4 2.2-4.1-11.1-34.4-11.1-34.4l-10.3-30.9-13.8 3.6z"/><path class="st27" d="M520.5 97.1l-30 3-24-16.4s-2.4-7.3-7.8-7.9l-.8 8.4 24.7 21.8c3.2 2.8 7.4 4.2 11.6 3.7l26.9-2.7-.6-9.9z"/><linearGradient id="SVGID_14_" gradientUnits="userSpaceOnUse" x1="510.255" y1="188.851" x2="487.667" y2="169.726" gradientTransform="matrix(1 0 0 -1 0 291.2)"><stop offset="0"/><stop offset="1" stop-opacity="0"/></linearGradient><path d="M491.9 109.8h2.3l26.9-2.7-.6-10.1-23.1 2.3-5.5 10.5z" opacity=".3" fill="url(#SVGID_14_)"/><path class="st17" d="M454.8 94.5l-31.7-5.4c-1.8-.3-3-2-2.7-3.8l5.4-31.7c.3-1.8 2-3 3.8-2.7l31.7 5.4c1.8.3 3 2 2.7 3.8l-5.4 31.7c-.3 1.8-2 3-3.8 2.7z"/><path class="st15" d="M444.2 63.9l1.5 5.9c0 .2.2.4.4.4l5.8 1.6c.5.1.6.8.1 1l-5.1 3.2c-.2.1-.3.3-.3.5l.3 6c0 .5-.5.8-.9.5l-4.6-3.9c-.2-.1-.4-.2-.6-.1l-5.6 2.1c-.5.2-.9-.3-.7-.7l2.3-5.6c.1-.2 0-.4-.1-.6l-3.8-4.7c-.3-.4 0-.9.5-.9l6 .4c.2 0 .4-.1.5-.3l3.3-5c.3-.3.9-.2 1 .2z"/><linearGradient id="SVGID_15_" gradientUnits="userSpaceOnUse" x1="457.717" y1="213.76" x2="459.954" y2="204.377" gradientTransform="matrix(1 0 0 -1 0 291.2)"><stop offset="0"/><stop offset="1" stop-opacity="0"/></linearGradient><path opacity=".3" fill="url(#SVGID_15_)" d="M454.8 78l4.8 7.8 1.3-7.8z"/><path class="st27" d="M461.8 77s-7.5.2-7.4 1 4.7.9 4.7.9 1.6 5.4 7.5 4.8c-.1 0-1.5-4.8-4.8-6.7z"/><path class="st40" d="M482.9 159.6l-121.5 17.2c-1.2.2-2.4-.7-2.6-1.9l-3-20.9c-.2-1.2.7-2.4 1.9-2.6l121.5-17.2c1.2-.2 2.4.7 2.6 1.9l3 20.9c.2 1.2-.7 2.4-1.9 2.6z"/><path class="st40" d="M482.9 159.6l-121.5 17.2c-1.2.2-2.4-.7-2.6-1.9l-3-20.9c-.2-1.2.7-2.4 1.9-2.6l121.5-17.2c1.2-.2 2.4.7 2.6 1.9l3 20.9c.2 1.2-.7 2.4-1.9 2.6z"/><path class="st17" d="M477.4 134.5l-20.6 2.9 3.6 25.3 20.6-2.9c2.3-.3 3.9-2.4 3.5-4.7l-2.4-17.1c-.3-2.3-2.4-3.8-4.7-3.5zm-41.8 14l-69.8 9.9c-.8.1-1.5-.4-1.6-1.2-.1-.8.4-1.5 1.2-1.6l69.8-9.9c.8-.1 1.5.4 1.6 1.2.1.8-.4 1.5-1.2 1.6zm.9 6.1l-69.8 9.9c-.8.1-1.5-.4-1.6-1.2-.1-.8.4-1.5 1.2-1.6l69.8-9.9c.8-.1 1.5.4 1.6 1.2.1.8-.5 1.5-1.2 1.6zm-40.2 12l-28.8 4.1c-.8.1-1.5-.4-1.6-1.2-.1-.8.4-1.5 1.2-1.6l28.8-4.1c.8-.1 1.5.4 1.6 1.2.1.7-.4 1.4-1.2 1.6z"/><path class="st15" d="M475.7 147.7c.4 2.6-1.4 5-4 5.3-2.6.4-5-1.4-5.3-4-.4-2.6 1.4-5 4-5.3 2.5-.4 4.9 1.4 5.3 4z"/><linearGradient id="SVGID_16_" gradientUnits="userSpaceOnUse" x1="468.579" y1="151.519" x2="444.347" y2="131.003" gradientTransform="matrix(1 0 0 -1 0 291.2)"><stop offset="0"/><stop offset="1" stop-opacity="0"/></linearGradient><path d="M477.4 134.5l-33 4.7.3 3.6 38.8 5.2-1.4-9.9c-.3-2.4-2.4-3.9-4.7-3.6z" opacity=".3" fill="url(#SVGID_16_)"/><path class="st27" d="M510 66.7s-2.3 5.4-4.6 7.6l1.7.7-1.1 5.1c-.4 1.7.8 3.3 2.5 3.6l2.7.4c1.2.2 2.1 1.1 2.4 2.3l1.9 9.3h12.1l-1.4-28.3-16.2-.7z"/><path d="M517.1 92.4c-3.8.2-7.4 2.1-9.7 5.2-1.9 2.6-4.4 5.9-6.6 8.8-2.6 3.6-2.3 8.5.7 11.7 1.2 1.3 1.7 3.1 1.3 4.8l-5.2 22.4s6.7 1.8 14.8 2c1.4 0 2.6-.9 3-2.2l1.2-3.6 1.3 3.2c.5 1.4 2 2.2 3.4 1.9 1.8-.3 5.8-1.3 7.5-2 0 0-3.9-22 .7-51.1-5.1-1.1-9.3-1.3-12.4-1.1z" fill="#5f9e7a"/><linearGradient id="SVGID_17_" gradientUnits="userSpaceOnUse" x1="510.125" y1="181.441" x2="509.836" y2="142.037" gradientTransform="matrix(1 0 0 -1 0 291.2)"><stop offset="0"/><stop offset="1" stop-opacity="0"/></linearGradient><path d="M502.8 122.7v.1l-5.2 22.4s1.3.3 3.4.8c12-10.9 21.4-37.7 21.4-37.7l-19.6 14.4z" opacity=".3" fill="url(#SVGID_17_)"/><path class="st27" d="M521.2 99.9c-2.6-1.8-6.2-1.1-8.1 1.4l-20.3 26.3-33.2 7-6-1c-2.4-.4-4.9.2-6.9 1.6l-5.9 4.2 1.5 2.5c.9 1.6 2.8 2.3 4.5 1.9l6.5-1.7 6.6-1.7 33.8-2.8c3.2-.3 6.2-1.8 8.2-4.3l20.5-25.1c2-2.5 1.5-6.3-1.2-8.3z"/><path class="st33" d="M505.4 68.4l10.1 2.1c2.4.5 4.1 2.7 4 5.2-.7 11.7-.6 43.7 21 54.4 0 0 3.4-5.5 2-16.6-1.8-13.8-10.8-13.7-9.6-26.9 1-11.1 2.8-24.7-9.5-27.8-8.7-2.2-15.9 2.2-18 9.6z"/></g><path class="st21" d="M192.5 315.4h354.1"/><g><path class="st56" d="M551.5 231.8v17.3m8.7-8.7h-17.3"/></g><g><path class="st56" d="M492 15.5l.3 17.3m8.5-8.8l-17.3.3"/></g><g><path class="st56" d="M52.1 133.1l.3 17.4m8.5-8.9l-17.3.4"/></g></svg>